<svg width="587" height="659" viewBox="0 0 587 659" fill="none" xmlns="http://www.w3.org/2000/svg">
<path d="M483 578C538.229 578 583 533.676 583 479C583 424.324 538.229 380 483 380C427.771 380 383 424.324 383 479C383 533.676 427.771 578 483 578Z" fill="#081F1C" fill-opacity="0.2" stroke="white" stroke-width="2" stroke-miterlimit="10"/>
<path d="M323 658C378.229 658 423 613.676 423 559C423 504.324 378.229 460 323 460C267.771 460 223 504.324 223 559C223 613.676 267.771 658 323 658Z" fill="#081F1C" fill-opacity="0.2" stroke="white" stroke-width="2" stroke-miterlimit="10"/>
<path d="M486 264C541.229 264 586 219.676 586 165C586 110.324 541.229 66 486 66C430.771 66 386 110.324 386 165C386 219.676 430.771 264 486 264Z" fill="#081F1C" fill-opacity="0.2" stroke="white" stroke-width="2" stroke-miterlimit="10"/>
<path d="M323 199C378.229 199 423 154.676 423 100C423 45.3243 378.229 1 323 1C267.771 1 223 45.3243 223 100C223 154.676 267.771 199 323 199Z" fill="#081F1C" fill-opacity="0.2" stroke="white" stroke-width="2" stroke-miterlimit="10"/>
<path d="M166 264C221.229 264 266 219.676 266 165C266 110.324 221.229 66 166 66C110.771 66 66 110.324 66 165C66 219.676 110.771 264 166 264Z" fill="#081F1C" fill-opacity="0.2" stroke="white" stroke-width="2" stroke-miterlimit="10"/>
<path d="M166 578C221.229 578 266 533.676 266 479C266 424.324 221.229 380 166 380C110.771 380 66 424.324 66 479C66 533.676 110.771 578 166 578Z" fill="#081F1C" fill-opacity="0.2" stroke="white" stroke-width="2" stroke-miterlimit="10"/>
<path d="M101 421C156.229 421 201 376.676 201 322C201 267.324 156.229 223 101 223C45.7713 223 1 267.324 1 322C1 376.676 45.7713 421 101 421Z" fill="#081F1C" fill-opacity="0.2" stroke="white" stroke-width="2" stroke-miterlimit="10"/>
<path d="M64.3644 317.27V327H62.7684V320.336L59.8004 327H58.6944L55.7124 320.336V327H54.1164V317.27H55.8384L59.2544 324.9L62.6564 317.27H64.3644ZM65.9301 323.108C65.9301 322.333 66.0888 321.647 66.4061 321.05C66.7328 320.453 67.1714 319.991 67.7221 319.664C68.2821 319.328 68.8981 319.16 69.5701 319.16C70.1768 319.16 70.7041 319.281 71.1521 319.524C71.6094 319.757 71.9734 320.051 72.2441 320.406V319.286H73.8541V327H72.2441V325.852C71.9734 326.216 71.6048 326.519 71.1381 326.762C70.6714 327.005 70.1394 327.126 69.5421 327.126C68.8794 327.126 68.2728 326.958 67.7221 326.622C67.1714 326.277 66.7328 325.801 66.4061 325.194C66.0888 324.578 65.9301 323.883 65.9301 323.108ZM72.2441 323.136C72.2441 322.604 72.1321 322.142 71.9081 321.75C71.6934 321.358 71.4088 321.059 71.0541 320.854C70.6994 320.649 70.3168 320.546 69.9061 320.546C69.4954 320.546 69.1128 320.649 68.7581 320.854C68.4034 321.05 68.1141 321.344 67.8901 321.736C67.6754 322.119 67.5681 322.576 67.5681 323.108C67.5681 323.64 67.6754 324.107 67.8901 324.508C68.1141 324.909 68.4034 325.217 68.7581 325.432C69.1221 325.637 69.5048 325.74 69.9061 325.74C70.3168 325.74 70.6994 325.637 71.0541 325.432C71.4088 325.227 71.6934 324.928 71.9081 324.536C72.1321 324.135 72.2441 323.668 72.2441 323.136ZM77.5464 320.42C77.8171 320.065 78.1857 319.767 78.6524 319.524C79.1191 319.281 79.6464 319.16 80.2344 319.16C80.9064 319.16 81.5177 319.328 82.0684 319.664C82.6284 319.991 83.0671 320.453 83.3844 321.05C83.7017 321.647 83.8604 322.333 83.8604 323.108C83.8604 323.883 83.7017 324.578 83.3844 325.194C83.0671 325.801 82.6284 326.277 82.0684 326.622C81.5177 326.958 80.9064 327.126 80.2344 327.126C79.6464 327.126 79.1237 327.009 78.6664 326.776C78.2091 326.533 77.8357 326.235 77.5464 325.88V330.668H75.9504V319.286H77.5464V320.42ZM82.2364 323.108C82.2364 322.576 82.1244 322.119 81.9004 321.736C81.6857 321.344 81.3964 321.05 81.0324 320.854C80.6777 320.649 80.2951 320.546 79.8844 320.546C79.4831 320.546 79.1004 320.649 78.7364 320.854C78.3817 321.059 78.0924 321.358 77.8684 321.75C77.6537 322.142 77.5464 322.604 77.5464 323.136C77.5464 323.668 77.6537 324.135 77.8684 324.536C78.0924 324.928 78.3817 325.227 78.7364 325.432C79.1004 325.637 79.4831 325.74 79.8844 325.74C80.2951 325.74 80.6777 325.637 81.0324 325.432C81.3964 325.217 81.6857 324.909 81.9004 324.508C82.1244 324.107 82.2364 323.64 82.2364 323.108ZM92.5087 322.954C92.5087 323.243 92.49 323.505 92.4527 323.738H86.5587C86.6053 324.354 86.834 324.849 87.2447 325.222C87.6553 325.595 88.1593 325.782 88.7567 325.782C89.6153 325.782 90.222 325.423 90.5767 324.704H92.2987C92.0653 325.413 91.6407 325.997 91.0247 326.454C90.418 326.902 89.662 327.126 88.7567 327.126C88.0193 327.126 87.3567 326.963 86.7687 326.636C86.19 326.3 85.7327 325.833 85.3967 325.236C85.07 324.629 84.9067 323.929 84.9067 323.136C84.9067 322.343 85.0653 321.647 85.3827 321.05C85.7093 320.443 86.162 319.977 86.7407 319.65C87.3287 319.323 88.0007 319.16 88.7567 319.16C89.4847 319.16 90.1333 319.319 90.7027 319.636C91.272 319.953 91.7153 320.401 92.0327 320.98C92.35 321.549 92.5087 322.207 92.5087 322.954ZM90.8427 322.45C90.8333 321.862 90.6233 321.391 90.2127 321.036C89.802 320.681 89.2933 320.504 88.6867 320.504C88.136 320.504 87.6647 320.681 87.2727 321.036C86.8807 321.381 86.6473 321.853 86.5727 322.45H90.8427ZM93.5473 323.108C93.5473 322.333 93.706 321.647 94.0233 321.05C94.35 320.453 94.7886 319.991 95.3393 319.664C95.8993 319.328 96.5153 319.16 97.1873 319.16C97.794 319.16 98.3213 319.281 98.7693 319.524C99.2266 319.757 99.5906 320.051 99.8613 320.406V319.286H101.471V327H99.8613V325.852C99.5906 326.216 99.222 326.519 98.7553 326.762C98.2886 327.005 97.7566 327.126 97.1593 327.126C96.4966 327.126 95.89 326.958 95.3393 326.622C94.7886 326.277 94.35 325.801 94.0233 325.194C93.706 324.578 93.5473 323.883 93.5473 323.108ZM99.8613 323.136C99.8613 322.604 99.7493 322.142 99.5253 321.75C99.3106 321.358 99.026 321.059 98.6713 320.854C98.3166 320.649 97.934 320.546 97.5233 320.546C97.1126 320.546 96.73 320.649 96.3753 320.854C96.0206 321.05 95.7313 321.344 95.5073 321.736C95.2926 322.119 95.1853 322.576 95.1853 323.108C95.1853 323.64 95.2926 324.107 95.5073 324.508C95.7313 324.909 96.0206 325.217 96.3753 325.432C96.7393 325.637 97.122 325.74 97.5233 325.74C97.934 325.74 98.3166 325.637 98.6713 325.432C99.026 325.227 99.3106 324.928 99.5253 324.536C99.7493 324.135 99.8613 323.668 99.8613 323.136ZM112.906 319.16C113.512 319.16 114.054 319.286 114.53 319.538C115.015 319.79 115.393 320.163 115.664 320.658C115.944 321.153 116.084 321.75 116.084 322.45V327H114.502V322.688C114.502 321.997 114.329 321.47 113.984 321.106C113.638 320.733 113.167 320.546 112.57 320.546C111.972 320.546 111.496 320.733 111.142 321.106C110.796 321.47 110.624 321.997 110.624 322.688V327H109.042V322.688C109.042 321.997 108.869 321.47 108.524 321.106C108.178 320.733 107.707 320.546 107.11 320.546C106.512 320.546 106.036 320.733 105.682 321.106C105.336 321.47 105.164 321.997 105.164 322.688V327H103.568V319.286H105.164V320.168C105.425 319.851 105.756 319.603 106.158 319.426C106.559 319.249 106.988 319.16 107.446 319.16C108.062 319.16 108.612 319.291 109.098 319.552C109.583 319.813 109.956 320.191 110.218 320.686C110.451 320.219 110.815 319.851 111.31 319.58C111.804 319.3 112.336 319.16 112.906 319.16ZM125.184 322.954C125.184 323.243 125.166 323.505 125.128 323.738H119.234C119.281 324.354 119.51 324.849 119.92 325.222C120.331 325.595 120.835 325.782 121.432 325.782C122.291 325.782 122.898 325.423 123.252 324.704H124.974C124.741 325.413 124.316 325.997 123.7 326.454C123.094 326.902 122.338 327.126 121.432 327.126C120.695 327.126 120.032 326.963 119.444 326.636C118.866 326.3 118.408 325.833 118.072 325.236C117.746 324.629 117.582 323.929 117.582 323.136C117.582 322.343 117.741 321.647 118.058 321.05C118.385 320.443 118.838 319.977 119.416 319.65C120.004 319.323 120.676 319.16 121.432 319.16C122.16 319.16 122.809 319.319 123.378 319.636C123.948 319.953 124.391 320.401 124.708 320.98C125.026 321.549 125.184 322.207 125.184 322.954ZM123.518 322.45C123.509 321.862 123.299 321.391 122.888 321.036C122.478 320.681 121.969 320.504 121.362 320.504C120.812 320.504 120.34 320.681 119.948 321.036C119.556 321.381 119.323 321.853 119.248 322.45H123.518ZM130.647 319.16C131.254 319.16 131.795 319.286 132.271 319.538C132.756 319.79 133.134 320.163 133.405 320.658C133.676 321.153 133.811 321.75 133.811 322.45V327H132.229V322.688C132.229 321.997 132.056 321.47 131.711 321.106C131.366 320.733 130.894 320.546 130.297 320.546C129.7 320.546 129.224 320.733 128.869 321.106C128.524 321.47 128.351 321.997 128.351 322.688V327H126.755V319.286H128.351V320.168C128.612 319.851 128.944 319.603 129.345 319.426C129.756 319.249 130.19 319.16 130.647 319.16ZM137.709 320.588V324.858C137.709 325.147 137.774 325.357 137.905 325.488C138.045 325.609 138.278 325.67 138.605 325.67H139.585V327H138.325C137.606 327 137.056 326.832 136.673 326.496C136.29 326.16 136.099 325.614 136.099 324.858V320.588H135.189V319.286H136.099V317.368H137.709V319.286H139.585V320.588H137.709ZM144.402 327.126C143.674 327.126 143.016 326.963 142.428 326.636C141.84 326.3 141.378 325.833 141.042 325.236C140.706 324.629 140.538 323.929 140.538 323.136C140.538 322.352 140.711 321.657 141.056 321.05C141.401 320.443 141.873 319.977 142.47 319.65C143.067 319.323 143.735 319.16 144.472 319.16C145.209 319.16 145.877 319.323 146.474 319.65C147.071 319.977 147.543 320.443 147.888 321.05C148.233 321.657 148.406 322.352 148.406 323.136C148.406 323.92 148.229 324.615 147.874 325.222C147.519 325.829 147.034 326.3 146.418 326.636C145.811 326.963 145.139 327.126 144.402 327.126ZM144.402 325.74C144.813 325.74 145.195 325.642 145.55 325.446C145.914 325.25 146.208 324.956 146.432 324.564C146.656 324.172 146.768 323.696 146.768 323.136C146.768 322.576 146.661 322.105 146.446 321.722C146.231 321.33 145.947 321.036 145.592 320.84C145.237 320.644 144.855 320.546 144.444 320.546C144.033 320.546 143.651 320.644 143.296 320.84C142.951 321.036 142.675 321.33 142.47 321.722C142.265 322.105 142.162 322.576 142.162 323.136C142.162 323.967 142.372 324.611 142.792 325.068C143.221 325.516 143.758 325.74 144.402 325.74Z" fill="white"/>
<path d="M145.914 474.27V484H144.318V477.336L141.35 484H140.244L137.262 477.336V484H135.666V474.27H137.388L140.804 481.9L144.206 474.27H145.914ZM155.082 479.954C155.082 480.243 155.063 480.505 155.026 480.738H149.132C149.179 481.354 149.407 481.849 149.818 482.222C150.229 482.595 150.733 482.782 151.33 482.782C152.189 482.782 152.795 482.423 153.15 481.704H154.872C154.639 482.413 154.214 482.997 153.598 483.454C152.991 483.902 152.235 484.126 151.33 484.126C150.593 484.126 149.93 483.963 149.342 483.636C148.763 483.3 148.306 482.833 147.97 482.236C147.643 481.629 147.48 480.929 147.48 480.136C147.48 479.343 147.639 478.647 147.956 478.05C148.283 477.443 148.735 476.977 149.314 476.65C149.902 476.323 150.574 476.16 151.33 476.16C152.058 476.16 152.707 476.319 153.276 476.636C153.845 476.953 154.289 477.401 154.606 477.98C154.923 478.549 155.082 479.207 155.082 479.954ZM153.416 479.45C153.407 478.862 153.197 478.391 152.786 478.036C152.375 477.681 151.867 477.504 151.26 477.504C150.709 477.504 150.238 477.681 149.846 478.036C149.454 478.381 149.221 478.853 149.146 479.45H153.416ZM160.545 476.16C161.151 476.16 161.693 476.286 162.169 476.538C162.654 476.79 163.032 477.163 163.303 477.658C163.573 478.153 163.709 478.75 163.709 479.45V484H162.127V479.688C162.127 478.997 161.954 478.47 161.609 478.106C161.263 477.733 160.792 477.546 160.195 477.546C159.597 477.546 159.121 477.733 158.767 478.106C158.421 478.47 158.249 478.997 158.249 479.688V484H156.653V476.286H158.249V477.168C158.51 476.851 158.841 476.603 159.243 476.426C159.653 476.249 160.087 476.16 160.545 476.16ZM167.606 477.588V481.858C167.606 482.147 167.672 482.357 167.802 482.488C167.942 482.609 168.176 482.67 168.502 482.67H169.482V484H168.222C167.504 484 166.953 483.832 166.57 483.496C166.188 483.16 165.996 482.614 165.996 481.858V477.588H165.086V476.286H165.996V474.368H167.606V476.286H169.482V477.588H167.606ZM174.299 484.126C173.571 484.126 172.913 483.963 172.325 483.636C171.737 483.3 171.275 482.833 170.939 482.236C170.603 481.629 170.435 480.929 170.435 480.136C170.435 479.352 170.608 478.657 170.953 478.05C171.299 477.443 171.77 476.977 172.367 476.65C172.965 476.323 173.632 476.16 174.369 476.16C175.107 476.16 175.774 476.323 176.371 476.65C176.969 476.977 177.44 477.443 177.785 478.05C178.131 478.657 178.303 479.352 178.303 480.136C178.303 480.92 178.126 481.615 177.771 482.222C177.417 482.829 176.931 483.3 176.315 483.636C175.709 483.963 175.037 484.126 174.299 484.126ZM174.299 482.74C174.71 482.74 175.093 482.642 175.447 482.446C175.811 482.25 176.105 481.956 176.329 481.564C176.553 481.172 176.665 480.696 176.665 480.136C176.665 479.576 176.558 479.105 176.343 478.722C176.129 478.33 175.844 478.036 175.489 477.84C175.135 477.644 174.752 477.546 174.341 477.546C173.931 477.546 173.548 477.644 173.193 477.84C172.848 478.036 172.573 478.33 172.367 478.722C172.162 479.105 172.059 479.576 172.059 480.136C172.059 480.967 172.269 481.611 172.689 482.068C173.119 482.516 173.655 482.74 174.299 482.74ZM181.477 477.406C181.71 477.014 182.018 476.711 182.401 476.496C182.793 476.272 183.255 476.16 183.787 476.16V477.812H183.381C182.756 477.812 182.28 477.971 181.953 478.288C181.636 478.605 181.477 479.156 181.477 479.94V484H179.881V476.286H181.477V477.406ZM186.066 475.264C185.777 475.264 185.534 475.166 185.338 474.97C185.142 474.774 185.044 474.531 185.044 474.242C185.044 473.953 185.142 473.71 185.338 473.514C185.534 473.318 185.777 473.22 186.066 473.22C186.346 473.22 186.584 473.318 186.78 473.514C186.976 473.71 187.074 473.953 187.074 474.242C187.074 474.531 186.976 474.774 186.78 474.97C186.584 475.166 186.346 475.264 186.066 475.264ZM186.85 476.286V484H185.254V476.286H186.85ZM188.414 480.108C188.414 479.333 188.572 478.647 188.89 478.05C189.216 477.453 189.655 476.991 190.206 476.664C190.766 476.328 191.382 476.16 192.054 476.16C192.66 476.16 193.188 476.281 193.636 476.524C194.093 476.757 194.457 477.051 194.728 477.406V476.286H196.338V484H194.728V482.852C194.457 483.216 194.088 483.519 193.622 483.762C193.155 484.005 192.623 484.126 192.026 484.126C191.363 484.126 190.756 483.958 190.206 483.622C189.655 483.277 189.216 482.801 188.89 482.194C188.572 481.578 188.414 480.883 188.414 480.108ZM194.728 480.136C194.728 479.604 194.616 479.142 194.392 478.75C194.177 478.358 193.892 478.059 193.538 477.854C193.183 477.649 192.8 477.546 192.39 477.546C191.979 477.546 191.596 477.649 191.242 477.854C190.887 478.05 190.598 478.344 190.374 478.736C190.159 479.119 190.052 479.576 190.052 480.108C190.052 480.64 190.159 481.107 190.374 481.508C190.598 481.909 190.887 482.217 191.242 482.432C191.606 482.637 191.988 482.74 192.39 482.74C192.8 482.74 193.183 482.637 193.538 482.432C193.892 482.227 194.177 481.928 194.392 481.536C194.616 481.135 194.728 480.668 194.728 480.136Z" fill="white"/>
<path d="M287.539 548.114C287.539 547.162 287.759 546.308 288.197 545.552C288.645 544.796 289.247 544.208 290.003 543.788C290.769 543.359 291.604 543.144 292.509 543.144C293.545 543.144 294.465 543.401 295.267 543.914C296.079 544.418 296.667 545.137 297.031 546.07H295.113C294.861 545.557 294.511 545.174 294.063 544.922C293.615 544.67 293.097 544.544 292.509 544.544C291.865 544.544 291.291 544.689 290.787 544.978C290.283 545.267 289.887 545.683 289.597 546.224C289.317 546.765 289.177 547.395 289.177 548.114C289.177 548.833 289.317 549.463 289.597 550.004C289.887 550.545 290.283 550.965 290.787 551.264C291.291 551.553 291.865 551.698 292.509 551.698C293.097 551.698 293.615 551.572 294.063 551.32C294.511 551.068 294.861 550.685 295.113 550.172H297.031C296.667 551.105 296.079 551.824 295.267 552.328C294.465 552.832 293.545 553.084 292.509 553.084C291.595 553.084 290.759 552.874 290.003 552.454C289.247 552.025 288.645 551.432 288.197 550.676C287.759 549.92 287.539 549.066 287.539 548.114ZM300.496 546.406C300.729 546.014 301.037 545.711 301.42 545.496C301.812 545.272 302.274 545.16 302.806 545.16V546.812H302.4C301.774 546.812 301.298 546.971 300.972 547.288C300.654 547.605 300.496 548.156 300.496 548.94V553H298.9V545.286H300.496V546.406ZM305.085 544.264C304.795 544.264 304.553 544.166 304.357 543.97C304.161 543.774 304.063 543.531 304.063 543.242C304.063 542.953 304.161 542.71 304.357 542.514C304.553 542.318 304.795 542.22 305.085 542.22C305.365 542.22 305.603 542.318 305.799 542.514C305.995 542.71 306.093 542.953 306.093 543.242C306.093 543.531 305.995 543.774 305.799 543.97C305.603 544.166 305.365 544.264 305.085 544.264ZM305.869 545.286V553H304.273V545.286H305.869ZM307.432 549.108C307.432 548.333 307.591 547.647 307.908 547.05C308.235 546.453 308.673 545.991 309.224 545.664C309.784 545.328 310.4 545.16 311.072 545.16C311.679 545.16 312.206 545.281 312.654 545.524C313.111 545.757 313.475 546.051 313.746 546.406V545.286H315.356V553H313.746V551.852C313.475 552.216 313.107 552.519 312.64 552.762C312.173 553.005 311.641 553.126 311.044 553.126C310.381 553.126 309.775 552.958 309.224 552.622C308.673 552.277 308.235 551.801 307.908 551.194C307.591 550.578 307.432 549.883 307.432 549.108ZM313.746 549.136C313.746 548.604 313.634 548.142 313.41 547.75C313.195 547.358 312.911 547.059 312.556 546.854C312.201 546.649 311.819 546.546 311.408 546.546C310.997 546.546 310.615 546.649 310.26 546.854C309.905 547.05 309.616 547.344 309.392 547.736C309.177 548.119 309.07 548.576 309.07 549.108C309.07 549.64 309.177 550.107 309.392 550.508C309.616 550.909 309.905 551.217 310.26 551.432C310.624 551.637 311.007 551.74 311.408 551.74C311.819 551.74 312.201 551.637 312.556 551.432C312.911 551.227 313.195 550.928 313.41 550.536C313.634 550.135 313.746 549.668 313.746 549.136ZM320.7 551.782C321.624 551.782 322.236 551.376 322.534 550.564H324.256C324.051 551.273 323.682 551.857 323.15 552.314C322.628 552.762 321.97 553.023 321.176 553.098V553.672C321.718 553.672 322.156 553.798 322.492 554.05C322.828 554.311 322.996 554.675 322.996 555.142C322.996 555.609 322.828 555.977 322.492 556.248C322.156 556.528 321.732 556.668 321.218 556.668H319.37V555.66H320.896C321.158 555.66 321.354 555.623 321.484 555.548C321.615 555.473 321.68 555.338 321.68 555.142C321.68 554.946 321.615 554.811 321.484 554.736C321.354 554.661 321.158 554.624 320.896 554.624H320.126V553.084C319.492 553.009 318.932 552.799 318.446 552.454C317.961 552.099 317.583 551.642 317.312 551.082C317.051 550.513 316.92 549.864 316.92 549.136C316.92 548.343 317.079 547.647 317.396 547.05C317.723 546.443 318.171 545.977 318.74 545.65C319.31 545.323 319.963 545.16 320.7 545.16C321.634 545.16 322.404 545.384 323.01 545.832C323.626 546.271 324.042 546.901 324.256 547.722H322.534C322.394 547.339 322.17 547.041 321.862 546.826C321.554 546.611 321.167 546.504 320.7 546.504C320.047 546.504 319.524 546.737 319.132 547.204C318.75 547.661 318.558 548.305 318.558 549.136C318.558 549.967 318.75 550.615 319.132 551.082C319.524 551.549 320.047 551.782 320.7 551.782ZM325.315 549.108C325.315 548.333 325.474 547.647 325.791 547.05C326.118 546.453 326.556 545.991 327.107 545.664C327.667 545.328 328.283 545.16 328.955 545.16C329.562 545.16 330.089 545.281 330.537 545.524C330.994 545.757 331.358 546.051 331.629 546.406V545.286H333.239V553H331.629V551.852C331.358 552.216 330.99 552.519 330.523 552.762C330.056 553.005 329.524 553.126 328.927 553.126C328.264 553.126 327.658 552.958 327.107 552.622C326.556 552.277 326.118 551.801 325.791 551.194C325.474 550.578 325.315 549.883 325.315 549.108ZM331.629 549.136C331.629 548.604 331.517 548.142 331.293 547.75C331.078 547.358 330.794 547.059 330.439 546.854C330.084 546.649 329.702 546.546 329.291 546.546C328.88 546.546 328.498 546.649 328.143 546.854C327.788 547.05 327.499 547.344 327.275 547.736C327.06 548.119 326.953 548.576 326.953 549.108C326.953 549.64 327.06 550.107 327.275 550.508C327.499 550.909 327.788 551.217 328.143 551.432C328.507 551.637 328.89 551.74 329.291 551.74C329.702 551.74 330.084 551.637 330.439 551.432C330.794 551.227 331.078 550.928 331.293 550.536C331.517 550.135 331.629 549.668 331.629 549.136ZM327.261 544.488C327.336 543.947 327.513 543.541 327.793 543.27C328.073 542.99 328.423 542.85 328.843 542.85C329.02 542.85 329.174 542.878 329.305 542.934C329.436 542.99 329.594 543.074 329.781 543.186C329.921 543.279 330.038 543.349 330.131 543.396C330.234 543.443 330.346 543.466 330.467 543.466C330.626 543.466 330.756 543.419 330.859 543.326C330.971 543.223 331.041 543.074 331.069 542.878H331.965C331.89 543.419 331.713 543.83 331.433 544.11C331.153 544.381 330.803 544.516 330.383 544.516C330.206 544.516 330.047 544.488 329.907 544.432C329.767 544.367 329.613 544.278 329.445 544.166C329.277 544.063 329.146 543.993 329.053 543.956C328.969 543.909 328.871 543.886 328.759 543.886C328.6 543.886 328.465 543.937 328.353 544.04C328.25 544.143 328.185 544.292 328.157 544.488H327.261ZM338.681 553.126C337.953 553.126 337.295 552.963 336.707 552.636C336.119 552.3 335.657 551.833 335.321 551.236C334.985 550.629 334.817 549.929 334.817 549.136C334.817 548.352 334.99 547.657 335.335 547.05C335.68 546.443 336.152 545.977 336.749 545.65C337.346 545.323 338.014 545.16 338.751 545.16C339.488 545.16 340.156 545.323 340.753 545.65C341.35 545.977 341.822 546.443 342.167 547.05C342.512 547.657 342.685 548.352 342.685 549.136C342.685 549.92 342.508 550.615 342.153 551.222C341.798 551.829 341.313 552.3 340.697 552.636C340.09 552.963 339.418 553.126 338.681 553.126ZM338.681 551.74C339.092 551.74 339.474 551.642 339.829 551.446C340.193 551.25 340.487 550.956 340.711 550.564C340.935 550.172 341.047 549.696 341.047 549.136C341.047 548.576 340.94 548.105 340.725 547.722C340.51 547.33 340.226 547.036 339.871 546.84C339.516 546.644 339.134 546.546 338.723 546.546C338.312 546.546 337.93 546.644 337.575 546.84C337.23 547.036 336.954 547.33 336.749 547.722C336.544 548.105 336.441 548.576 336.441 549.136C336.441 549.967 336.651 550.611 337.071 551.068C337.5 551.516 338.037 551.74 338.681 551.74ZM347.368 549.108C347.368 548.333 347.526 547.647 347.844 547.05C348.17 546.453 348.609 545.991 349.16 545.664C349.72 545.328 350.34 545.16 351.022 545.16C351.526 545.16 352.02 545.272 352.506 545.496C353 545.711 353.392 546 353.682 546.364V542.64H355.292V553H353.682V551.838C353.42 552.211 353.056 552.519 352.59 552.762C352.132 553.005 351.605 553.126 351.008 553.126C350.336 553.126 349.72 552.958 349.16 552.622C348.609 552.277 348.17 551.801 347.844 551.194C347.526 550.578 347.368 549.883 347.368 549.108ZM353.682 549.136C353.682 548.604 353.57 548.142 353.346 547.75C353.131 547.358 352.846 547.059 352.492 546.854C352.137 546.649 351.754 546.546 351.344 546.546C350.933 546.546 350.55 546.649 350.196 546.854C349.841 547.05 349.552 547.344 349.328 547.736C349.113 548.119 349.006 548.576 349.006 549.108C349.006 549.64 349.113 550.107 349.328 550.508C349.552 550.909 349.841 551.217 350.196 551.432C350.56 551.637 350.942 551.74 351.344 551.74C351.754 551.74 352.137 551.637 352.492 551.432C352.846 551.227 353.131 550.928 353.346 550.536C353.57 550.135 353.682 549.668 353.682 549.136ZM364.458 548.954C364.458 549.243 364.439 549.505 364.402 549.738H358.508C358.555 550.354 358.783 550.849 359.194 551.222C359.605 551.595 360.109 551.782 360.706 551.782C361.565 551.782 362.171 551.423 362.526 550.704H364.248C364.015 551.413 363.59 551.997 362.974 552.454C362.367 552.902 361.611 553.126 360.706 553.126C359.969 553.126 359.306 552.963 358.718 552.636C358.139 552.3 357.682 551.833 357.346 551.236C357.019 550.629 356.856 549.929 356.856 549.136C356.856 548.343 357.015 547.647 357.332 547.05C357.659 546.443 358.111 545.977 358.69 545.65C359.278 545.323 359.95 545.16 360.706 545.16C361.434 545.16 362.083 545.319 362.652 545.636C363.221 545.953 363.665 546.401 363.982 546.98C364.299 547.549 364.458 548.207 364.458 548.954ZM362.792 548.45C362.783 547.862 362.573 547.391 362.162 547.036C361.751 546.681 361.243 546.504 360.636 546.504C360.085 546.504 359.614 546.681 359.222 547.036C358.83 547.381 358.597 547.853 358.522 548.45H362.792ZM298.535 574.126C297.928 574.126 297.382 574.019 296.897 573.804C296.421 573.58 296.043 573.281 295.763 572.908C295.483 572.525 295.333 572.101 295.315 571.634H296.967C296.995 571.961 297.149 572.236 297.429 572.46C297.718 572.675 298.077 572.782 298.507 572.782C298.955 572.782 299.3 572.698 299.543 572.53C299.795 572.353 299.921 572.129 299.921 571.858C299.921 571.569 299.781 571.354 299.501 571.214C299.23 571.074 298.796 570.92 298.199 570.752C297.62 570.593 297.149 570.439 296.785 570.29C296.421 570.141 296.103 569.912 295.833 569.604C295.571 569.296 295.441 568.89 295.441 568.386C295.441 567.975 295.562 567.602 295.805 567.266C296.047 566.921 296.393 566.65 296.841 566.454C297.298 566.258 297.821 566.16 298.409 566.16C299.286 566.16 299.991 566.384 300.523 566.832C301.064 567.271 301.353 567.873 301.391 568.638H299.795C299.767 568.293 299.627 568.017 299.375 567.812C299.123 567.607 298.782 567.504 298.353 567.504C297.933 567.504 297.611 567.583 297.387 567.742C297.163 567.901 297.051 568.111 297.051 568.372C297.051 568.577 297.125 568.75 297.275 568.89C297.424 569.03 297.606 569.142 297.821 569.226C298.035 569.301 298.353 569.399 298.773 569.52C299.333 569.669 299.79 569.823 300.145 569.982C300.509 570.131 300.821 570.355 301.083 570.654C301.344 570.953 301.479 571.349 301.489 571.844C301.489 572.283 301.367 572.675 301.125 573.02C300.882 573.365 300.537 573.636 300.089 573.832C299.65 574.028 299.132 574.126 298.535 574.126ZM306.559 574.126C305.831 574.126 305.173 573.963 304.585 573.636C303.997 573.3 303.535 572.833 303.199 572.236C302.863 571.629 302.695 570.929 302.695 570.136C302.695 569.352 302.868 568.657 303.213 568.05C303.558 567.443 304.03 566.977 304.627 566.65C305.224 566.323 305.892 566.16 306.629 566.16C307.366 566.16 308.034 566.323 308.631 566.65C309.228 566.977 309.7 567.443 310.045 568.05C310.39 568.657 310.563 569.352 310.563 570.136C310.563 570.92 310.386 571.615 310.031 572.222C309.676 572.829 309.191 573.3 308.575 573.636C307.968 573.963 307.296 574.126 306.559 574.126ZM306.559 572.74C306.97 572.74 307.352 572.642 307.707 572.446C308.071 572.25 308.365 571.956 308.589 571.564C308.813 571.172 308.925 570.696 308.925 570.136C308.925 569.576 308.818 569.105 308.603 568.722C308.388 568.33 308.104 568.036 307.749 567.84C307.394 567.644 307.012 567.546 306.601 567.546C306.19 567.546 305.808 567.644 305.453 567.84C305.108 568.036 304.832 568.33 304.627 568.722C304.422 569.105 304.319 569.576 304.319 570.136C304.319 570.967 304.529 571.611 304.949 572.068C305.378 572.516 305.915 572.74 306.559 572.74ZM313.737 563.64V574H312.141V563.64H313.737ZM322.818 566.286V574H321.222V573.09C320.97 573.407 320.639 573.659 320.228 573.846C319.827 574.023 319.398 574.112 318.94 574.112C318.334 574.112 317.788 573.986 317.302 573.734C316.826 573.482 316.448 573.109 316.168 572.614C315.898 572.119 315.762 571.522 315.762 570.822V566.286H317.344V570.584C317.344 571.275 317.517 571.807 317.862 572.18C318.208 572.544 318.679 572.726 319.276 572.726C319.874 572.726 320.345 572.544 320.69 572.18C321.045 571.807 321.222 571.275 321.222 570.584V566.286H322.818ZM328.172 572.782C329.096 572.782 329.707 572.376 330.006 571.564H331.728C331.523 572.273 331.154 572.857 330.622 573.314C330.099 573.762 329.441 574.023 328.648 574.098V574.672C329.189 574.672 329.628 574.798 329.964 575.05C330.3 575.311 330.468 575.675 330.468 576.142C330.468 576.609 330.3 576.977 329.964 577.248C329.628 577.528 329.203 577.668 328.69 577.668H326.842V576.66H328.368C328.629 576.66 328.825 576.623 328.956 576.548C329.087 576.473 329.152 576.338 329.152 576.142C329.152 575.946 329.087 575.811 328.956 575.736C328.825 575.661 328.629 575.624 328.368 575.624H327.598V574.084C326.963 574.009 326.403 573.799 325.918 573.454C325.433 573.099 325.055 572.642 324.784 572.082C324.523 571.513 324.392 570.864 324.392 570.136C324.392 569.343 324.551 568.647 324.868 568.05C325.195 567.443 325.643 566.977 326.212 566.65C326.781 566.323 327.435 566.16 328.172 566.16C329.105 566.16 329.875 566.384 330.482 566.832C331.098 567.271 331.513 567.901 331.728 568.722H330.006C329.866 568.339 329.642 568.041 329.334 567.826C329.026 567.611 328.639 567.504 328.172 567.504C327.519 567.504 326.996 567.737 326.604 568.204C326.221 568.661 326.03 569.305 326.03 570.136C326.03 570.967 326.221 571.615 326.604 572.082C326.996 572.549 327.519 572.782 328.172 572.782ZM336.665 574.126C335.937 574.126 335.279 573.963 334.691 573.636C334.103 573.3 333.641 572.833 333.305 572.236C332.969 571.629 332.801 570.929 332.801 570.136C332.801 569.352 332.973 568.657 333.319 568.05C333.664 567.443 334.135 566.977 334.733 566.65C335.33 566.323 335.997 566.16 336.735 566.16C337.472 566.16 338.139 566.323 338.737 566.65C339.334 566.977 339.805 567.443 340.151 568.05C340.496 568.657 340.669 569.352 340.669 570.136C340.669 570.92 340.491 571.615 340.137 572.222C339.782 572.829 339.297 573.3 338.681 573.636C338.074 573.963 337.402 574.126 336.665 574.126ZM336.665 572.74C337.075 572.74 337.458 572.642 337.813 572.446C338.177 572.25 338.471 571.956 338.695 571.564C338.919 571.172 339.031 570.696 339.031 570.136C339.031 569.576 338.923 569.105 338.709 568.722C338.494 568.33 338.209 568.036 337.855 567.84C337.5 567.644 337.117 567.546 336.707 567.546C336.296 567.546 335.913 567.644 335.559 567.84C335.213 568.036 334.938 568.33 334.733 568.722C334.527 569.105 334.425 569.576 334.425 570.136C334.425 570.967 334.635 571.611 335.055 572.068C335.484 572.516 336.021 572.74 336.665 572.74ZM334.453 565.362C334.527 564.821 334.705 564.415 334.985 564.144C335.265 563.864 335.615 563.724 336.035 563.724C336.212 563.724 336.366 563.752 336.497 563.808C336.627 563.864 336.786 563.948 336.973 564.06C337.113 564.153 337.229 564.223 337.323 564.27C337.425 564.317 337.537 564.34 337.659 564.34C337.817 564.34 337.948 564.293 338.051 564.2C338.163 564.097 338.233 563.948 338.261 563.752H339.157C339.082 564.293 338.905 564.704 338.625 564.984C338.345 565.255 337.995 565.39 337.575 565.39C337.397 565.39 337.239 565.362 337.099 565.306C336.959 565.241 336.805 565.152 336.637 565.04C336.469 564.937 336.338 564.867 336.245 564.83C336.161 564.783 336.063 564.76 335.951 564.76C335.792 564.76 335.657 564.811 335.545 564.914C335.442 565.017 335.377 565.166 335.349 565.362H334.453ZM349.316 569.954C349.316 570.243 349.298 570.505 349.26 570.738H343.366C343.413 571.354 343.642 571.849 344.052 572.222C344.463 572.595 344.967 572.782 345.564 572.782C346.423 572.782 347.03 572.423 347.384 571.704H349.106C348.873 572.413 348.448 572.997 347.832 573.454C347.226 573.902 346.47 574.126 345.564 574.126C344.827 574.126 344.164 573.963 343.576 573.636C342.998 573.3 342.54 572.833 342.204 572.236C341.878 571.629 341.714 570.929 341.714 570.136C341.714 569.343 341.873 568.647 342.19 568.05C342.517 567.443 342.97 566.977 343.548 566.65C344.136 566.323 344.808 566.16 345.564 566.16C346.292 566.16 346.941 566.319 347.51 566.636C348.08 566.953 348.523 567.401 348.84 567.98C349.158 568.549 349.316 569.207 349.316 569.954ZM347.65 569.45C347.641 568.862 347.431 568.391 347.02 568.036C346.61 567.681 346.101 567.504 345.494 567.504C344.944 567.504 344.472 567.681 344.08 568.036C343.688 568.381 343.455 568.853 343.38 569.45H347.65ZM353.687 574.126C353.08 574.126 352.534 574.019 352.049 573.804C351.573 573.58 351.195 573.281 350.915 572.908C350.635 572.525 350.486 572.101 350.467 571.634H352.119C352.147 571.961 352.301 572.236 352.581 572.46C352.87 572.675 353.23 572.782 353.659 572.782C354.107 572.782 354.452 572.698 354.695 572.53C354.947 572.353 355.073 572.129 355.073 571.858C355.073 571.569 354.933 571.354 354.653 571.214C354.382 571.074 353.948 570.92 353.351 570.752C352.772 570.593 352.301 570.439 351.937 570.29C351.573 570.141 351.256 569.912 350.985 569.604C350.724 569.296 350.593 568.89 350.593 568.386C350.593 567.975 350.714 567.602 350.957 567.266C351.2 566.921 351.545 566.65 351.993 566.454C352.45 566.258 352.973 566.16 353.561 566.16C354.438 566.16 355.143 566.384 355.675 566.832C356.216 567.271 356.506 567.873 356.543 568.638H354.947C354.919 568.293 354.779 568.017 354.527 567.812C354.275 567.607 353.934 567.504 353.505 567.504C353.085 567.504 352.763 567.583 352.539 567.742C352.315 567.901 352.203 568.111 352.203 568.372C352.203 568.577 352.278 568.75 352.427 568.89C352.576 569.03 352.758 569.142 352.973 569.226C353.188 569.301 353.505 569.399 353.925 569.52C354.485 569.669 354.942 569.823 355.297 569.982C355.661 570.131 355.974 570.355 356.235 570.654C356.496 570.953 356.632 571.349 356.641 571.844C356.641 572.283 356.52 572.675 356.277 573.02C356.034 573.365 355.689 573.636 355.241 573.832C354.802 574.028 354.284 574.126 353.687 574.126Z" fill="white"/>
<path d="M459.666 473.098C459.013 473.098 458.425 472.986 457.902 472.762C457.379 472.529 456.969 472.202 456.67 471.782C456.371 471.362 456.222 470.872 456.222 470.312H457.93C457.967 470.732 458.131 471.077 458.42 471.348C458.719 471.619 459.134 471.754 459.666 471.754C460.217 471.754 460.646 471.623 460.954 471.362C461.262 471.091 461.416 470.746 461.416 470.326C461.416 469.999 461.318 469.733 461.122 469.528C460.935 469.323 460.697 469.164 460.408 469.052C460.128 468.94 459.736 468.819 459.232 468.688C458.597 468.52 458.079 468.352 457.678 468.184C457.286 468.007 456.95 467.736 456.67 467.372C456.39 467.008 456.25 466.523 456.25 465.916C456.25 465.356 456.39 464.866 456.67 464.446C456.95 464.026 457.342 463.704 457.846 463.48C458.35 463.256 458.933 463.144 459.596 463.144C460.539 463.144 461.309 463.382 461.906 463.858C462.513 464.325 462.849 464.969 462.914 465.79H461.15C461.122 465.435 460.954 465.132 460.646 464.88C460.338 464.628 459.932 464.502 459.428 464.502C458.971 464.502 458.597 464.619 458.308 464.852C458.019 465.085 457.874 465.421 457.874 465.86C457.874 466.159 457.963 466.406 458.14 466.602C458.327 466.789 458.56 466.938 458.84 467.05C459.12 467.162 459.503 467.283 459.988 467.414C460.632 467.591 461.155 467.769 461.556 467.946C461.967 468.123 462.312 468.399 462.592 468.772C462.881 469.136 463.026 469.626 463.026 470.242C463.026 470.737 462.891 471.203 462.62 471.642C462.359 472.081 461.971 472.435 461.458 472.706C460.954 472.967 460.357 473.098 459.666 473.098ZM471.895 465.286V473H470.299V472.09C470.047 472.407 469.716 472.659 469.305 472.846C468.904 473.023 468.475 473.112 468.017 473.112C467.411 473.112 466.865 472.986 466.379 472.734C465.903 472.482 465.525 472.109 465.245 471.614C464.975 471.119 464.839 470.522 464.839 469.822V465.286H466.421V469.584C466.421 470.275 466.594 470.807 466.939 471.18C467.285 471.544 467.756 471.726 468.353 471.726C468.951 471.726 469.422 471.544 469.767 471.18C470.122 470.807 470.299 470.275 470.299 469.584V465.286H471.895ZM475.597 466.42C475.868 466.065 476.237 465.767 476.703 465.524C477.17 465.281 477.697 465.16 478.285 465.16C478.957 465.16 479.569 465.328 480.119 465.664C480.679 465.991 481.118 466.453 481.435 467.05C481.753 467.647 481.911 468.333 481.911 469.108C481.911 469.883 481.753 470.578 481.435 471.194C481.118 471.801 480.679 472.277 480.119 472.622C479.569 472.958 478.957 473.126 478.285 473.126C477.697 473.126 477.175 473.009 476.717 472.776C476.26 472.533 475.887 472.235 475.597 471.88V476.668H474.001V465.286H475.597V466.42ZM480.287 469.108C480.287 468.576 480.175 468.119 479.951 467.736C479.737 467.344 479.447 467.05 479.083 466.854C478.729 466.649 478.346 466.546 477.935 466.546C477.534 466.546 477.151 466.649 476.787 466.854C476.433 467.059 476.143 467.358 475.919 467.75C475.705 468.142 475.597 468.604 475.597 469.136C475.597 469.668 475.705 470.135 475.919 470.536C476.143 470.928 476.433 471.227 476.787 471.432C477.151 471.637 477.534 471.74 477.935 471.74C478.346 471.74 478.729 471.637 479.083 471.432C479.447 471.217 479.737 470.909 479.951 470.508C480.175 470.107 480.287 469.64 480.287 469.108ZM486.835 473.126C486.107 473.126 485.449 472.963 484.861 472.636C484.273 472.3 483.811 471.833 483.475 471.236C483.139 470.629 482.971 469.929 482.971 469.136C482.971 468.352 483.144 467.657 483.489 467.05C483.835 466.443 484.306 465.977 484.903 465.65C485.501 465.323 486.168 465.16 486.905 465.16C487.643 465.16 488.31 465.323 488.907 465.65C489.505 465.977 489.976 466.443 490.321 467.05C490.667 467.657 490.839 468.352 490.839 469.136C490.839 469.92 490.662 470.615 490.307 471.222C489.953 471.829 489.467 472.3 488.851 472.636C488.245 472.963 487.573 473.126 486.835 473.126ZM486.835 471.74C487.246 471.74 487.629 471.642 487.983 471.446C488.347 471.25 488.641 470.956 488.865 470.564C489.089 470.172 489.201 469.696 489.201 469.136C489.201 468.576 489.094 468.105 488.879 467.722C488.665 467.33 488.38 467.036 488.025 466.84C487.671 466.644 487.288 466.546 486.877 466.546C486.467 466.546 486.084 466.644 485.729 466.84C485.384 467.036 485.109 467.33 484.903 467.722C484.698 468.105 484.595 468.576 484.595 469.136C484.595 469.967 484.805 470.611 485.225 471.068C485.655 471.516 486.191 471.74 486.835 471.74ZM494.013 466.406C494.247 466.014 494.555 465.711 494.937 465.496C495.329 465.272 495.791 465.16 496.323 465.16V466.812H495.917C495.292 466.812 494.816 466.971 494.489 467.288C494.172 467.605 494.013 468.156 494.013 468.94V473H492.417V465.286H494.013V466.406ZM499.652 466.588V470.858C499.652 471.147 499.718 471.357 499.848 471.488C499.988 471.609 500.222 471.67 500.548 471.67H501.528V473H500.268C499.55 473 498.999 472.832 498.616 472.496C498.234 472.16 498.042 471.614 498.042 470.858V466.588H497.132V465.286H498.042V463.368H499.652V465.286H501.528V466.588H499.652ZM510.069 468.954C510.069 469.243 510.051 469.505 510.013 469.738H504.119C504.166 470.354 504.395 470.849 504.805 471.222C505.216 471.595 505.72 471.782 506.317 471.782C507.176 471.782 507.783 471.423 508.137 470.704H509.859C509.626 471.413 509.201 471.997 508.585 472.454C507.979 472.902 507.223 473.126 506.317 473.126C505.58 473.126 504.917 472.963 504.329 472.636C503.751 472.3 503.293 471.833 502.957 471.236C502.631 470.629 502.467 469.929 502.467 469.136C502.467 468.343 502.626 467.647 502.943 467.05C503.27 466.443 503.723 465.977 504.301 465.65C504.889 465.323 505.561 465.16 506.317 465.16C507.045 465.16 507.694 465.319 508.263 465.636C508.833 465.953 509.276 466.401 509.593 466.98C509.911 467.549 510.069 468.207 510.069 468.954ZM508.403 468.45C508.394 467.862 508.184 467.391 507.773 467.036C507.363 466.681 506.854 466.504 506.247 466.504C505.697 466.504 505.225 466.681 504.833 467.036C504.441 467.381 504.208 467.853 504.133 468.45H508.403ZM451.029 487.42C451.299 487.065 451.668 486.767 452.135 486.524C452.601 486.281 453.129 486.16 453.717 486.16C454.389 486.16 455 486.328 455.551 486.664C456.111 486.991 456.549 487.453 456.867 488.05C457.184 488.647 457.343 489.333 457.343 490.108C457.343 490.883 457.184 491.578 456.867 492.194C456.549 492.801 456.111 493.277 455.551 493.622C455 493.958 454.389 494.126 453.717 494.126C453.129 494.126 452.606 494.009 452.149 493.776C451.691 493.533 451.318 493.235 451.029 492.88V497.668H449.433V486.286H451.029V487.42ZM455.719 490.108C455.719 489.576 455.607 489.119 455.383 488.736C455.168 488.344 454.879 488.05 454.515 487.854C454.16 487.649 453.777 487.546 453.367 487.546C452.965 487.546 452.583 487.649 452.219 487.854C451.864 488.059 451.575 488.358 451.351 488.75C451.136 489.142 451.029 489.604 451.029 490.136C451.029 490.668 451.136 491.135 451.351 491.536C451.575 491.928 451.864 492.227 452.219 492.432C452.583 492.637 452.965 492.74 453.367 492.74C453.777 492.74 454.16 492.637 454.515 492.432C454.879 492.217 455.168 491.909 455.383 491.508C455.607 491.107 455.719 490.64 455.719 490.108ZM460.517 487.406C460.75 487.014 461.058 486.711 461.441 486.496C461.833 486.272 462.295 486.16 462.827 486.16V487.812H462.421C461.796 487.812 461.32 487.971 460.993 488.288C460.676 488.605 460.517 489.156 460.517 489.94V494H458.921V486.286H460.517V487.406ZM465.106 485.264C464.817 485.264 464.574 485.166 464.378 484.97C464.182 484.774 464.084 484.531 464.084 484.242C464.084 483.953 464.182 483.71 464.378 483.514C464.574 483.318 464.817 483.22 465.106 483.22C465.386 483.22 465.624 483.318 465.82 483.514C466.016 483.71 466.114 483.953 466.114 484.242C466.114 484.531 466.016 484.774 465.82 484.97C465.624 485.166 465.386 485.264 465.106 485.264ZM465.89 486.286V494H464.294V486.286H465.89ZM471.332 494.126C470.604 494.126 469.946 493.963 469.358 493.636C468.77 493.3 468.308 492.833 467.972 492.236C467.636 491.629 467.468 490.929 467.468 490.136C467.468 489.352 467.64 488.657 467.986 488.05C468.331 487.443 468.802 486.977 469.4 486.65C469.997 486.323 470.664 486.16 471.402 486.16C472.139 486.16 472.806 486.323 473.404 486.65C474.001 486.977 474.472 487.443 474.818 488.05C475.163 488.657 475.336 489.352 475.336 490.136C475.336 490.92 475.158 491.615 474.804 492.222C474.449 492.829 473.964 493.3 473.348 493.636C472.741 493.963 472.069 494.126 471.332 494.126ZM471.332 492.74C471.742 492.74 472.125 492.642 472.48 492.446C472.844 492.25 473.138 491.956 473.362 491.564C473.586 491.172 473.698 490.696 473.698 490.136C473.698 489.576 473.59 489.105 473.376 488.722C473.161 488.33 472.876 488.036 472.522 487.84C472.167 487.644 471.784 487.546 471.374 487.546C470.963 487.546 470.58 487.644 470.226 487.84C469.88 488.036 469.605 488.33 469.4 488.722C469.194 489.105 469.092 489.576 469.092 490.136C469.092 490.967 469.302 491.611 469.722 492.068C470.151 492.516 470.688 492.74 471.332 492.74ZM478.509 487.406C478.743 487.014 479.051 486.711 479.433 486.496C479.825 486.272 480.287 486.16 480.819 486.16V487.812H480.413C479.788 487.812 479.312 487.971 478.985 488.288C478.668 488.605 478.509 489.156 478.509 489.94V494H476.913V486.286H478.509V487.406ZM483.098 485.264C482.809 485.264 482.566 485.166 482.37 484.97C482.174 484.774 482.076 484.531 482.076 484.242C482.076 483.953 482.174 483.71 482.37 483.514C482.566 483.318 482.809 483.22 483.098 483.22C483.378 483.22 483.616 483.318 483.812 483.514C484.008 483.71 484.106 483.953 484.106 484.242C484.106 484.531 484.008 484.774 483.812 484.97C483.616 485.166 483.378 485.264 483.098 485.264ZM483.882 486.286V494H482.286V486.286H483.882ZM487.84 487.588V491.858C487.84 492.147 487.905 492.357 488.036 492.488C488.176 492.609 488.409 492.67 488.736 492.67H489.716V494H488.456C487.737 494 487.186 493.832 486.804 493.496C486.421 493.16 486.23 492.614 486.23 491.858V487.588H485.32V486.286H486.23V484.368H487.84V486.286H489.716V487.588H487.84ZM490.655 490.108C490.655 489.333 490.813 488.647 491.131 488.05C491.457 487.453 491.896 486.991 492.447 486.664C493.007 486.328 493.623 486.16 494.295 486.16C494.901 486.16 495.429 486.281 495.877 486.524C496.334 486.757 496.698 487.051 496.969 487.406V486.286H498.579V494H496.969V492.852C496.698 493.216 496.329 493.519 495.863 493.762C495.396 494.005 494.864 494.126 494.267 494.126C493.604 494.126 492.997 493.958 492.447 493.622C491.896 493.277 491.457 492.801 491.131 492.194C490.813 491.578 490.655 490.883 490.655 490.108ZM496.969 490.136C496.969 489.604 496.857 489.142 496.633 488.75C496.418 488.358 496.133 488.059 495.779 487.854C495.424 487.649 495.041 487.546 494.631 487.546C494.22 487.546 493.837 487.649 493.483 487.854C493.128 488.05 492.839 488.344 492.615 488.736C492.4 489.119 492.293 489.576 492.293 490.108C492.293 490.64 492.4 491.107 492.615 491.508C492.839 491.909 493.128 492.217 493.483 492.432C493.847 492.637 494.229 492.74 494.631 492.74C495.041 492.74 495.424 492.637 495.779 492.432C496.133 492.227 496.418 491.928 496.633 491.536C496.857 491.135 496.969 490.668 496.969 490.136ZM496.325 484.214L493.231 485.74V484.564L496.325 482.856V484.214ZM502.271 487.406C502.504 487.014 502.812 486.711 503.195 486.496C503.587 486.272 504.049 486.16 504.581 486.16V487.812H504.175C503.55 487.812 503.074 487.971 502.747 488.288C502.43 488.605 502.271 489.156 502.271 489.94V494H500.675V486.286H502.271V487.406ZM506.86 485.264C506.571 485.264 506.328 485.166 506.132 484.97C505.936 484.774 505.838 484.531 505.838 484.242C505.838 483.953 505.936 483.71 506.132 483.514C506.328 483.318 506.571 483.22 506.86 483.22C507.14 483.22 507.378 483.318 507.574 483.514C507.77 483.71 507.868 483.953 507.868 484.242C507.868 484.531 507.77 484.774 507.574 484.97C507.378 485.166 507.14 485.264 506.86 485.264ZM507.644 486.286V494H506.048V486.286H507.644ZM513.085 494.126C512.357 494.126 511.699 493.963 511.111 493.636C510.523 493.3 510.061 492.833 509.725 492.236C509.389 491.629 509.221 490.929 509.221 490.136C509.221 489.352 509.394 488.657 509.739 488.05C510.085 487.443 510.556 486.977 511.153 486.65C511.751 486.323 512.418 486.16 513.155 486.16C513.893 486.16 514.56 486.323 515.157 486.65C515.755 486.977 516.226 487.443 516.571 488.05C516.917 488.657 517.089 489.352 517.089 490.136C517.089 490.92 516.912 491.615 516.557 492.222C516.203 492.829 515.717 493.3 515.101 493.636C514.495 493.963 513.823 494.126 513.085 494.126ZM513.085 492.74C513.496 492.74 513.879 492.642 514.233 492.446C514.597 492.25 514.891 491.956 515.115 491.564C515.339 491.172 515.451 490.696 515.451 490.136C515.451 489.576 515.344 489.105 515.129 488.722C514.915 488.33 514.63 488.036 514.275 487.84C513.921 487.644 513.538 487.546 513.127 487.546C512.717 487.546 512.334 487.644 511.979 487.84C511.634 488.036 511.359 488.33 511.153 488.722C510.948 489.105 510.845 489.576 510.845 490.136C510.845 490.967 511.055 491.611 511.475 492.068C511.905 492.516 512.441 492.74 513.085 492.74Z" fill="white"/>
<path d="M138.341 163.168C138.341 163.663 138.225 164.129 137.991 164.568C137.758 165.007 137.385 165.366 136.871 165.646C136.358 165.917 135.7 166.052 134.897 166.052H133.133V170H131.537V160.27H134.897C135.644 160.27 136.274 160.401 136.787 160.662C137.31 160.914 137.697 161.259 137.949 161.698C138.211 162.137 138.341 162.627 138.341 163.168ZM134.897 164.75C135.504 164.75 135.957 164.615 136.255 164.344C136.554 164.064 136.703 163.672 136.703 163.168C136.703 162.104 136.101 161.572 134.897 161.572H133.133V164.75H134.897ZM141.459 163.406C141.693 163.014 142.001 162.711 142.383 162.496C142.775 162.272 143.237 162.16 143.769 162.16V163.812H143.363C142.738 163.812 142.262 163.971 141.935 164.288C141.618 164.605 141.459 165.156 141.459 165.94V170H139.863V162.286H141.459V163.406ZM148.583 170.126C147.855 170.126 147.197 169.963 146.609 169.636C146.021 169.3 145.559 168.833 145.223 168.236C144.887 167.629 144.719 166.929 144.719 166.136C144.719 165.352 144.891 164.657 145.237 164.05C145.582 163.443 146.053 162.977 146.651 162.65C147.248 162.323 147.915 162.16 148.653 162.16C149.39 162.16 150.057 162.323 150.655 162.65C151.252 162.977 151.723 163.443 152.069 164.05C152.414 164.657 152.587 165.352 152.587 166.136C152.587 166.92 152.409 167.615 152.055 168.222C151.7 168.829 151.215 169.3 150.599 169.636C149.992 169.963 149.32 170.126 148.583 170.126ZM148.583 168.74C148.993 168.74 149.376 168.642 149.731 168.446C150.095 168.25 150.389 167.956 150.613 167.564C150.837 167.172 150.949 166.696 150.949 166.136C150.949 165.576 150.841 165.105 150.627 164.722C150.412 164.33 150.127 164.036 149.773 163.84C149.418 163.644 149.035 163.546 148.625 163.546C148.214 163.546 147.831 163.644 147.477 163.84C147.131 164.036 146.856 164.33 146.651 164.722C146.445 165.105 146.343 165.576 146.343 166.136C146.343 166.967 146.553 167.611 146.973 168.068C147.402 168.516 147.939 168.74 148.583 168.74ZM153.632 166.136C153.632 165.343 153.791 164.647 154.108 164.05C154.435 163.443 154.883 162.977 155.452 162.65C156.022 162.323 156.675 162.16 157.412 162.16C158.346 162.16 159.116 162.384 159.722 162.832C160.338 163.271 160.754 163.901 160.968 164.722H159.246C159.106 164.339 158.882 164.041 158.574 163.826C158.266 163.611 157.879 163.504 157.412 163.504C156.759 163.504 156.236 163.737 155.844 164.204C155.462 164.661 155.27 165.305 155.27 166.136C155.27 166.967 155.462 167.615 155.844 168.082C156.236 168.549 156.759 168.782 157.412 168.782C158.336 168.782 158.948 168.376 159.246 167.564H160.968C160.744 168.348 160.324 168.973 159.708 169.44C159.092 169.897 158.327 170.126 157.412 170.126C156.675 170.126 156.022 169.963 155.452 169.636C154.883 169.3 154.435 168.833 154.108 168.236C153.791 167.629 153.632 166.929 153.632 166.136ZM169.629 165.954C169.629 166.243 169.61 166.505 169.573 166.738H163.679C163.725 167.354 163.954 167.849 164.365 168.222C164.775 168.595 165.279 168.782 165.877 168.782C166.735 168.782 167.342 168.423 167.697 167.704H169.419C169.185 168.413 168.761 168.997 168.145 169.454C167.538 169.902 166.782 170.126 165.877 170.126C165.139 170.126 164.477 169.963 163.889 169.636C163.31 169.3 162.853 168.833 162.517 168.236C162.19 167.629 162.027 166.929 162.027 166.136C162.027 165.343 162.185 164.647 162.503 164.05C162.829 163.443 163.282 162.977 163.861 162.65C164.449 162.323 165.121 162.16 165.877 162.16C166.605 162.16 167.253 162.319 167.823 162.636C168.392 162.953 168.835 163.401 169.153 163.98C169.47 164.549 169.629 165.207 169.629 165.954ZM167.963 165.45C167.953 164.862 167.743 164.391 167.333 164.036C166.922 163.681 166.413 163.504 165.807 163.504C165.256 163.504 164.785 163.681 164.393 164.036C164.001 164.381 163.767 164.853 163.693 165.45H167.963ZM173.999 170.126C173.393 170.126 172.847 170.019 172.361 169.804C171.885 169.58 171.507 169.281 171.227 168.908C170.947 168.525 170.798 168.101 170.779 167.634H172.431C172.459 167.961 172.613 168.236 172.893 168.46C173.183 168.675 173.542 168.782 173.971 168.782C174.419 168.782 174.765 168.698 175.007 168.53C175.259 168.353 175.385 168.129 175.385 167.858C175.385 167.569 175.245 167.354 174.965 167.214C174.695 167.074 174.261 166.92 173.663 166.752C173.085 166.593 172.613 166.439 172.249 166.29C171.885 166.141 171.568 165.912 171.297 165.604C171.036 165.296 170.905 164.89 170.905 164.386C170.905 163.975 171.027 163.602 171.269 163.266C171.512 162.921 171.857 162.65 172.305 162.454C172.763 162.258 173.285 162.16 173.873 162.16C174.751 162.16 175.455 162.384 175.987 162.832C176.529 163.271 176.818 163.873 176.855 164.638H175.259C175.231 164.293 175.091 164.017 174.839 163.812C174.587 163.607 174.247 163.504 173.817 163.504C173.397 163.504 173.075 163.583 172.851 163.742C172.627 163.901 172.515 164.111 172.515 164.372C172.515 164.577 172.59 164.75 172.739 164.89C172.889 165.03 173.071 165.142 173.285 165.226C173.5 165.301 173.817 165.399 174.237 165.52C174.797 165.669 175.255 165.823 175.609 165.982C175.973 166.131 176.286 166.355 176.547 166.654C176.809 166.953 176.944 167.349 176.953 167.844C176.953 168.283 176.832 168.675 176.589 169.02C176.347 169.365 176.001 169.636 175.553 169.832C175.115 170.028 174.597 170.126 173.999 170.126ZM181.478 170.126C180.871 170.126 180.325 170.019 179.84 169.804C179.364 169.58 178.986 169.281 178.706 168.908C178.426 168.525 178.277 168.101 178.258 167.634H179.91C179.938 167.961 180.092 168.236 180.372 168.46C180.661 168.675 181.021 168.782 181.45 168.782C181.898 168.782 182.243 168.698 182.486 168.53C182.738 168.353 182.864 168.129 182.864 167.858C182.864 167.569 182.724 167.354 182.444 167.214C182.173 167.074 181.739 166.92 181.142 166.752C180.563 166.593 180.092 166.439 179.728 166.29C179.364 166.141 179.047 165.912 178.776 165.604C178.515 165.296 178.384 164.89 178.384 164.386C178.384 163.975 178.505 163.602 178.748 163.266C178.991 162.921 179.336 162.65 179.784 162.454C180.241 162.258 180.764 162.16 181.352 162.16C182.229 162.16 182.934 162.384 183.466 162.832C184.007 163.271 184.297 163.873 184.334 164.638H182.738C182.71 164.293 182.57 164.017 182.318 163.812C182.066 163.607 181.725 163.504 181.296 163.504C180.876 163.504 180.554 163.583 180.33 163.742C180.106 163.901 179.994 164.111 179.994 164.372C179.994 164.577 180.069 164.75 180.218 164.89C180.367 165.03 180.549 165.142 180.764 165.226C180.979 165.301 181.296 165.399 181.716 165.52C182.276 165.669 182.733 165.823 183.088 165.982C183.452 166.131 183.765 166.355 184.026 166.654C184.287 166.953 184.423 167.349 184.432 167.844C184.432 168.283 184.311 168.675 184.068 169.02C183.825 169.365 183.48 169.636 183.032 169.832C182.593 170.028 182.075 170.126 181.478 170.126ZM189.502 170.126C188.774 170.126 188.116 169.963 187.528 169.636C186.94 169.3 186.478 168.833 186.142 168.236C185.806 167.629 185.638 166.929 185.638 166.136C185.638 165.352 185.811 164.657 186.156 164.05C186.502 163.443 186.973 162.977 187.57 162.65C188.168 162.323 188.835 162.16 189.572 162.16C190.31 162.16 190.977 162.323 191.574 162.65C192.172 162.977 192.643 163.443 192.988 164.05C193.334 164.657 193.506 165.352 193.506 166.136C193.506 166.92 193.329 167.615 192.974 168.222C192.62 168.829 192.134 169.3 191.518 169.636C190.912 169.963 190.24 170.126 189.502 170.126ZM189.502 168.74C189.913 168.74 190.296 168.642 190.65 168.446C191.014 168.25 191.308 167.956 191.532 167.564C191.756 167.172 191.868 166.696 191.868 166.136C191.868 165.576 191.761 165.105 191.546 164.722C191.332 164.33 191.047 164.036 190.692 163.84C190.338 163.644 189.955 163.546 189.544 163.546C189.134 163.546 188.751 163.644 188.396 163.84C188.051 164.036 187.776 164.33 187.57 164.722C187.365 165.105 187.262 165.576 187.262 166.136C187.262 166.967 187.472 167.611 187.892 168.068C188.322 168.516 188.858 168.74 189.502 168.74ZM197.884 170.126C197.278 170.126 196.732 170.019 196.246 169.804C195.77 169.58 195.392 169.281 195.112 168.908C194.832 168.525 194.683 168.101 194.664 167.634H196.316C196.344 167.961 196.498 168.236 196.778 168.46C197.068 168.675 197.427 168.782 197.856 168.782C198.304 168.782 198.65 168.698 198.892 168.53C199.144 168.353 199.27 168.129 199.27 167.858C199.27 167.569 199.13 167.354 198.85 167.214C198.58 167.074 198.146 166.92 197.548 166.752C196.97 166.593 196.498 166.439 196.134 166.29C195.77 166.141 195.453 165.912 195.182 165.604C194.921 165.296 194.79 164.89 194.79 164.386C194.79 163.975 194.912 163.602 195.154 163.266C195.397 162.921 195.742 162.65 196.19 162.454C196.648 162.258 197.17 162.16 197.758 162.16C198.636 162.16 199.34 162.384 199.872 162.832C200.414 163.271 200.703 163.873 200.74 164.638H199.144C199.116 164.293 198.976 164.017 198.724 163.812C198.472 163.607 198.132 163.504 197.702 163.504C197.282 163.504 196.96 163.583 196.736 163.742C196.512 163.901 196.4 164.111 196.4 164.372C196.4 164.577 196.475 164.75 196.624 164.89C196.774 165.03 196.956 165.142 197.17 165.226C197.385 165.301 197.702 165.399 198.122 165.52C198.682 165.669 199.14 165.823 199.494 165.982C199.858 166.131 200.171 166.355 200.432 166.654C200.694 166.953 200.829 167.349 200.838 167.844C200.838 168.283 200.717 168.675 200.474 169.02C200.232 169.365 199.886 169.636 199.438 169.832C199 170.028 198.482 170.126 197.884 170.126Z" fill="white"/>
<path d="M304.574 95.27C305.61 95.27 306.515 95.4707 307.29 95.872C308.074 96.264 308.676 96.8333 309.096 97.58C309.525 98.3173 309.74 99.1807 309.74 100.17C309.74 101.159 309.525 102.018 309.096 102.746C308.676 103.474 308.074 104.034 307.29 104.426C306.515 104.809 305.61 105 304.574 105H301.396V95.27H304.574ZM304.574 103.698C305.712 103.698 306.585 103.39 307.192 102.774C307.798 102.158 308.102 101.29 308.102 100.17C308.102 99.0407 307.798 98.1587 307.192 97.524C306.585 96.8893 305.712 96.572 304.574 96.572H302.992V103.698H304.574ZM310.789 101.108C310.789 100.333 310.948 99.6473 311.265 99.05C311.592 98.4527 312.031 97.9907 312.581 97.664C313.141 97.328 313.757 97.16 314.429 97.16C315.036 97.16 315.563 97.2813 316.011 97.524C316.469 97.7573 316.833 98.0513 317.103 98.406V97.286H318.713V105H317.103V103.852C316.833 104.216 316.464 104.519 315.997 104.762C315.531 105.005 314.999 105.126 314.401 105.126C313.739 105.126 313.132 104.958 312.581 104.622C312.031 104.277 311.592 103.801 311.265 103.194C310.948 102.578 310.789 101.883 310.789 101.108ZM317.103 101.136C317.103 100.604 316.991 100.142 316.767 99.75C316.553 99.358 316.268 99.0593 315.913 98.854C315.559 98.6487 315.176 98.546 314.765 98.546C314.355 98.546 313.972 98.6487 313.617 98.854C313.263 99.05 312.973 99.344 312.749 99.736C312.535 100.119 312.427 100.576 312.427 101.108C312.427 101.64 312.535 102.107 312.749 102.508C312.973 102.909 313.263 103.217 313.617 103.432C313.981 103.637 314.364 103.74 314.765 103.74C315.176 103.74 315.559 103.637 315.913 103.432C316.268 103.227 316.553 102.928 316.767 102.536C316.991 102.135 317.103 101.668 317.103 101.136ZM320.278 101.108C320.278 100.333 320.436 99.6473 320.754 99.05C321.08 98.4527 321.519 97.9907 322.07 97.664C322.63 97.328 323.25 97.16 323.932 97.16C324.436 97.16 324.93 97.272 325.416 97.496C325.91 97.7107 326.302 98 326.592 98.364V94.64H328.202V105H326.592V103.838C326.33 104.211 325.966 104.519 325.5 104.762C325.042 105.005 324.515 105.126 323.918 105.126C323.246 105.126 322.63 104.958 322.07 104.622C321.519 104.277 321.08 103.801 320.754 103.194C320.436 102.578 320.278 101.883 320.278 101.108ZM326.592 101.136C326.592 100.604 326.48 100.142 326.256 99.75C326.041 99.358 325.756 99.0593 325.402 98.854C325.047 98.6487 324.664 98.546 324.254 98.546C323.843 98.546 323.46 98.6487 323.106 98.854C322.751 99.05 322.462 99.344 322.238 99.736C322.023 100.119 321.916 100.576 321.916 101.108C321.916 101.64 322.023 102.107 322.238 102.508C322.462 102.909 322.751 103.217 323.106 103.432C323.47 103.637 323.852 103.74 324.254 103.74C324.664 103.74 325.047 103.637 325.402 103.432C325.756 103.227 326.041 102.928 326.256 102.536C326.48 102.135 326.592 101.668 326.592 101.136ZM333.644 105.126C332.916 105.126 332.258 104.963 331.67 104.636C331.082 104.3 330.62 103.833 330.284 103.236C329.948 102.629 329.78 101.929 329.78 101.136C329.78 100.352 329.953 99.6567 330.298 99.05C330.643 98.4433 331.115 97.9767 331.712 97.65C332.309 97.3233 332.977 97.16 333.714 97.16C334.451 97.16 335.119 97.3233 335.716 97.65C336.313 97.9767 336.785 98.4433 337.13 99.05C337.475 99.6567 337.648 100.352 337.648 101.136C337.648 101.92 337.471 102.615 337.116 103.222C336.761 103.829 336.276 104.3 335.66 104.636C335.053 104.963 334.381 105.126 333.644 105.126ZM333.644 103.74C334.055 103.74 334.437 103.642 334.792 103.446C335.156 103.25 335.45 102.956 335.674 102.564C335.898 102.172 336.01 101.696 336.01 101.136C336.01 100.576 335.903 100.105 335.688 99.722C335.473 99.33 335.189 99.036 334.834 98.84C334.479 98.644 334.097 98.546 333.686 98.546C333.275 98.546 332.893 98.644 332.538 98.84C332.193 99.036 331.917 99.33 331.712 99.722C331.507 100.105 331.404 100.576 331.404 101.136C331.404 101.967 331.614 102.611 332.034 103.068C332.463 103.516 333 103.74 333.644 103.74ZM342.026 105.126C341.419 105.126 340.873 105.019 340.388 104.804C339.912 104.58 339.534 104.281 339.254 103.908C338.974 103.525 338.824 103.101 338.806 102.634H340.458C340.486 102.961 340.64 103.236 340.92 103.46C341.209 103.675 341.568 103.782 341.998 103.782C342.446 103.782 342.791 103.698 343.034 103.53C343.286 103.353 343.412 103.129 343.412 102.858C343.412 102.569 343.272 102.354 342.992 102.214C342.721 102.074 342.287 101.92 341.69 101.752C341.111 101.593 340.64 101.439 340.276 101.29C339.912 101.141 339.594 100.912 339.324 100.604C339.062 100.296 338.932 99.89 338.932 99.386C338.932 98.9753 339.053 98.602 339.296 98.266C339.538 97.9207 339.884 97.65 340.332 97.454C340.789 97.258 341.312 97.16 341.9 97.16C342.777 97.16 343.482 97.384 344.014 97.832C344.555 98.2707 344.844 98.8727 344.882 99.638H343.286C343.258 99.2927 343.118 99.0173 342.866 98.812C342.614 98.6067 342.273 98.504 341.844 98.504C341.424 98.504 341.102 98.5833 340.878 98.742C340.654 98.9007 340.542 99.1107 340.542 99.372C340.542 99.5773 340.616 99.75 340.766 99.89C340.915 100.03 341.097 100.142 341.312 100.226C341.526 100.301 341.844 100.399 342.264 100.52C342.824 100.669 343.281 100.823 343.636 100.982C344 101.131 344.312 101.355 344.574 101.654C344.835 101.953 344.97 102.349 344.98 102.844C344.98 103.283 344.858 103.675 344.616 104.02C344.373 104.365 344.028 104.636 343.58 104.832C343.141 105.028 342.623 105.126 342.026 105.126Z" fill="white"/>
<path d="M444.437 163.168C444.437 163.663 444.32 164.129 444.087 164.568C443.854 165.007 443.48 165.366 442.967 165.646C442.454 165.917 441.796 166.052 440.993 166.052H439.229V170H437.633V160.27H440.993C441.74 160.27 442.37 160.401 442.883 160.662C443.406 160.914 443.793 161.259 444.045 161.698C444.306 162.137 444.437 162.627 444.437 163.168ZM440.993 164.75C441.6 164.75 442.052 164.615 442.351 164.344C442.65 164.064 442.799 163.672 442.799 163.168C442.799 162.104 442.197 161.572 440.993 161.572H439.229V164.75H440.993ZM447.555 159.64V170H445.959V159.64H447.555ZM449.119 166.108C449.119 165.333 449.277 164.647 449.595 164.05C449.921 163.453 450.36 162.991 450.911 162.664C451.471 162.328 452.087 162.16 452.759 162.16C453.365 162.16 453.893 162.281 454.341 162.524C454.798 162.757 455.162 163.051 455.433 163.406V162.286H457.043V170H455.433V168.852C455.162 169.216 454.793 169.519 454.327 169.762C453.86 170.005 453.328 170.126 452.731 170.126C452.068 170.126 451.461 169.958 450.911 169.622C450.36 169.277 449.921 168.801 449.595 168.194C449.277 167.578 449.119 166.883 449.119 166.108ZM455.433 166.136C455.433 165.604 455.321 165.142 455.097 164.75C454.882 164.358 454.597 164.059 454.243 163.854C453.888 163.649 453.505 163.546 453.095 163.546C452.684 163.546 452.301 163.649 451.947 163.854C451.592 164.05 451.303 164.344 451.079 164.736C450.864 165.119 450.757 165.576 450.757 166.108C450.757 166.64 450.864 167.107 451.079 167.508C451.303 167.909 451.592 168.217 451.947 168.432C452.311 168.637 452.693 168.74 453.095 168.74C453.505 168.74 453.888 168.637 454.243 168.432C454.597 168.227 454.882 167.928 455.097 167.536C455.321 167.135 455.433 166.668 455.433 166.136ZM463.031 162.16C463.638 162.16 464.179 162.286 464.655 162.538C465.14 162.79 465.518 163.163 465.789 163.658C466.06 164.153 466.195 164.75 466.195 165.45V170H464.613V165.688C464.613 164.997 464.44 164.47 464.095 164.106C463.75 163.733 463.278 163.546 462.681 163.546C462.084 163.546 461.608 163.733 461.253 164.106C460.908 164.47 460.735 164.997 460.735 165.688V170H459.139V162.286H460.735V163.168C460.996 162.851 461.328 162.603 461.729 162.426C462.14 162.249 462.574 162.16 463.031 162.16ZM475.301 165.954C475.301 166.243 475.282 166.505 475.245 166.738H469.351C469.397 167.354 469.626 167.849 470.037 168.222C470.447 168.595 470.951 168.782 471.549 168.782C472.407 168.782 473.014 168.423 473.369 167.704H475.091C474.857 168.413 474.433 168.997 473.817 169.454C473.21 169.902 472.454 170.126 471.549 170.126C470.811 170.126 470.149 169.963 469.561 169.636C468.982 169.3 468.525 168.833 468.189 168.236C467.862 167.629 467.699 166.929 467.699 166.136C467.699 165.343 467.857 164.647 468.175 164.05C468.501 163.443 468.954 162.977 469.533 162.65C470.121 162.323 470.793 162.16 471.549 162.16C472.277 162.16 472.925 162.319 473.495 162.636C474.064 162.953 474.507 163.401 474.825 163.98C475.142 164.549 475.301 165.207 475.301 165.954ZM473.635 165.45C473.625 164.862 473.415 164.391 473.005 164.036C472.594 163.681 472.085 163.504 471.479 163.504C470.928 163.504 470.457 163.681 470.065 164.036C469.673 164.381 469.439 164.853 469.365 165.45H473.635ZM477.683 161.264C477.394 161.264 477.151 161.166 476.955 160.97C476.759 160.774 476.661 160.531 476.661 160.242C476.661 159.953 476.759 159.71 476.955 159.514C477.151 159.318 477.394 159.22 477.683 159.22C477.963 159.22 478.201 159.318 478.397 159.514C478.593 159.71 478.691 159.953 478.691 160.242C478.691 160.531 478.593 160.774 478.397 160.97C478.201 161.166 477.963 161.264 477.683 161.264ZM478.467 171.512C478.467 172.268 478.276 172.814 477.893 173.15C477.52 173.495 476.974 173.668 476.255 173.668H475.429V172.324H475.975C476.302 172.324 476.531 172.259 476.661 172.128C476.801 172.007 476.871 171.801 476.871 171.512V162.286H478.467V171.512ZM480.031 166.108C480.031 165.333 480.189 164.647 480.507 164.05C480.833 163.453 481.272 162.991 481.823 162.664C482.383 162.328 482.999 162.16 483.671 162.16C484.277 162.16 484.805 162.281 485.253 162.524C485.71 162.757 486.074 163.051 486.345 163.406V162.286H487.955V170H486.345V168.852C486.074 169.216 485.705 169.519 485.239 169.762C484.772 170.005 484.24 170.126 483.643 170.126C482.98 170.126 482.373 169.958 481.823 169.622C481.272 169.277 480.833 168.801 480.507 168.194C480.189 167.578 480.031 166.883 480.031 166.108ZM486.345 166.136C486.345 165.604 486.233 165.142 486.009 164.75C485.794 164.358 485.509 164.059 485.155 163.854C484.8 163.649 484.417 163.546 484.007 163.546C483.596 163.546 483.213 163.649 482.859 163.854C482.504 164.05 482.215 164.344 481.991 164.736C481.776 165.119 481.669 165.576 481.669 166.108C481.669 166.64 481.776 167.107 481.991 167.508C482.215 167.909 482.504 168.217 482.859 168.432C483.223 168.637 483.605 168.74 484.007 168.74C484.417 168.74 484.8 168.637 485.155 168.432C485.509 168.227 485.794 167.928 486.009 167.536C486.233 167.135 486.345 166.668 486.345 166.136ZM499.389 162.16C499.996 162.16 500.537 162.286 501.013 162.538C501.498 162.79 501.876 163.163 502.147 163.658C502.427 164.153 502.567 164.75 502.567 165.45V170H500.985V165.688C500.985 164.997 500.812 164.47 500.467 164.106C500.122 163.733 499.65 163.546 499.053 163.546C498.456 163.546 497.98 163.733 497.625 164.106C497.28 164.47 497.107 164.997 497.107 165.688V170H495.525V165.688C495.525 164.997 495.352 164.47 495.007 164.106C494.662 163.733 494.19 163.546 493.593 163.546C492.996 163.546 492.52 163.733 492.165 164.106C491.82 164.47 491.647 164.997 491.647 165.688V170H490.051V162.286H491.647V163.168C491.908 162.851 492.24 162.603 492.641 162.426C493.042 162.249 493.472 162.16 493.929 162.16C494.545 162.16 495.096 162.291 495.581 162.552C496.066 162.813 496.44 163.191 496.701 163.686C496.934 163.219 497.298 162.851 497.793 162.58C498.288 162.3 498.82 162.16 499.389 162.16ZM511.668 165.954C511.668 166.243 511.649 166.505 511.612 166.738H505.718C505.765 167.354 505.993 167.849 506.404 168.222C506.815 168.595 507.319 168.782 507.916 168.782C508.775 168.782 509.381 168.423 509.736 167.704H511.458C511.225 168.413 510.8 168.997 510.184 169.454C509.577 169.902 508.821 170.126 507.916 170.126C507.179 170.126 506.516 169.963 505.928 169.636C505.349 169.3 504.892 168.833 504.556 168.236C504.229 167.629 504.066 166.929 504.066 166.136C504.066 165.343 504.225 164.647 504.542 164.05C504.869 163.443 505.321 162.977 505.9 162.65C506.488 162.323 507.16 162.16 507.916 162.16C508.644 162.16 509.293 162.319 509.862 162.636C510.431 162.953 510.875 163.401 511.192 163.98C511.509 164.549 511.668 165.207 511.668 165.954ZM510.002 165.45C509.993 164.862 509.783 164.391 509.372 164.036C508.961 163.681 508.453 163.504 507.846 163.504C507.295 163.504 506.824 163.681 506.432 164.036C506.04 164.381 505.807 164.853 505.732 165.45H510.002ZM517.13 162.16C517.737 162.16 518.278 162.286 518.754 162.538C519.24 162.79 519.618 163.163 519.888 163.658C520.159 164.153 520.294 164.75 520.294 165.45V170H518.712V165.688C518.712 164.997 518.54 164.47 518.194 164.106C517.849 163.733 517.378 163.546 516.78 163.546C516.183 163.546 515.707 163.733 515.352 164.106C515.007 164.47 514.834 164.997 514.834 165.688V170H513.238V162.286H514.834V163.168C515.096 162.851 515.427 162.603 515.828 162.426C516.239 162.249 516.673 162.16 517.13 162.16ZM524.192 163.588V167.858C524.192 168.147 524.258 168.357 524.388 168.488C524.528 168.609 524.762 168.67 525.088 168.67H526.068V170H524.808C524.09 170 523.539 169.832 523.156 169.496C522.774 169.16 522.582 168.614 522.582 167.858V163.588H521.672V162.286H522.582V160.368H524.192V162.286H526.068V163.588H524.192ZM530.885 170.126C530.157 170.126 529.499 169.963 528.911 169.636C528.323 169.3 527.861 168.833 527.525 168.236C527.189 167.629 527.021 166.929 527.021 166.136C527.021 165.352 527.194 164.657 527.539 164.05C527.885 163.443 528.356 162.977 528.953 162.65C529.551 162.323 530.218 162.16 530.955 162.16C531.693 162.16 532.36 162.323 532.957 162.65C533.555 162.977 534.026 163.443 534.371 164.05C534.717 164.657 534.889 165.352 534.889 166.136C534.889 166.92 534.712 167.615 534.357 168.222C534.003 168.829 533.517 169.3 532.901 169.636C532.295 169.963 531.623 170.126 530.885 170.126ZM530.885 168.74C531.296 168.74 531.679 168.642 532.033 168.446C532.397 168.25 532.691 167.956 532.915 167.564C533.139 167.172 533.251 166.696 533.251 166.136C533.251 165.576 533.144 165.105 532.929 164.722C532.715 164.33 532.43 164.036 532.075 163.84C531.721 163.644 531.338 163.546 530.927 163.546C530.517 163.546 530.134 163.644 529.779 163.84C529.434 164.036 529.159 164.33 528.953 164.722C528.748 165.105 528.645 165.576 528.645 166.136C528.645 166.967 528.855 167.611 529.275 168.068C529.705 168.516 530.241 168.74 530.885 168.74Z" fill="white"/>
</svg>
