<svg width="1020" height="530" viewBox="0 0 1020 530" fill="none" xmlns="http://www.w3.org/2000/svg">
<path d="M119.48 59.1605H110.16V84.1205H105.36V59.1605H96V54.7305H119.48V59.1605Z" fill="white"/>
<path d="M133.719 63.1199V67.6798C132.919 67.4398 132.239 67.3198 131.359 67.3198C128.159 67.3198 125.959 69.4798 125.959 74.0798V84.1199H121.359V63.3198H125.959V70.2798L127.079 64.9198C127.879 64.0398 129.519 62.8398 131.879 62.8398C132.599 62.8398 133.079 62.8799 133.719 63.1199Z" fill="white"/>
<path d="M156.04 84.1196L153.56 76.3996L153.16 81.5996C151.64 83.4396 149.28 84.7196 145.92 84.7196C139.68 84.7196 135.4 79.9596 135.4 73.7196C135.4 67.4396 139.64 62.5996 145.92 62.5996C149.12 62.5996 151.52 63.8796 153.16 65.8396V63.3196H157.76V74.9196L160.92 84.1196H156.04ZM153.32 73.7196C153.32 69.6396 150.52 66.7596 146.76 66.7596C142.84 66.7596 140.16 69.6796 140.16 73.7196C140.16 77.6796 142.84 80.5196 146.76 80.5196C150.52 80.5196 153.32 77.7596 153.32 73.7196Z" fill="white"/>
<path d="M183.839 84.1205L181.359 76.4005L180.959 81.6005C179.439 83.4405 177.079 84.7205 173.719 84.7205C167.479 84.7205 163.199 79.9605 163.199 73.7205C163.199 67.4405 167.439 62.6005 173.719 62.6005C176.919 62.6005 179.319 63.8805 180.959 65.8405V54.7305H185.559V74.9705L188.719 84.1305H183.839V84.1205ZM181.119 73.7205C181.119 69.6405 178.319 66.7605 174.559 66.7605C170.639 66.7605 167.959 69.6805 167.959 73.7205C167.959 77.6805 170.639 80.5205 174.559 80.5205C178.319 80.5205 181.119 77.7605 181.119 73.7205Z" fill="white"/>
<path d="M196.999 54.7305V59.5705H192.039V54.7305H196.999ZM196.839 63.3205V84.1205H192.239V63.3205H196.839Z" fill="white"/>
<path d="M226.399 54.7305V59.5705H221.439V54.7305H226.399ZM226.239 63.3205V84.1205H221.639V63.3205H226.239Z" fill="white"/>
<path d="M252.999 73.6796C252.999 80.1596 248.119 84.7196 241.719 84.7196C235.279 84.7196 230.439 80.1596 230.439 73.6796C230.439 67.1596 235.279 62.5996 241.719 62.5996C248.119 62.5996 252.999 67.1596 252.999 73.6796ZM235.199 73.6796C235.199 77.8396 237.999 80.4796 241.719 80.4796C245.479 80.4796 248.199 77.8396 248.199 73.6796C248.199 69.4796 245.479 66.8396 241.719 66.8396C237.959 66.8396 235.199 69.4796 235.199 73.6796Z" fill="white"/>
<path d="M276.159 71.6796V84.1196H271.559V72.3196C271.559 68.5596 270.159 66.8396 267.079 66.8396C263.759 66.8396 261.799 69.0796 261.799 73.0396V84.1196H257.199V63.3196H261.799V69.3996L262.919 64.7996C263.999 63.5996 265.639 62.5996 268.399 62.5996C273.439 62.5996 276.159 65.8396 276.159 71.6796Z" fill="white"/>
<path d="M300.8 84.1196L298.32 76.3996L297.92 81.5996C296.4 83.4396 294.04 84.7196 290.68 84.7196C284.44 84.7196 280.16 79.9596 280.16 73.7196C280.16 67.4396 284.4 62.5996 290.68 62.5996C293.88 62.5996 296.28 63.8796 297.92 65.8396V63.3196H302.52V74.9196L305.68 84.1196H300.8ZM298.08 73.7196C298.08 69.6396 295.28 66.7596 291.52 66.7596C287.6 66.7596 284.92 69.6796 284.92 73.7196C284.92 77.6796 287.6 80.5196 291.52 80.5196C295.28 80.5196 298.08 77.7596 298.08 73.7196Z" fill="white"/>
<path d="M314 54.7305V84.1305H309.4V54.7305H314Z" fill="white"/>
<path d="M141.04 1.00999V30.41H136.36V6.12L128.16 30.12H122.8L114.68 6.16V30.4H110V1H117.4L125.56 24.76L133.72 1H141.04V1.00999Z" fill="white"/>
<path d="M166.56 30.3989L164.08 22.6789L163.68 27.8789C162.16 29.7189 159.8 30.9989 156.44 30.9989C150.2 30.9989 145.92 26.2389 145.92 19.9989C145.92 13.7189 150.16 8.87891 156.44 8.87891C159.64 8.87891 162.04 10.1589 163.68 12.1189V9.59891H168.28V21.1989L171.44 30.3989H166.56ZM163.84 19.9989C163.84 15.9189 161.04 13.0389 157.28 13.0389C153.36 13.0389 150.68 15.9589 150.68 19.9989C150.68 23.9589 153.36 26.7989 157.28 26.7989C161.04 26.7989 163.84 24.0389 163.84 19.9989Z" fill="white"/>
<path d="M187.321 9.39914V13.9591C186.521 13.7191 185.841 13.5992 184.961 13.5992C181.761 13.5992 179.561 15.7591 179.561 20.3591V30.3991H174.961V9.59915H179.561V16.5591L180.681 11.1991C181.481 10.3191 183.121 9.11914 185.481 9.11914C186.201 9.11914 186.681 9.15914 187.321 9.39914Z" fill="white"/>
<path d="M198.161 21.28L195.641 23.68V30.4H191.041V1H195.641V22.4L197.041 16.44L204.081 9.60001H210.241L201.361 18.16L210.601 30.4H204.961L198.161 21.28Z" fill="white"/>
<path d="M231.88 21.4389H216.44C216.92 25.3989 219.28 27.1189 222.44 27.1189C225.36 27.1189 227.24 25.9589 228.36 23.3989L231.68 26.3589C229.72 29.5189 226.16 30.9989 222.32 30.9989C215.76 30.9989 211.6 26.4789 211.6 20.0389C211.6 13.5989 216 8.87891 222.04 8.87891C228.16 8.87891 232 13.2389 232 19.5989C232 20.1989 231.96 20.7189 231.88 21.4389ZM216.48 18.0789H227.04C227.04 14.8789 225.16 12.7589 221.96 12.7589C219.24 12.7589 217.04 14.4789 216.48 18.0789Z" fill="white"/>
<path d="M243.08 13.5598V23.6798C243.08 26.2398 244.08 26.7598 246.16 26.7598C246.8 26.7598 248 26.5998 248.68 26.4398V30.4798C248 30.7598 246.16 30.9198 245.48 30.9198C240.96 30.9198 238.48 29.0398 238.48 24.2798V13.5598H234.76V9.59978H238.48V5.19977L243.08 1.75977V9.59978H249V13.5598H243.08Z" fill="white"/>
<path d="M258.081 1.00977V5.84978H253.121V1.00977H258.081ZM257.921 9.59978V30.3998H253.321V9.59978H257.921Z" fill="white"/>
<path d="M282.321 17.9589V30.3989H277.721V18.5989C277.721 14.8389 276.321 13.1189 273.241 13.1189C269.921 13.1189 267.961 15.3589 267.961 19.3189V30.3989H263.361V9.59891H267.961V15.6789L269.081 11.0789C270.161 9.8789 271.801 8.87891 274.561 8.87891C279.601 8.87891 282.321 12.1189 282.321 17.9589Z" fill="white"/>
<path d="M308.12 9.59891V29.8389C308.12 35.8389 303.8 39.5989 296.96 39.5989C291.64 39.5989 288.04 37.5189 286.44 33.6389L290.36 31.0789C291.36 34.1189 293.64 35.6789 297 35.6789C301 35.6789 303.52 33.3189 303.52 29.5589V22.9189L302.08 28.2389C301.2 28.9989 299.08 29.9589 296.64 29.9589C290.4 29.9589 286.32 25.3989 286.32 19.4789C286.32 13.4789 290.4 8.87891 296.64 8.87891C299.6 8.87891 301.92 10.0789 303.52 11.9189V9.59891H308.12ZM303.68 19.4789C303.68 15.6389 301.16 13.0389 297.44 13.0389C293.56 13.0389 291.08 15.7589 291.08 19.4789C291.08 23.1189 293.56 25.7589 297.44 25.7589C301.16 25.7589 303.68 23.1189 303.68 19.4789Z" fill="white"/>
<path d="M765.951 14.4V30.12H761.231V26C759.551 28.36 756.671 30.72 751.671 30.72C743.631 30.72 737.471 24.64 737.471 15.36C737.471 5.92 744.311 0 752.671 0C758.111 0 763.351 2.6 765.831 7.44L761.911 10.08C760.471 6.52 756.951 4.32 752.591 4.32C746.791 4.32 742.271 8.48 742.271 15.32C742.271 22.32 746.431 26.4 752.351 26.4C757.271 26.4 760.631 23.24 761.191 18.64H750.191L753.551 14.4H765.951Z" fill="white"/>
<path d="M783.831 9.11985V13.6798C783.031 13.4398 782.351 13.3198 781.471 13.3198C778.271 13.3198 776.071 15.4798 776.071 20.0798V30.1199H771.471V9.31985H776.071V16.2798L777.191 10.9198C777.991 10.0398 779.631 8.83984 781.991 8.83984C782.711 8.83984 783.191 8.87985 783.831 9.11985Z" fill="white"/>
<path d="M808.07 19.6796C808.07 26.1596 803.19 30.7196 796.79 30.7196C790.35 30.7196 785.51 26.1596 785.51 19.6796C785.51 13.1596 790.35 8.59961 796.79 8.59961C803.19 8.59961 808.07 13.1596 808.07 19.6796ZM790.27 19.6796C790.27 23.8396 793.07 26.4796 796.79 26.4796C800.55 26.4796 803.27 23.8396 803.27 19.6796C803.27 15.4796 800.55 12.8396 796.79 12.8396C793.03 12.8396 790.27 15.4796 790.27 19.6796Z" fill="white"/>
<path d="M842.629 9.32031L835.909 30.1204H830.709L826.229 16.0003L821.869 30.1204H816.629L809.949 9.32031H814.829L819.349 24.6804L824.109 9.48031H828.389L833.149 24.6804L837.829 9.32031H842.629Z" fill="white"/>
<path d="M852.871 13.2805V23.4005C852.871 25.9605 853.871 26.4805 855.951 26.4805C856.591 26.4805 857.791 26.3205 858.471 26.1605V30.2005C857.791 30.4805 855.951 30.6405 855.271 30.6405C850.751 30.6405 848.271 28.7605 848.271 24.0005V13.2805H844.551V9.32047H848.271V4.92046L852.871 1.48047V9.32047H858.791V13.2805H852.871Z" fill="white"/>
<path d="M882.271 17.6805V30.1205H877.671V18.3205C877.671 14.5605 876.271 12.8405 873.111 12.8405C869.871 12.8405 867.911 15.0805 867.911 19.0405V30.1205H863.311V0.730469H867.911V15.4105L869.031 10.8505C870.111 9.61046 871.671 8.61047 874.471 8.61047C879.551 8.60047 882.271 11.8405 882.271 17.6805Z" fill="white"/>
<path d="M747.149 46.7307V76.1307H742.469V51.8407L734.269 75.8407H728.909L720.789 51.8807V76.1207H716.109V46.7207H723.509L731.669 70.4807L739.829 46.7207H747.149V46.7307Z" fill="white"/>
<path d="M772.669 76.1196L770.189 68.3996L769.789 73.5996C768.269 75.4396 765.909 76.7196 762.549 76.7196C756.309 76.7196 752.029 71.9596 752.029 65.7196C752.029 59.4396 756.269 54.5996 762.549 54.5996C765.749 54.5996 768.149 55.8796 769.789 57.8396V55.3196H774.389V66.9196L777.549 76.1196H772.669ZM769.949 65.7196C769.949 61.6396 767.149 58.7596 763.389 58.7596C759.469 58.7596 756.789 61.6796 756.789 65.7196C756.789 69.6796 759.469 72.5196 763.389 72.5196C767.149 72.5196 769.949 69.7596 769.949 65.7196Z" fill="white"/>
<path d="M793.43 55.1198V59.6798C792.63 59.4398 791.95 59.3199 791.07 59.3199C787.87 59.3199 785.67 61.4798 785.67 66.0798V76.1198H781.07V55.3199H785.67V62.2798L786.79 56.9198C787.59 56.0398 789.23 54.8398 791.59 54.8398C792.31 54.8398 792.79 54.8798 793.43 55.1198Z" fill="white"/>
<path d="M804.27 67.0007L801.75 69.4007V76.1207H797.15V46.7207H801.75V68.1207L803.15 62.1607L810.19 55.3207H816.35L807.47 63.8807L816.71 76.1207H811.07L804.27 67.0007Z" fill="white"/>
<path d="M837.991 67.1596H822.551C823.031 71.1196 825.391 72.8396 828.551 72.8396C831.471 72.8396 833.351 71.6796 834.471 69.1196L837.791 72.0796C835.831 75.2396 832.271 76.7196 828.431 76.7196C821.871 76.7196 817.711 72.1996 817.711 65.7596C817.711 59.3196 822.111 54.5996 828.151 54.5996C834.271 54.5996 838.111 58.9596 838.111 65.3196C838.111 65.9196 838.071 66.4396 837.991 67.1596ZM822.591 63.7996H833.151C833.151 60.5996 831.271 58.4796 828.071 58.4796C825.351 58.4796 823.151 60.1996 822.591 63.7996Z" fill="white"/>
<path d="M849.189 59.2805V69.4005C849.189 71.9605 850.189 72.4805 852.269 72.4805C852.909 72.4805 854.109 72.3205 854.789 72.1605V76.2005C854.109 76.4805 852.269 76.6405 851.589 76.6405C847.069 76.6405 844.589 74.7605 844.589 70.0005V59.2805H840.869V55.3205H844.589V50.9205L849.189 47.4805V55.3205H855.109V59.2805H849.189Z" fill="white"/>
<path d="M864.19 46.7305V51.5705H859.23V46.7305H864.19ZM864.031 55.3205V76.1205H859.43V55.3205H864.031Z" fill="white"/>
<path d="M888.431 63.6796V76.1196H883.831V64.3196C883.831 60.5596 882.431 58.8396 879.351 58.8396C876.031 58.8396 874.071 61.0796 874.071 65.0396V76.1196H869.471V55.3196H874.071V61.3996L875.191 56.7996C876.271 55.5996 877.911 54.5996 880.671 54.5996C885.711 54.5996 888.431 57.8396 888.431 63.6796Z" fill="white"/>
<path d="M914.23 55.3196V75.5596C914.23 81.5596 909.91 85.3196 903.07 85.3196C897.75 85.3196 894.15 83.2396 892.55 79.3596L896.47 76.7996C897.47 79.8396 899.75 81.3996 903.11 81.3996C907.11 81.3996 909.63 79.0396 909.63 75.2796V68.6396L908.19 73.9596C907.31 74.7196 905.19 75.6796 902.75 75.6796C896.51 75.6796 892.43 71.1196 892.43 65.1996C892.43 59.1996 896.51 54.5996 902.75 54.5996C905.71 54.5996 908.03 55.7996 909.63 57.6396V55.3196H914.23ZM909.79 65.1996C909.79 61.3596 907.27 58.7596 903.55 58.7596C899.67 58.7596 897.19 61.4796 897.19 65.1996C897.19 68.8396 899.67 71.4796 903.55 71.4796C907.27 71.4796 909.79 68.8396 909.79 65.1996Z" fill="white"/>
<path d="M506.71 365.21C510.56 365.21 513.68 362.089 513.68 358.24C513.68 354.391 510.56 351.27 506.71 351.27C502.861 351.27 499.74 354.391 499.74 358.24C499.74 362.089 502.861 365.21 506.71 365.21Z" fill="#021010"/>
<path d="M512.38 1L505.42 459.13" stroke="white" stroke-width="2" stroke-miterlimit="10" stroke-linecap="round" stroke-linejoin="round"/>
<path d="M509.9 118.461C504.45 157.351 473.88 187.911 435 193.371C475.67 194.181 507.44 226.961 508.25 267.631L508.26 268.281C513.71 229.441 545.23 198.921 584.07 193.471L584.81 193.371H584.8C545.91 187.911 515.35 157.351 509.9 118.461Z" fill="white" stroke="#020202" stroke-width="2" stroke-miterlimit="10"/>
<path d="M506.89 185.631L499.59 205.141H495.95L488.76 185.631H492.24L497.82 201.141L503.45 185.631H506.89Z" fill="#021010"/>
<path d="M523.49 190.7L520.6 191.95C520.6 189.59 518.87 187.89 516.06 187.89C513.7 187.89 512.02 188.95 512.02 190.76C512.02 195.51 523.75 191.8 523.75 199.65C523.75 203.39 520.51 205.54 516.24 205.54C512.07 205.54 508.86 203.34 508.35 199.49L511.35 198.06C511.35 200.95 513.16 202.81 516.24 202.81C518.71 202.81 520.51 201.67 520.51 199.78C520.51 194.82 508.8 198.69 508.8 190.97C508.8 187.41 512.12 185.16 516.05 185.16C520.38 185.15 523.12 187.67 523.49 190.7Z" fill="#021010"/>
<path d="M219.439 68.4914L215.504 70.7702C214.958 68.3806 212.692 66.9722 210.186 66.9722C206.524 66.9722 204.018 69.4409 204.018 73.508C204.018 77.5276 206.443 79.9646 210.186 79.9646C212.725 79.9646 214.925 78.3663 215.552 76.2774L219.375 78.5245C218.026 81.6421 214.524 84 210.203 84C203.809 84 199.439 79.7431 199.439 73.5238C199.439 67.3362 203.954 63.0001 210.203 63.0001C214.508 62.9843 218.122 65.3422 219.439 68.4914Z" fill="white"/>
<path d="M969.68 187L968.11 189L917.59 253.55H711.09L660.57 189L659 187H969.68Z" fill="#224B40"/>
<path d="M1019.64 120L970.93 183.15H658.71L610 120H1019.64Z" fill="#406D61"/>
<path d="M734 394H895.04L884.99 459.88H744.06L734 394Z" fill="#021010"/>
<path d="M745 464H885L876.263 530H753.746L745 464Z" fill="#000909"/>
<path d="M724 326H906.03L896.14 390.76H733.88L724 326Z" fill="#081F1C"/>
<path d="M915.74 258L906 321.87H722.75L713 258H915.74Z" fill="#133129"/>
<path d="M0 120H409.64L360.93 183.15H48.71L0 120Z" fill="#406D61"/>
<path d="M158.115 155.28H150.819L149.475 159H147.171L153.219 142.368H155.739L161.763 159H159.459L158.115 155.28ZM157.491 153.504L154.467 145.056L151.443 153.504H157.491ZM163.583 152.376C163.583 151.032 163.855 149.856 164.399 148.848C164.943 147.824 165.687 147.032 166.631 146.472C167.591 145.912 168.663 145.632 169.847 145.632C170.983 145.632 171.975 145.888 172.823 146.4C173.687 146.896 174.319 147.512 174.719 148.248V145.848H176.927V165.24H174.719V156.576C174.303 157.312 173.663 157.936 172.799 158.448C171.935 158.96 170.927 159.216 169.775 159.216C168.623 159.216 167.575 158.928 166.631 158.352C165.687 157.776 164.943 156.968 164.399 155.928C163.855 154.888 163.583 153.704 163.583 152.376ZM174.719 152.4C174.719 151.408 174.519 150.544 174.119 149.808C173.719 149.072 173.175 148.512 172.487 148.128C171.815 147.728 171.071 147.528 170.255 147.528C169.439 147.528 168.695 147.72 168.023 148.104C167.351 148.488 166.815 149.048 166.415 149.784C166.015 150.52 165.815 151.384 165.815 152.376C165.815 153.384 166.015 154.264 166.415 155.016C166.815 155.752 167.351 156.32 168.023 156.72C168.695 157.104 169.439 157.296 170.255 157.296C171.071 157.296 171.815 157.104 172.487 156.72C173.175 156.32 173.719 155.752 174.119 155.016C174.519 154.264 174.719 153.392 174.719 152.4ZM192.282 145.848V159H190.098V157.056C189.682 157.728 189.098 158.256 188.346 158.64C187.61 159.008 186.794 159.192 185.898 159.192C184.874 159.192 183.954 158.984 183.138 158.568C182.322 158.136 181.674 157.496 181.194 156.648C180.73 155.8 180.498 154.768 180.498 153.552V145.848H182.658V153.264C182.658 154.56 182.986 155.56 183.642 156.264C184.298 156.952 185.194 157.296 186.33 157.296C187.498 157.296 188.418 156.936 189.09 156.216C189.762 155.496 190.098 154.448 190.098 153.072V145.848H192.282ZM197.097 143.712C196.681 143.712 196.329 143.568 196.041 143.28C195.753 142.992 195.609 142.64 195.609 142.224C195.609 141.808 195.753 141.456 196.041 141.168C196.329 140.88 196.681 140.736 197.097 140.736C197.497 140.736 197.833 140.88 198.105 141.168C198.393 141.456 198.537 141.808 198.537 142.224C198.537 142.64 198.393 142.992 198.105 143.28C197.833 143.568 197.497 143.712 197.097 143.712ZM198.153 145.848V159H195.969V145.848H198.153ZM206.531 159.216C205.523 159.216 204.619 159.048 203.819 158.712C203.019 158.36 202.387 157.88 201.923 157.272C201.459 156.648 201.203 155.936 201.155 155.136H203.411C203.475 155.792 203.779 156.328 204.323 156.744C204.883 157.16 205.611 157.368 206.507 157.368C207.339 157.368 207.995 157.184 208.475 156.816C208.955 156.448 209.195 155.984 209.195 155.424C209.195 154.848 208.939 154.424 208.427 154.152C207.915 153.864 207.123 153.584 206.051 153.312C205.075 153.056 204.275 152.8 203.651 152.544C203.043 152.272 202.515 151.88 202.067 151.368C201.635 150.84 201.419 150.152 201.419 149.304C201.419 148.632 201.619 148.016 202.019 147.456C202.419 146.896 202.987 146.456 203.723 146.136C204.459 145.8 205.299 145.632 206.243 145.632C207.699 145.632 208.875 146 209.771 146.736C210.667 147.472 211.147 148.48 211.211 149.76H209.027C208.979 149.072 208.699 148.52 208.187 148.104C207.691 147.688 207.019 147.48 206.171 147.48C205.387 147.48 204.763 147.648 204.299 147.984C203.835 148.32 203.603 148.76 203.603 149.304C203.603 149.736 203.739 150.096 204.011 150.384C204.299 150.656 204.651 150.88 205.067 151.056C205.499 151.216 206.091 151.4 206.843 151.608C207.787 151.864 208.555 152.12 209.147 152.376C209.739 152.616 210.243 152.984 210.659 153.48C211.091 153.976 211.315 154.624 211.331 155.424C211.331 156.144 211.131 156.792 210.731 157.368C210.331 157.944 209.763 158.4 209.027 158.736C208.307 159.056 207.475 159.216 206.531 159.216ZM215.542 143.712C215.126 143.712 214.774 143.568 214.486 143.28C214.198 142.992 214.054 142.64 214.054 142.224C214.054 141.808 214.198 141.456 214.486 141.168C214.774 140.88 215.126 140.736 215.542 140.736C215.942 140.736 216.278 140.88 216.55 141.168C216.838 141.456 216.982 141.808 216.982 142.224C216.982 142.64 216.838 142.992 216.55 143.28C216.278 143.568 215.942 143.712 215.542 143.712ZM216.598 145.848V159H214.414V145.848H216.598ZM225.913 157.368C226.873 157.368 227.673 157.144 228.313 156.696C228.953 156.248 229.393 155.608 229.633 154.776H231.985C231.665 156.024 231.033 157.048 230.089 157.848C229.161 158.632 227.993 159.08 226.585 159.192V160.392C227.529 160.376 228.281 160.576 228.841 160.992C229.401 161.408 229.681 162 229.681 162.768C229.681 163.52 229.409 164.12 228.865 164.568C228.321 165.016 227.617 165.24 226.753 165.24H223.993V163.824H226.321C226.849 163.824 227.233 163.744 227.473 163.584C227.729 163.424 227.857 163.152 227.857 162.768C227.857 162.4 227.729 162.136 227.473 161.976C227.233 161.816 226.849 161.736 226.321 161.736H225.121V159.168C224.017 159.056 223.041 158.712 222.193 158.136C221.345 157.544 220.681 156.76 220.201 155.784C219.737 154.792 219.505 153.664 219.505 152.4C219.505 151.04 219.777 149.856 220.321 148.848C220.865 147.824 221.617 147.032 222.577 146.472C223.553 145.912 224.665 145.632 225.913 145.632C227.529 145.632 228.857 146.024 229.897 146.808C230.953 147.592 231.649 148.68 231.985 150.072H229.633C229.409 149.272 228.969 148.64 228.313 148.176C227.673 147.712 226.873 147.48 225.913 147.48C224.665 147.48 223.657 147.912 222.889 148.776C222.121 149.624 221.737 150.832 221.737 152.4C221.737 153.984 222.121 155.208 222.889 156.072C223.657 156.936 224.665 157.368 225.913 157.368ZM234.083 152.376C234.083 151.032 234.355 149.856 234.899 148.848C235.443 147.824 236.187 147.032 237.131 146.472C238.091 145.912 239.155 145.632 240.323 145.632C241.475 145.632 242.475 145.88 243.323 146.376C244.171 146.872 244.803 147.496 245.219 148.248V145.848H247.427V159H245.219V156.552C244.787 157.32 244.139 157.96 243.275 158.472C242.427 158.968 241.435 159.216 240.299 159.216C239.131 159.216 238.075 158.928 237.131 158.352C236.187 157.776 235.443 156.968 234.899 155.928C234.355 154.888 234.083 153.704 234.083 152.376ZM245.219 152.4C245.219 151.408 245.019 150.544 244.619 149.808C244.219 149.072 243.675 148.512 242.987 148.128C242.315 147.728 241.571 147.528 240.755 147.528C239.939 147.528 239.195 147.72 238.523 148.104C237.851 148.488 237.315 149.048 236.915 149.784C236.515 150.52 236.315 151.384 236.315 152.376C236.315 153.384 236.515 154.264 236.915 155.016C237.315 155.752 237.851 156.32 238.523 156.72C239.195 157.104 239.939 157.296 240.755 157.296C241.571 157.296 242.315 157.104 242.987 156.72C243.675 156.32 244.219 155.752 244.619 155.016C245.019 154.264 245.219 153.392 245.219 152.4ZM237.659 144.432C237.771 143.616 238.035 142.992 238.451 142.56C238.883 142.128 239.419 141.912 240.059 141.912C240.363 141.912 240.619 141.968 240.827 142.08C241.051 142.176 241.315 142.32 241.619 142.512C241.843 142.672 242.043 142.8 242.219 142.896C242.395 142.976 242.587 143.016 242.795 143.016C243.067 143.016 243.299 142.928 243.491 142.752C243.683 142.576 243.803 142.32 243.851 141.984H245.099C245.003 142.784 244.739 143.4 244.307 143.832C243.875 144.264 243.339 144.48 242.699 144.48C242.395 144.48 242.123 144.432 241.883 144.336C241.659 144.224 241.403 144.064 241.115 143.856C240.859 143.696 240.651 143.576 240.491 143.496C240.347 143.416 240.171 143.376 239.963 143.376C239.691 143.376 239.459 143.464 239.267 143.64C239.091 143.816 238.979 144.08 238.931 144.432H237.659ZM256.854 159.216C255.622 159.216 254.502 158.936 253.494 158.376C252.502 157.816 251.718 157.024 251.142 156C250.582 154.96 250.302 153.76 250.302 152.4C250.302 151.056 250.59 149.872 251.166 148.848C251.758 147.808 252.558 147.016 253.566 146.472C254.574 145.912 255.702 145.632 256.95 145.632C258.198 145.632 259.326 145.912 260.334 146.472C261.342 147.016 262.134 147.8 262.71 148.824C263.302 149.848 263.598 151.04 263.598 152.4C263.598 153.76 263.294 154.96 262.686 156C262.094 157.024 261.286 157.816 260.262 158.376C259.238 158.936 258.102 159.216 256.854 159.216ZM256.854 157.296C257.638 157.296 258.374 157.112 259.062 156.744C259.75 156.376 260.302 155.824 260.718 155.088C261.15 154.352 261.366 153.456 261.366 152.4C261.366 151.344 261.158 150.448 260.742 149.712C260.326 148.976 259.782 148.432 259.11 148.08C258.438 147.712 257.71 147.528 256.926 147.528C256.126 147.528 255.39 147.712 254.718 148.08C254.062 148.432 253.534 148.976 253.134 149.712C252.734 150.448 252.534 151.344 252.534 152.4C252.534 153.472 252.726 154.376 253.11 155.112C253.51 155.848 254.038 156.4 254.694 156.768C255.35 157.12 256.07 157.296 256.854 157.296Z" fill="white"/>
<path d="M767.115 156.28H759.819L758.475 160H756.171L762.219 143.368H764.739L770.763 160H768.459L767.115 156.28ZM766.491 154.504L763.467 146.056L760.443 154.504H766.491ZM772.583 153.376C772.583 152.032 772.855 150.856 773.399 149.848C773.943 148.824 774.687 148.032 775.631 147.472C776.591 146.912 777.663 146.632 778.847 146.632C779.983 146.632 780.975 146.888 781.823 147.4C782.687 147.896 783.319 148.512 783.719 149.248V146.848H785.927V166.24H783.719V157.576C783.303 158.312 782.663 158.936 781.799 159.448C780.935 159.96 779.927 160.216 778.775 160.216C777.623 160.216 776.575 159.928 775.631 159.352C774.687 158.776 773.943 157.968 773.399 156.928C772.855 155.888 772.583 154.704 772.583 153.376ZM783.719 153.4C783.719 152.408 783.519 151.544 783.119 150.808C782.719 150.072 782.175 149.512 781.487 149.128C780.815 148.728 780.071 148.528 779.255 148.528C778.439 148.528 777.695 148.72 777.023 149.104C776.351 149.488 775.815 150.048 775.415 150.784C775.015 151.52 774.815 152.384 774.815 153.376C774.815 154.384 775.015 155.264 775.415 156.016C775.815 156.752 776.351 157.32 777.023 157.72C777.695 158.104 778.439 158.296 779.255 158.296C780.071 158.296 780.815 158.104 781.487 157.72C782.175 157.32 782.719 156.752 783.119 156.016C783.519 155.264 783.719 154.392 783.719 153.4ZM801.282 146.848V160H799.098V158.056C798.682 158.728 798.098 159.256 797.346 159.64C796.61 160.008 795.794 160.192 794.898 160.192C793.874 160.192 792.954 159.984 792.138 159.568C791.322 159.136 790.674 158.496 790.194 157.648C789.73 156.8 789.498 155.768 789.498 154.552V146.848H791.658V154.264C791.658 155.56 791.986 156.56 792.642 157.264C793.298 157.952 794.194 158.296 795.33 158.296C796.498 158.296 797.418 157.936 798.09 157.216C798.762 156.496 799.098 155.448 799.098 154.072V146.848H801.282ZM806.097 144.712C805.681 144.712 805.329 144.568 805.041 144.28C804.753 143.992 804.609 143.64 804.609 143.224C804.609 142.808 804.753 142.456 805.041 142.168C805.329 141.88 805.681 141.736 806.097 141.736C806.497 141.736 806.833 141.88 807.105 142.168C807.393 142.456 807.537 142.808 807.537 143.224C807.537 143.64 807.393 143.992 807.105 144.28C806.833 144.568 806.497 144.712 806.097 144.712ZM807.153 146.848V160H804.969V146.848H807.153ZM815.531 160.216C814.523 160.216 813.619 160.048 812.819 159.712C812.019 159.36 811.387 158.88 810.923 158.272C810.459 157.648 810.203 156.936 810.155 156.136H812.411C812.475 156.792 812.779 157.328 813.323 157.744C813.883 158.16 814.611 158.368 815.507 158.368C816.339 158.368 816.995 158.184 817.475 157.816C817.955 157.448 818.195 156.984 818.195 156.424C818.195 155.848 817.939 155.424 817.427 155.152C816.915 154.864 816.123 154.584 815.051 154.312C814.075 154.056 813.275 153.8 812.651 153.544C812.043 153.272 811.515 152.88 811.067 152.368C810.635 151.84 810.419 151.152 810.419 150.304C810.419 149.632 810.619 149.016 811.019 148.456C811.419 147.896 811.987 147.456 812.723 147.136C813.459 146.8 814.299 146.632 815.243 146.632C816.699 146.632 817.875 147 818.771 147.736C819.667 148.472 820.147 149.48 820.211 150.76H818.027C817.979 150.072 817.699 149.52 817.187 149.104C816.691 148.688 816.019 148.48 815.171 148.48C814.387 148.48 813.763 148.648 813.299 148.984C812.835 149.32 812.603 149.76 812.603 150.304C812.603 150.736 812.739 151.096 813.011 151.384C813.299 151.656 813.651 151.88 814.067 152.056C814.499 152.216 815.091 152.4 815.843 152.608C816.787 152.864 817.555 153.12 818.147 153.376C818.739 153.616 819.243 153.984 819.659 154.48C820.091 154.976 820.315 155.624 820.331 156.424C820.331 157.144 820.131 157.792 819.731 158.368C819.331 158.944 818.763 159.4 818.027 159.736C817.307 160.056 816.475 160.216 815.531 160.216ZM824.542 144.712C824.126 144.712 823.774 144.568 823.486 144.28C823.198 143.992 823.054 143.64 823.054 143.224C823.054 142.808 823.198 142.456 823.486 142.168C823.774 141.88 824.126 141.736 824.542 141.736C824.942 141.736 825.278 141.88 825.55 142.168C825.838 142.456 825.982 142.808 825.982 143.224C825.982 143.64 825.838 143.992 825.55 144.28C825.278 144.568 824.942 144.712 824.542 144.712ZM825.598 146.848V160H823.414V146.848H825.598ZM834.913 158.368C835.873 158.368 836.673 158.144 837.313 157.696C837.953 157.248 838.393 156.608 838.633 155.776H840.985C840.665 157.024 840.033 158.048 839.089 158.848C838.161 159.632 836.993 160.08 835.585 160.192V161.392C836.529 161.376 837.281 161.576 837.841 161.992C838.401 162.408 838.681 163 838.681 163.768C838.681 164.52 838.409 165.12 837.865 165.568C837.321 166.016 836.617 166.24 835.753 166.24H832.993V164.824H835.321C835.849 164.824 836.233 164.744 836.473 164.584C836.729 164.424 836.857 164.152 836.857 163.768C836.857 163.4 836.729 163.136 836.473 162.976C836.233 162.816 835.849 162.736 835.321 162.736H834.121V160.168C833.017 160.056 832.041 159.712 831.193 159.136C830.345 158.544 829.681 157.76 829.201 156.784C828.737 155.792 828.505 154.664 828.505 153.4C828.505 152.04 828.777 150.856 829.321 149.848C829.865 148.824 830.617 148.032 831.577 147.472C832.553 146.912 833.665 146.632 834.913 146.632C836.529 146.632 837.857 147.024 838.897 147.808C839.953 148.592 840.649 149.68 840.985 151.072H838.633C838.409 150.272 837.969 149.64 837.313 149.176C836.673 148.712 835.873 148.48 834.913 148.48C833.665 148.48 832.657 148.912 831.889 149.776C831.121 150.624 830.737 151.832 830.737 153.4C830.737 154.984 831.121 156.208 831.889 157.072C832.657 157.936 833.665 158.368 834.913 158.368ZM843.083 153.376C843.083 152.032 843.355 150.856 843.899 149.848C844.443 148.824 845.187 148.032 846.131 147.472C847.091 146.912 848.155 146.632 849.323 146.632C850.475 146.632 851.475 146.88 852.323 147.376C853.171 147.872 853.803 148.496 854.219 149.248V146.848H856.427V160H854.219V157.552C853.787 158.32 853.139 158.96 852.275 159.472C851.427 159.968 850.435 160.216 849.299 160.216C848.131 160.216 847.075 159.928 846.131 159.352C845.187 158.776 844.443 157.968 843.899 156.928C843.355 155.888 843.083 154.704 843.083 153.376ZM854.219 153.4C854.219 152.408 854.019 151.544 853.619 150.808C853.219 150.072 852.675 149.512 851.987 149.128C851.315 148.728 850.571 148.528 849.755 148.528C848.939 148.528 848.195 148.72 847.523 149.104C846.851 149.488 846.315 150.048 845.915 150.784C845.515 151.52 845.315 152.384 845.315 153.376C845.315 154.384 845.515 155.264 845.915 156.016C846.315 156.752 846.851 157.32 847.523 157.72C848.195 158.104 848.939 158.296 849.755 158.296C850.571 158.296 851.315 158.104 851.987 157.72C852.675 157.32 853.219 156.752 853.619 156.016C854.019 155.264 854.219 154.392 854.219 153.4ZM846.659 145.432C846.771 144.616 847.035 143.992 847.451 143.56C847.883 143.128 848.419 142.912 849.059 142.912C849.363 142.912 849.619 142.968 849.827 143.08C850.051 143.176 850.315 143.32 850.619 143.512C850.843 143.672 851.043 143.8 851.219 143.896C851.395 143.976 851.587 144.016 851.795 144.016C852.067 144.016 852.299 143.928 852.491 143.752C852.683 143.576 852.803 143.32 852.851 142.984H854.099C854.003 143.784 853.739 144.4 853.307 144.832C852.875 145.264 852.339 145.48 851.699 145.48C851.395 145.48 851.123 145.432 850.883 145.336C850.659 145.224 850.403 145.064 850.115 144.856C849.859 144.696 849.651 144.576 849.491 144.496C849.347 144.416 849.171 144.376 848.963 144.376C848.691 144.376 848.459 144.464 848.267 144.64C848.091 144.816 847.979 145.08 847.931 145.432H846.659ZM865.854 160.216C864.622 160.216 863.502 159.936 862.494 159.376C861.502 158.816 860.718 158.024 860.142 157C859.582 155.96 859.302 154.76 859.302 153.4C859.302 152.056 859.59 150.872 860.166 149.848C860.758 148.808 861.558 148.016 862.566 147.472C863.574 146.912 864.702 146.632 865.95 146.632C867.198 146.632 868.326 146.912 869.334 147.472C870.342 148.016 871.134 148.8 871.71 149.824C872.302 150.848 872.598 152.04 872.598 153.4C872.598 154.76 872.294 155.96 871.686 157C871.094 158.024 870.286 158.816 869.262 159.376C868.238 159.936 867.102 160.216 865.854 160.216ZM865.854 158.296C866.638 158.296 867.374 158.112 868.062 157.744C868.75 157.376 869.302 156.824 869.718 156.088C870.15 155.352 870.366 154.456 870.366 153.4C870.366 152.344 870.158 151.448 869.742 150.712C869.326 149.976 868.782 149.432 868.11 149.08C867.438 148.712 866.71 148.528 865.926 148.528C865.126 148.528 864.39 148.712 863.718 149.08C863.062 149.432 862.534 149.976 862.134 150.712C861.734 151.448 861.534 152.344 861.534 153.4C861.534 154.472 861.726 155.376 862.11 156.112C862.51 156.848 863.038 157.4 863.694 157.768C864.35 158.12 865.07 158.296 865.854 158.296Z" fill="white"/>
<path d="M359.68 187L358.11 189L307.59 253.55H101.09L50.57 189L49 187H359.68Z" fill="#224B40"/>
<path d="M140.212 219.624C140.212 217.992 140.58 216.528 141.316 215.232C142.052 213.92 143.052 212.896 144.316 212.16C145.596 211.424 147.012 211.056 148.564 211.056C150.388 211.056 151.98 211.496 153.34 212.376C154.7 213.256 155.692 214.504 156.316 216.12H153.7C153.236 215.112 152.564 214.336 151.684 213.792C150.82 213.248 149.78 212.976 148.564 212.976C147.396 212.976 146.348 213.248 145.42 213.792C144.492 214.336 143.764 215.112 143.236 216.12C142.708 217.112 142.444 218.28 142.444 219.624C142.444 220.952 142.708 222.12 143.236 223.128C143.764 224.12 144.492 224.888 145.42 225.432C146.348 225.976 147.396 226.248 148.564 226.248C149.78 226.248 150.82 225.984 151.684 225.456C152.564 224.912 153.236 224.136 153.7 223.128H156.316C155.692 224.728 154.7 225.968 153.34 226.848C151.98 227.712 150.388 228.144 148.564 228.144C147.012 228.144 145.596 227.784 144.316 227.064C143.052 226.328 142.052 225.312 141.316 224.016C140.58 222.72 140.212 221.256 140.212 219.624ZM165.303 228.216C164.071 228.216 162.951 227.936 161.943 227.376C160.951 226.816 160.167 226.024 159.591 225C159.031 223.96 158.751 222.76 158.751 221.4C158.751 220.056 159.039 218.872 159.615 217.848C160.207 216.808 161.007 216.016 162.015 215.472C163.023 214.912 164.151 214.632 165.399 214.632C166.647 214.632 167.775 214.912 168.783 215.472C169.791 216.016 170.583 216.8 171.159 217.824C171.751 218.848 172.047 220.04 172.047 221.4C172.047 222.76 171.743 223.96 171.135 225C170.543 226.024 169.735 226.816 168.711 227.376C167.687 227.936 166.551 228.216 165.303 228.216ZM165.303 226.296C166.087 226.296 166.823 226.112 167.511 225.744C168.199 225.376 168.751 224.824 169.167 224.088C169.599 223.352 169.815 222.456 169.815 221.4C169.815 220.344 169.607 219.448 169.191 218.712C168.775 217.976 168.231 217.432 167.559 217.08C166.887 216.712 166.159 216.528 165.375 216.528C164.575 216.528 163.839 216.712 163.167 217.08C162.511 217.432 161.983 217.976 161.583 218.712C161.183 219.448 160.983 220.344 160.983 221.4C160.983 222.472 161.175 223.376 161.559 224.112C161.959 224.848 162.487 225.4 163.143 225.768C163.799 226.12 164.519 226.296 165.303 226.296ZM181.326 214.608C182.926 214.608 184.222 215.096 185.214 216.072C186.206 217.032 186.702 218.424 186.702 220.248V228H184.542V220.56C184.542 219.248 184.214 218.248 183.558 217.56C182.902 216.856 182.006 216.504 180.87 216.504C179.718 216.504 178.798 216.864 178.11 217.584C177.438 218.304 177.102 219.352 177.102 220.728V228H174.918V214.848H177.102V216.72C177.534 216.048 178.118 215.528 178.854 215.16C179.606 214.792 180.43 214.608 181.326 214.608ZM195.166 225.984L199.246 214.848H201.574L196.414 228H193.87L188.71 214.848H191.062L195.166 225.984ZM215.723 220.92C215.723 221.336 215.699 221.776 215.651 222.24H205.139C205.219 223.536 205.659 224.552 206.459 225.288C207.275 226.008 208.259 226.368 209.411 226.368C210.355 226.368 211.139 226.152 211.763 225.72C212.403 225.272 212.851 224.68 213.107 223.944H215.459C215.107 225.208 214.403 226.24 213.347 227.04C212.291 227.824 210.979 228.216 209.411 228.216C208.163 228.216 207.043 227.936 206.051 227.376C205.075 226.816 204.307 226.024 203.747 225C203.187 223.96 202.907 222.76 202.907 221.4C202.907 220.04 203.179 218.848 203.723 217.824C204.267 216.8 205.027 216.016 206.003 215.472C206.995 214.912 208.131 214.632 209.411 214.632C210.659 214.632 211.763 214.904 212.723 215.448C213.683 215.992 214.419 216.744 214.931 217.704C215.459 218.648 215.723 219.72 215.723 220.92ZM213.467 220.464C213.467 219.632 213.283 218.92 212.915 218.328C212.547 217.72 212.043 217.264 211.403 216.96C210.779 216.64 210.083 216.48 209.315 216.48C208.211 216.48 207.267 216.832 206.483 217.536C205.715 218.24 205.275 219.216 205.163 220.464H213.467ZM220.79 216.984C221.174 216.232 221.718 215.648 222.422 215.232C223.142 214.816 224.014 214.608 225.038 214.608V216.864H224.462C222.014 216.864 220.79 218.192 220.79 220.848V228H218.606V214.848H220.79V216.984ZM232.215 228.216C231.207 228.216 230.303 228.048 229.503 227.712C228.703 227.36 228.071 226.88 227.607 226.272C227.143 225.648 226.887 224.936 226.839 224.136H229.095C229.159 224.792 229.463 225.328 230.007 225.744C230.567 226.16 231.295 226.368 232.191 226.368C233.023 226.368 233.679 226.184 234.159 225.816C234.639 225.448 234.879 224.984 234.879 224.424C234.879 223.848 234.623 223.424 234.111 223.152C233.599 222.864 232.807 222.584 231.735 222.312C230.759 222.056 229.959 221.8 229.335 221.544C228.727 221.272 228.199 220.88 227.751 220.368C227.319 219.84 227.103 219.152 227.103 218.304C227.103 217.632 227.303 217.016 227.703 216.456C228.103 215.896 228.671 215.456 229.407 215.136C230.143 214.8 230.983 214.632 231.927 214.632C233.383 214.632 234.559 215 235.455 215.736C236.351 216.472 236.831 217.48 236.895 218.76H234.711C234.663 218.072 234.383 217.52 233.871 217.104C233.375 216.688 232.703 216.48 231.855 216.48C231.071 216.48 230.447 216.648 229.983 216.984C229.519 217.32 229.287 217.76 229.287 218.304C229.287 218.736 229.423 219.096 229.695 219.384C229.983 219.656 230.335 219.88 230.751 220.056C231.183 220.216 231.775 220.4 232.527 220.608C233.471 220.864 234.239 221.12 234.831 221.376C235.423 221.616 235.927 221.984 236.343 222.48C236.775 222.976 236.999 223.624 237.015 224.424C237.015 225.144 236.815 225.792 236.415 226.368C236.015 226.944 235.447 227.4 234.711 227.736C233.991 228.056 233.159 228.216 232.215 228.216ZM239.282 221.376C239.282 220.032 239.554 218.856 240.098 217.848C240.642 216.824 241.386 216.032 242.33 215.472C243.29 214.912 244.354 214.632 245.522 214.632C246.674 214.632 247.674 214.88 248.522 215.376C249.37 215.872 250.002 216.496 250.418 217.248V214.848H252.626V228H250.418V225.552C249.986 226.32 249.338 226.96 248.474 227.472C247.626 227.968 246.634 228.216 245.498 228.216C244.33 228.216 243.274 227.928 242.33 227.352C241.386 226.776 240.642 225.968 240.098 224.928C239.554 223.888 239.282 222.704 239.282 221.376ZM250.418 221.4C250.418 220.408 250.218 219.544 249.818 218.808C249.418 218.072 248.874 217.512 248.186 217.128C247.514 216.728 246.77 216.528 245.954 216.528C245.138 216.528 244.394 216.72 243.722 217.104C243.05 217.488 242.514 218.048 242.114 218.784C241.714 219.52 241.514 220.384 241.514 221.376C241.514 222.384 241.714 223.264 242.114 224.016C242.514 224.752 243.05 225.32 243.722 225.72C244.394 226.104 245.138 226.296 245.954 226.296C246.77 226.296 247.514 226.104 248.186 225.72C248.874 225.32 249.418 224.752 249.818 224.016C250.218 223.264 250.418 222.392 250.418 221.4ZM242.858 213.432C242.97 212.616 243.234 211.992 243.65 211.56C244.082 211.128 244.618 210.912 245.258 210.912C245.562 210.912 245.818 210.968 246.026 211.08C246.25 211.176 246.514 211.32 246.818 211.512C247.042 211.672 247.242 211.8 247.418 211.896C247.594 211.976 247.786 212.016 247.994 212.016C248.266 212.016 248.498 211.928 248.69 211.752C248.882 211.576 249.002 211.32 249.05 210.984H250.298C250.202 211.784 249.938 212.4 249.506 212.832C249.074 213.264 248.538 213.48 247.898 213.48C247.594 213.48 247.322 213.432 247.082 213.336C246.858 213.224 246.602 213.064 246.314 212.856C246.058 212.696 245.85 212.576 245.69 212.496C245.546 212.416 245.37 212.376 245.162 212.376C244.89 212.376 244.658 212.464 244.466 212.64C244.29 212.816 244.178 213.08 244.13 213.432H242.858ZM262.053 228.216C260.821 228.216 259.701 227.936 258.693 227.376C257.701 226.816 256.917 226.024 256.341 225C255.781 223.96 255.501 222.76 255.501 221.4C255.501 220.056 255.789 218.872 256.365 217.848C256.957 216.808 257.757 216.016 258.765 215.472C259.773 214.912 260.901 214.632 262.149 214.632C263.397 214.632 264.525 214.912 265.533 215.472C266.541 216.016 267.333 216.8 267.909 217.824C268.501 218.848 268.797 220.04 268.797 221.4C268.797 222.76 268.493 223.96 267.885 225C267.293 226.024 266.485 226.816 265.461 227.376C264.437 227.936 263.301 228.216 262.053 228.216ZM262.053 226.296C262.837 226.296 263.573 226.112 264.261 225.744C264.949 225.376 265.501 224.824 265.917 224.088C266.349 223.352 266.565 222.456 266.565 221.4C266.565 220.344 266.357 219.448 265.941 218.712C265.525 217.976 264.981 217.432 264.309 217.08C263.637 216.712 262.909 216.528 262.125 216.528C261.325 216.528 260.589 216.712 259.917 217.08C259.261 217.432 258.733 217.976 258.333 218.712C257.933 219.448 257.733 220.344 257.733 221.4C257.733 222.472 257.925 223.376 258.309 224.112C258.709 224.848 259.237 225.4 259.893 225.768C260.549 226.12 261.269 226.296 262.053 226.296Z" fill="white"/>
<path d="M307 257L254.5 324H154.5L102 257H307Z" fill="#133129"/>
<path d="M170.75 299L166.766 292.16H164.126V299H161.942V282.272H167.342C168.606 282.272 169.67 282.488 170.534 282.92C171.414 283.352 172.07 283.936 172.502 284.672C172.934 285.408 173.15 286.248 173.15 287.192C173.15 288.344 172.814 289.36 172.142 290.24C171.486 291.12 170.494 291.704 169.166 291.992L173.366 299H170.75ZM164.126 290.408H167.342C168.526 290.408 169.414 290.12 170.006 289.544C170.598 288.952 170.894 288.168 170.894 287.192C170.894 286.2 170.598 285.432 170.006 284.888C169.43 284.344 168.542 284.072 167.342 284.072H164.126V290.408ZM188.543 291.92C188.543 292.336 188.519 292.776 188.471 293.24H177.959C178.039 294.536 178.479 295.552 179.279 296.288C180.095 297.008 181.079 297.368 182.231 297.368C183.175 297.368 183.959 297.152 184.583 296.72C185.223 296.272 185.671 295.68 185.927 294.944H188.279C187.927 296.208 187.223 297.24 186.167 298.04C185.111 298.824 183.799 299.216 182.231 299.216C180.983 299.216 179.863 298.936 178.871 298.376C177.895 297.816 177.127 297.024 176.567 296C176.007 294.96 175.727 293.76 175.727 292.4C175.727 291.04 175.999 289.848 176.543 288.824C177.087 287.8 177.847 287.016 178.823 286.472C179.815 285.912 180.951 285.632 182.231 285.632C183.479 285.632 184.583 285.904 185.543 286.448C186.503 286.992 187.239 287.744 187.751 288.704C188.279 289.648 188.543 290.72 188.543 291.92ZM186.287 291.464C186.287 290.632 186.103 289.92 185.735 289.328C185.367 288.72 184.863 288.264 184.223 287.96C183.599 287.64 182.903 287.48 182.135 287.48C181.031 287.48 180.087 287.832 179.303 288.536C178.535 289.24 178.095 290.216 177.983 291.464H186.287ZM190.61 292.4C190.61 291.04 190.882 289.856 191.426 288.848C191.97 287.824 192.722 287.032 193.682 286.472C194.658 285.912 195.77 285.632 197.018 285.632C198.634 285.632 199.962 286.024 201.002 286.808C202.058 287.592 202.754 288.68 203.09 290.072H200.738C200.514 289.272 200.074 288.64 199.418 288.176C198.778 287.712 197.978 287.48 197.018 287.48C195.77 287.48 194.762 287.912 193.994 288.776C193.226 289.624 192.842 290.832 192.842 292.4C192.842 293.984 193.226 295.208 193.994 296.072C194.762 296.936 195.77 297.368 197.018 297.368C197.978 297.368 198.778 297.144 199.418 296.696C200.058 296.248 200.498 295.608 200.738 294.776H203.09C202.738 296.12 202.034 297.2 200.978 298.016C199.922 298.816 198.602 299.216 197.018 299.216C195.77 299.216 194.658 298.936 193.682 298.376C192.722 297.816 191.97 297.024 191.426 296C190.882 294.976 190.61 293.776 190.61 292.4ZM218.004 291.92C218.004 292.336 217.98 292.776 217.932 293.24H207.42C207.5 294.536 207.94 295.552 208.74 296.288C209.556 297.008 210.54 297.368 211.692 297.368C212.636 297.368 213.42 297.152 214.044 296.72C214.684 296.272 215.132 295.68 215.388 294.944H217.74C217.388 296.208 216.684 297.24 215.628 298.04C214.572 298.824 213.26 299.216 211.692 299.216C210.444 299.216 209.324 298.936 208.332 298.376C207.356 297.816 206.588 297.024 206.028 296C205.468 294.96 205.188 293.76 205.188 292.4C205.188 291.04 205.46 289.848 206.004 288.824C206.548 287.8 207.308 287.016 208.284 286.472C209.276 285.912 210.412 285.632 211.692 285.632C212.94 285.632 214.044 285.904 215.004 286.448C215.964 286.992 216.7 287.744 217.212 288.704C217.74 289.648 218.004 290.72 218.004 291.92ZM215.748 291.464C215.748 290.632 215.564 289.92 215.196 289.328C214.828 288.72 214.324 288.264 213.684 287.96C213.06 287.64 212.364 287.48 211.596 287.48C210.492 287.48 209.548 287.832 208.764 288.536C207.996 289.24 207.556 290.216 207.444 291.464H215.748ZM222.015 283.712C221.599 283.712 221.247 283.568 220.959 283.28C220.671 282.992 220.527 282.64 220.527 282.224C220.527 281.808 220.671 281.456 220.959 281.168C221.247 280.88 221.599 280.736 222.015 280.736C222.415 280.736 222.751 280.88 223.023 281.168C223.311 281.456 223.455 281.808 223.455 282.224C223.455 282.64 223.311 282.992 223.023 283.28C222.751 283.568 222.415 283.712 222.015 283.712ZM223.071 285.848V299H220.887V285.848H223.071ZM229.457 287.648V295.4C229.457 296.04 229.593 296.496 229.865 296.768C230.137 297.024 230.609 297.152 231.281 297.152H232.889V299H230.921C229.705 299 228.793 298.72 228.185 298.16C227.577 297.6 227.273 296.68 227.273 295.4V287.648H225.569V285.848H227.273V282.536H229.457V285.848H232.889V287.648H229.457ZM234.72 292.376C234.72 291.032 234.992 289.856 235.536 288.848C236.08 287.824 236.824 287.032 237.768 286.472C238.728 285.912 239.792 285.632 240.96 285.632C242.112 285.632 243.112 285.88 243.96 286.376C244.808 286.872 245.44 287.496 245.856 288.248V285.848H248.064V299H245.856V296.552C245.424 297.32 244.776 297.96 243.912 298.472C243.064 298.968 242.072 299.216 240.936 299.216C239.768 299.216 238.712 298.928 237.768 298.352C236.824 297.776 236.08 296.968 235.536 295.928C234.992 294.888 234.72 293.704 234.72 292.376ZM245.856 292.4C245.856 291.408 245.656 290.544 245.256 289.808C244.856 289.072 244.312 288.512 243.624 288.128C242.952 287.728 242.208 287.528 241.392 287.528C240.576 287.528 239.832 287.72 239.16 288.104C238.488 288.488 237.952 289.048 237.552 289.784C237.152 290.52 236.952 291.384 236.952 292.376C236.952 293.384 237.152 294.264 237.552 295.016C237.952 295.752 238.488 296.32 239.16 296.72C239.832 297.104 240.576 297.296 241.392 297.296C242.208 297.296 242.952 297.104 243.624 296.72C244.312 296.32 244.856 295.752 245.256 295.016C245.656 294.264 245.856 293.392 245.856 292.4Z" fill="white"/>
<path d="M772.916 224.28H765.62L764.276 228H761.972L768.02 211.368H770.54L776.564 228H774.26L772.916 224.28ZM772.292 222.504L769.268 214.056L766.244 222.504H772.292ZM781.864 216.648V224.4C781.864 225.04 782 225.496 782.272 225.768C782.544 226.024 783.016 226.152 783.688 226.152H785.296V228H783.328C782.112 228 781.2 227.72 780.592 227.16C779.984 226.6 779.68 225.68 779.68 224.4V216.648H777.976V214.848H779.68V211.536H781.864V214.848H785.296V216.648H781.864ZM789.07 212.712C788.654 212.712 788.302 212.568 788.014 212.28C787.726 211.992 787.582 211.64 787.582 211.224C787.582 210.808 787.726 210.456 788.014 210.168C788.302 209.88 788.654 209.736 789.07 209.736C789.47 209.736 789.806 209.88 790.078 210.168C790.366 210.456 790.51 210.808 790.51 211.224C790.51 211.64 790.366 211.992 790.078 212.28C789.806 212.568 789.47 212.712 789.07 212.712ZM790.126 214.848V228H787.942V214.848H790.126ZM798.744 225.984L802.824 214.848H805.152L799.992 228H797.448L792.288 214.848H794.64L798.744 225.984ZM806.485 221.376C806.485 220.032 806.757 218.856 807.301 217.848C807.845 216.824 808.589 216.032 809.533 215.472C810.493 214.912 811.557 214.632 812.725 214.632C813.877 214.632 814.877 214.88 815.725 215.376C816.573 215.872 817.205 216.496 817.621 217.248V214.848H819.829V228H817.621V225.552C817.189 226.32 816.541 226.96 815.677 227.472C814.829 227.968 813.837 228.216 812.701 228.216C811.533 228.216 810.477 227.928 809.533 227.352C808.589 226.776 807.845 225.968 807.301 224.928C806.757 223.888 806.485 222.704 806.485 221.376ZM817.621 221.4C817.621 220.408 817.421 219.544 817.021 218.808C816.621 218.072 816.077 217.512 815.389 217.128C814.717 216.728 813.973 216.528 813.157 216.528C812.341 216.528 811.597 216.72 810.925 217.104C810.253 217.488 809.717 218.048 809.317 218.784C808.917 219.52 808.717 220.384 808.717 221.376C808.717 222.384 808.917 223.264 809.317 224.016C809.717 224.752 810.253 225.32 810.925 225.72C811.597 226.104 812.341 226.296 813.157 226.296C813.973 226.296 814.717 226.104 815.389 225.72C816.077 225.32 816.621 224.752 817.021 224.016C817.421 223.264 817.621 222.392 817.621 221.4ZM829.112 226.368C830.072 226.368 830.872 226.144 831.512 225.696C832.152 225.248 832.592 224.608 832.832 223.776H835.184C834.864 225.024 834.232 226.048 833.288 226.848C832.36 227.632 831.192 228.08 829.784 228.192V229.392C830.728 229.376 831.48 229.576 832.04 229.992C832.6 230.408 832.88 231 832.88 231.768C832.88 232.52 832.608 233.12 832.064 233.568C831.52 234.016 830.816 234.24 829.952 234.24H827.192V232.824H829.52C830.048 232.824 830.432 232.744 830.672 232.584C830.928 232.424 831.056 232.152 831.056 231.768C831.056 231.4 830.928 231.136 830.672 230.976C830.432 230.816 830.048 230.736 829.52 230.736H828.32V228.168C827.216 228.056 826.24 227.712 825.392 227.136C824.544 226.544 823.88 225.76 823.4 224.784C822.936 223.792 822.704 222.664 822.704 221.4C822.704 220.04 822.976 218.856 823.52 217.848C824.064 216.824 824.816 216.032 825.776 215.472C826.752 214.912 827.864 214.632 829.112 214.632C830.728 214.632 832.056 215.024 833.096 215.808C834.152 216.592 834.848 217.68 835.184 219.072H832.832C832.608 218.272 832.168 217.64 831.512 217.176C830.872 216.712 830.072 216.48 829.112 216.48C827.864 216.48 826.856 216.912 826.088 217.776C825.32 218.624 824.936 219.832 824.936 221.4C824.936 222.984 825.32 224.208 826.088 225.072C826.856 225.936 827.864 226.368 829.112 226.368ZM837.282 221.376C837.282 220.032 837.554 218.856 838.098 217.848C838.642 216.824 839.386 216.032 840.33 215.472C841.29 214.912 842.354 214.632 843.522 214.632C844.674 214.632 845.674 214.88 846.522 215.376C847.37 215.872 848.002 216.496 848.418 217.248V214.848H850.626V228H848.418V225.552C847.986 226.32 847.338 226.96 846.474 227.472C845.626 227.968 844.634 228.216 843.498 228.216C842.33 228.216 841.274 227.928 840.33 227.352C839.386 226.776 838.642 225.968 838.098 224.928C837.554 223.888 837.282 222.704 837.282 221.376ZM848.418 221.4C848.418 220.408 848.218 219.544 847.818 218.808C847.418 218.072 846.874 217.512 846.186 217.128C845.514 216.728 844.77 216.528 843.954 216.528C843.138 216.528 842.394 216.72 841.722 217.104C841.05 217.488 840.514 218.048 840.114 218.784C839.714 219.52 839.514 220.384 839.514 221.376C839.514 222.384 839.714 223.264 840.114 224.016C840.514 224.752 841.05 225.32 841.722 225.72C842.394 226.104 843.138 226.296 843.954 226.296C844.77 226.296 845.514 226.104 846.186 225.72C846.874 225.32 847.418 224.752 847.818 224.016C848.218 223.264 848.418 222.392 848.418 221.4ZM840.858 213.432C840.97 212.616 841.234 211.992 841.65 211.56C842.082 211.128 842.618 210.912 843.258 210.912C843.562 210.912 843.818 210.968 844.026 211.08C844.25 211.176 844.514 211.32 844.818 211.512C845.042 211.672 845.242 211.8 845.418 211.896C845.594 211.976 845.786 212.016 845.994 212.016C846.266 212.016 846.498 211.928 846.69 211.752C846.882 211.576 847.002 211.32 847.05 210.984H848.298C848.202 211.784 847.938 212.4 847.506 212.832C847.074 213.264 846.538 213.48 845.898 213.48C845.594 213.48 845.322 213.432 845.082 213.336C844.858 213.224 844.602 213.064 844.314 212.856C844.058 212.696 843.85 212.576 843.69 212.496C843.546 212.416 843.37 212.376 843.162 212.376C842.89 212.376 842.658 212.464 842.466 212.64C842.29 212.816 842.178 213.08 842.13 213.432H840.858ZM860.053 228.216C858.821 228.216 857.701 227.936 856.693 227.376C855.701 226.816 854.917 226.024 854.341 225C853.781 223.96 853.501 222.76 853.501 221.4C853.501 220.056 853.789 218.872 854.365 217.848C854.957 216.808 855.757 216.016 856.765 215.472C857.773 214.912 858.901 214.632 860.149 214.632C861.397 214.632 862.525 214.912 863.533 215.472C864.541 216.016 865.333 216.8 865.909 217.824C866.501 218.848 866.797 220.04 866.797 221.4C866.797 222.76 866.493 223.96 865.885 225C865.293 226.024 864.485 226.816 863.461 227.376C862.437 227.936 861.301 228.216 860.053 228.216ZM860.053 226.296C860.837 226.296 861.573 226.112 862.261 225.744C862.949 225.376 863.501 224.824 863.917 224.088C864.349 223.352 864.565 222.456 864.565 221.4C864.565 220.344 864.357 219.448 863.941 218.712C863.525 217.976 862.981 217.432 862.309 217.08C861.637 216.712 860.909 216.528 860.125 216.528C859.325 216.528 858.589 216.712 857.917 217.08C857.261 217.432 856.733 217.976 856.333 218.712C855.933 219.448 855.733 220.344 855.733 221.4C855.733 222.472 855.925 223.376 856.309 224.112C856.709 224.848 857.237 225.4 857.893 225.768C858.549 226.12 859.269 226.296 860.053 226.296Z" fill="white"/>
<path d="M768.851 298L764.867 291.16H762.227V298H760.043V281.272H765.443C766.707 281.272 767.771 281.488 768.635 281.92C769.515 282.352 770.171 282.936 770.603 283.672C771.035 284.408 771.251 285.248 771.251 286.192C771.251 287.344 770.915 288.36 770.243 289.24C769.587 290.12 768.595 290.704 767.267 290.992L771.467 298H768.851ZM762.227 289.408H765.443C766.627 289.408 767.515 289.12 768.107 288.544C768.699 287.952 768.995 287.168 768.995 286.192C768.995 285.2 768.699 284.432 768.107 283.888C767.531 283.344 766.643 283.072 765.443 283.072H762.227V289.408ZM786.645 290.92C786.645 291.336 786.621 291.776 786.573 292.24H776.061C776.141 293.536 776.581 294.552 777.381 295.288C778.197 296.008 779.181 296.368 780.333 296.368C781.277 296.368 782.061 296.152 782.685 295.72C783.325 295.272 783.773 294.68 784.029 293.944H786.381C786.029 295.208 785.325 296.24 784.269 297.04C783.213 297.824 781.901 298.216 780.333 298.216C779.085 298.216 777.965 297.936 776.973 297.376C775.997 296.816 775.229 296.024 774.669 295C774.109 293.96 773.829 292.76 773.829 291.4C773.829 290.04 774.101 288.848 774.645 287.824C775.189 286.8 775.949 286.016 776.925 285.472C777.917 284.912 779.053 284.632 780.333 284.632C781.581 284.632 782.685 284.904 783.645 285.448C784.605 285.992 785.341 286.744 785.853 287.704C786.381 288.648 786.645 289.72 786.645 290.92ZM784.389 290.464C784.389 289.632 784.205 288.92 783.837 288.328C783.469 287.72 782.965 287.264 782.325 286.96C781.701 286.64 781.005 286.48 780.237 286.48C779.133 286.48 778.189 286.832 777.405 287.536C776.637 288.24 776.197 289.216 776.085 290.464H784.389ZM792.192 286.648V294.4C792.192 295.04 792.328 295.496 792.6 295.768C792.872 296.024 793.344 296.152 794.016 296.152H795.624V298H793.656C792.44 298 791.528 297.72 790.92 297.16C790.312 296.6 790.008 295.68 790.008 294.4V286.648H788.304V284.848H790.008V281.536H792.192V284.848H795.624V286.648H792.192ZM810.27 290.92C810.27 291.336 810.246 291.776 810.198 292.24H799.686C799.766 293.536 800.206 294.552 801.006 295.288C801.822 296.008 802.806 296.368 803.958 296.368C804.902 296.368 805.686 296.152 806.31 295.72C806.95 295.272 807.398 294.68 807.654 293.944H810.006C809.654 295.208 808.95 296.24 807.894 297.04C806.838 297.824 805.526 298.216 803.958 298.216C802.71 298.216 801.59 297.936 800.598 297.376C799.622 296.816 798.854 296.024 798.294 295C797.734 293.96 797.454 292.76 797.454 291.4C797.454 290.04 797.726 288.848 798.27 287.824C798.814 286.8 799.574 286.016 800.55 285.472C801.542 284.912 802.678 284.632 803.958 284.632C805.206 284.632 806.31 284.904 807.27 285.448C808.23 285.992 808.966 286.744 809.478 287.704C810.006 288.648 810.27 289.72 810.27 290.92ZM808.014 290.464C808.014 289.632 807.83 288.92 807.462 288.328C807.094 287.72 806.59 287.264 805.95 286.96C805.326 286.64 804.63 286.48 803.862 286.48C802.758 286.48 801.814 286.832 801.03 287.536C800.262 288.24 799.822 289.216 799.71 290.464H808.014ZM819.561 284.608C821.161 284.608 822.457 285.096 823.449 286.072C824.441 287.032 824.937 288.424 824.937 290.248V298H822.777V290.56C822.777 289.248 822.449 288.248 821.793 287.56C821.137 286.856 820.241 286.504 819.105 286.504C817.953 286.504 817.033 286.864 816.345 287.584C815.673 288.304 815.337 289.352 815.337 290.728V298H813.153V284.848H815.337V286.72C815.769 286.048 816.353 285.528 817.089 285.16C817.841 284.792 818.665 284.608 819.561 284.608ZM834.096 296.368C835.056 296.368 835.856 296.144 836.496 295.696C837.136 295.248 837.576 294.608 837.816 293.776H840.168C839.848 295.024 839.216 296.048 838.272 296.848C837.344 297.632 836.176 298.08 834.768 298.192V299.392C835.712 299.376 836.464 299.576 837.024 299.992C837.584 300.408 837.864 301 837.864 301.768C837.864 302.52 837.592 303.12 837.048 303.568C836.504 304.016 835.8 304.24 834.936 304.24H832.176V302.824H834.504C835.032 302.824 835.416 302.744 835.656 302.584C835.912 302.424 836.04 302.152 836.04 301.768C836.04 301.4 835.912 301.136 835.656 300.976C835.416 300.816 835.032 300.736 834.504 300.736H833.304V298.168C832.2 298.056 831.224 297.712 830.376 297.136C829.528 296.544 828.864 295.76 828.384 294.784C827.92 293.792 827.688 292.664 827.688 291.4C827.688 290.04 827.96 288.856 828.504 287.848C829.048 286.824 829.8 286.032 830.76 285.472C831.736 284.912 832.848 284.632 834.096 284.632C835.712 284.632 837.04 285.024 838.08 285.808C839.136 286.592 839.832 287.68 840.168 289.072H837.816C837.592 288.272 837.152 287.64 836.496 287.176C835.856 286.712 835.056 286.48 834.096 286.48C832.848 286.48 831.84 286.912 831.072 287.776C830.304 288.624 829.92 289.832 829.92 291.4C829.92 292.984 830.304 294.208 831.072 295.072C831.84 295.936 832.848 296.368 834.096 296.368ZM842.266 291.376C842.266 290.032 842.538 288.856 843.082 287.848C843.626 286.824 844.37 286.032 845.314 285.472C846.274 284.912 847.338 284.632 848.506 284.632C849.658 284.632 850.658 284.88 851.506 285.376C852.354 285.872 852.986 286.496 853.402 287.248V284.848H855.61V298H853.402V295.552C852.97 296.32 852.322 296.96 851.458 297.472C850.61 297.968 849.618 298.216 848.482 298.216C847.314 298.216 846.258 297.928 845.314 297.352C844.37 296.776 843.626 295.968 843.082 294.928C842.538 293.888 842.266 292.704 842.266 291.376ZM853.402 291.4C853.402 290.408 853.202 289.544 852.802 288.808C852.402 288.072 851.858 287.512 851.17 287.128C850.498 286.728 849.754 286.528 848.938 286.528C848.122 286.528 847.378 286.72 846.706 287.104C846.034 287.488 845.498 288.048 845.098 288.784C844.698 289.52 844.498 290.384 844.498 291.376C844.498 292.384 844.698 293.264 845.098 294.016C845.498 294.752 846.034 295.32 846.706 295.72C847.378 296.104 848.122 296.296 848.938 296.296C849.754 296.296 850.498 296.104 851.17 295.72C851.858 295.32 852.402 294.752 852.802 294.016C853.202 293.264 853.402 292.392 853.402 291.4ZM845.842 283.432C845.954 282.616 846.218 281.992 846.634 281.56C847.066 281.128 847.602 280.912 848.242 280.912C848.546 280.912 848.802 280.968 849.01 281.08C849.234 281.176 849.498 281.32 849.802 281.512C850.026 281.672 850.226 281.8 850.402 281.896C850.578 281.976 850.77 282.016 850.978 282.016C851.25 282.016 851.482 281.928 851.674 281.752C851.866 281.576 851.986 281.32 852.034 280.984H853.282C853.186 281.784 852.922 282.4 852.49 282.832C852.058 283.264 851.522 283.48 850.882 283.48C850.578 283.48 850.306 283.432 850.066 283.336C849.842 283.224 849.586 283.064 849.298 282.856C849.042 282.696 848.834 282.576 848.674 282.496C848.53 282.416 848.354 282.376 848.146 282.376C847.874 282.376 847.642 282.464 847.45 282.64C847.274 282.816 847.162 283.08 847.114 283.432H845.842ZM865.037 298.216C863.805 298.216 862.685 297.936 861.677 297.376C860.685 296.816 859.901 296.024 859.325 295C858.765 293.96 858.485 292.76 858.485 291.4C858.485 290.056 858.773 288.872 859.349 287.848C859.941 286.808 860.741 286.016 861.749 285.472C862.757 284.912 863.885 284.632 865.133 284.632C866.381 284.632 867.509 284.912 868.517 285.472C869.525 286.016 870.317 286.8 870.893 287.824C871.485 288.848 871.781 290.04 871.781 291.4C871.781 292.76 871.477 293.96 870.869 295C870.277 296.024 869.469 296.816 868.445 297.376C867.421 297.936 866.285 298.216 865.037 298.216ZM865.037 296.296C865.821 296.296 866.557 296.112 867.245 295.744C867.933 295.376 868.485 294.824 868.901 294.088C869.333 293.352 869.549 292.456 869.549 291.4C869.549 290.344 869.341 289.448 868.925 288.712C868.509 287.976 867.965 287.432 867.293 287.08C866.621 286.712 865.893 286.528 865.109 286.528C864.309 286.528 863.573 286.712 862.901 287.08C862.245 287.432 861.717 287.976 861.317 288.712C860.917 289.448 860.717 290.344 860.717 291.4C860.717 292.472 860.909 293.376 861.293 294.112C861.693 294.848 862.221 295.4 862.877 295.768C863.533 296.12 864.253 296.296 865.037 296.296Z" fill="white"/>
<path d="M758.368 349.272V366H756.184V349.272H758.368ZM768.498 352.608C770.098 352.608 771.394 353.096 772.386 354.072C773.378 355.032 773.874 356.424 773.874 358.248V366H771.714V358.56C771.714 357.248 771.386 356.248 770.73 355.56C770.074 354.856 769.178 354.504 768.042 354.504C766.89 354.504 765.97 354.864 765.282 355.584C764.61 356.304 764.274 357.352 764.274 358.728V366H762.09V352.848H764.274V354.72C764.706 354.048 765.29 353.528 766.026 353.16C766.778 352.792 767.602 352.608 768.498 352.608ZM776.626 359.376C776.626 358.032 776.898 356.856 777.442 355.848C777.986 354.824 778.73 354.032 779.674 353.472C780.634 352.912 781.706 352.632 782.89 352.632C783.914 352.632 784.866 352.872 785.746 353.352C786.626 353.816 787.298 354.432 787.762 355.2V348.24H789.97V366H787.762V363.528C787.33 364.312 786.69 364.96 785.842 365.472C784.994 365.968 784.002 366.216 782.866 366.216C781.698 366.216 780.634 365.928 779.674 365.352C778.73 364.776 777.986 363.968 777.442 362.928C776.898 361.888 776.626 360.704 776.626 359.376ZM787.762 359.4C787.762 358.408 787.562 357.544 787.162 356.808C786.762 356.072 786.218 355.512 785.53 355.128C784.858 354.728 784.114 354.528 783.298 354.528C782.482 354.528 781.738 354.72 781.066 355.104C780.394 355.488 779.858 356.048 779.458 356.784C779.058 357.52 778.858 358.384 778.858 359.376C778.858 360.384 779.058 361.264 779.458 362.016C779.858 362.752 780.394 363.32 781.066 363.72C781.738 364.104 782.482 364.296 783.298 364.296C784.114 364.296 784.858 364.104 785.53 363.72C786.218 363.32 786.762 362.752 787.162 362.016C787.562 361.264 787.762 360.392 787.762 359.4ZM794.789 350.712C794.373 350.712 794.021 350.568 793.733 350.28C793.445 349.992 793.301 349.64 793.301 349.224C793.301 348.808 793.445 348.456 793.733 348.168C794.021 347.88 794.373 347.736 794.789 347.736C795.189 347.736 795.525 347.88 795.797 348.168C796.085 348.456 796.229 348.808 796.229 349.224C796.229 349.64 796.085 349.992 795.797 350.28C795.525 350.568 795.189 350.712 794.789 350.712ZM795.845 352.848V366H793.661V352.848H795.845ZM798.751 359.4C798.751 358.04 799.023 356.856 799.567 355.848C800.111 354.824 800.863 354.032 801.823 353.472C802.799 352.912 803.911 352.632 805.159 352.632C806.775 352.632 808.103 353.024 809.143 353.808C810.199 354.592 810.895 355.68 811.231 357.072H808.879C808.655 356.272 808.215 355.64 807.559 355.176C806.919 354.712 806.119 354.48 805.159 354.48C803.911 354.48 802.903 354.912 802.135 355.776C801.367 356.624 800.983 357.832 800.983 359.4C800.983 360.984 801.367 362.208 802.135 363.072C802.903 363.936 803.911 364.368 805.159 364.368C806.119 364.368 806.919 364.144 807.559 363.696C808.199 363.248 808.639 362.608 808.879 361.776H811.231C810.879 363.12 810.175 364.2 809.119 365.016C808.063 365.816 806.743 366.216 805.159 366.216C803.911 366.216 802.799 365.936 801.823 365.376C800.863 364.816 800.111 364.024 799.567 363C799.023 361.976 798.751 360.776 798.751 359.4ZM813.329 359.376C813.329 358.032 813.601 356.856 814.145 355.848C814.689 354.824 815.433 354.032 816.377 353.472C817.337 352.912 818.401 352.632 819.569 352.632C820.721 352.632 821.721 352.88 822.569 353.376C823.417 353.872 824.049 354.496 824.465 355.248V352.848H826.673V366H824.465V363.552C824.033 364.32 823.385 364.96 822.521 365.472C821.673 365.968 820.681 366.216 819.545 366.216C818.377 366.216 817.321 365.928 816.377 365.352C815.433 364.776 814.689 363.968 814.145 362.928C813.601 361.888 813.329 360.704 813.329 359.376ZM824.465 359.4C824.465 358.408 824.265 357.544 823.865 356.808C823.465 356.072 822.921 355.512 822.233 355.128C821.561 354.728 820.817 354.528 820.001 354.528C819.185 354.528 818.441 354.72 817.769 355.104C817.097 355.488 816.561 356.048 816.161 356.784C815.761 357.52 815.561 358.384 815.561 359.376C815.561 360.384 815.761 361.264 816.161 362.016C816.561 362.752 817.097 363.32 817.769 363.72C818.441 364.104 819.185 364.296 820.001 364.296C820.817 364.296 821.561 364.104 822.233 363.72C822.921 363.32 823.465 362.752 823.865 362.016C824.265 361.264 824.465 360.392 824.465 359.4ZM835.956 364.368C836.916 364.368 837.716 364.144 838.356 363.696C838.996 363.248 839.436 362.608 839.676 361.776H842.028C841.708 363.024 841.076 364.048 840.132 364.848C839.204 365.632 838.036 366.08 836.628 366.192V367.392C837.572 367.376 838.324 367.576 838.884 367.992C839.444 368.408 839.724 369 839.724 369.768C839.724 370.52 839.452 371.12 838.908 371.568C838.364 372.016 837.66 372.24 836.796 372.24H834.036V370.824H836.364C836.892 370.824 837.276 370.744 837.516 370.584C837.772 370.424 837.9 370.152 837.9 369.768C837.9 369.4 837.772 369.136 837.516 368.976C837.276 368.816 836.892 368.736 836.364 368.736H835.164V366.168C834.06 366.056 833.084 365.712 832.236 365.136C831.388 364.544 830.724 363.76 830.244 362.784C829.78 361.792 829.548 360.664 829.548 359.4C829.548 358.04 829.82 356.856 830.364 355.848C830.908 354.824 831.66 354.032 832.62 353.472C833.596 352.912 834.708 352.632 835.956 352.632C837.572 352.632 838.9 353.024 839.94 353.808C840.996 354.592 841.692 355.68 842.028 357.072H839.676C839.452 356.272 839.012 355.64 838.356 355.176C837.716 354.712 836.916 354.48 835.956 354.48C834.708 354.48 833.7 354.912 832.932 355.776C832.164 356.624 831.78 357.832 831.78 359.4C831.78 360.984 832.164 362.208 832.932 363.072C833.7 363.936 834.708 364.368 835.956 364.368ZM844.126 359.376C844.126 358.032 844.398 356.856 844.942 355.848C845.486 354.824 846.23 354.032 847.174 353.472C848.134 352.912 849.198 352.632 850.366 352.632C851.518 352.632 852.518 352.88 853.366 353.376C854.214 353.872 854.846 354.496 855.262 355.248V352.848H857.47V366H855.262V363.552C854.83 364.32 854.182 364.96 853.318 365.472C852.47 365.968 851.478 366.216 850.342 366.216C849.174 366.216 848.118 365.928 847.174 365.352C846.23 364.776 845.486 363.968 844.942 362.928C844.398 361.888 844.126 360.704 844.126 359.376ZM855.262 359.4C855.262 358.408 855.062 357.544 854.662 356.808C854.262 356.072 853.718 355.512 853.03 355.128C852.358 354.728 851.614 354.528 850.798 354.528C849.982 354.528 849.238 354.72 848.566 355.104C847.894 355.488 847.358 356.048 846.958 356.784C846.558 357.52 846.358 358.384 846.358 359.376C846.358 360.384 846.558 361.264 846.958 362.016C847.358 362.752 847.894 363.32 848.566 363.72C849.238 364.104 849.982 364.296 850.798 364.296C851.614 364.296 852.358 364.104 853.03 363.72C853.718 363.32 854.262 362.752 854.662 362.016C855.062 361.264 855.262 360.392 855.262 359.4ZM847.702 351.432C847.814 350.616 848.078 349.992 848.494 349.56C848.926 349.128 849.462 348.912 850.102 348.912C850.406 348.912 850.662 348.968 850.87 349.08C851.094 349.176 851.358 349.32 851.662 349.512C851.886 349.672 852.086 349.8 852.262 349.896C852.438 349.976 852.63 350.016 852.838 350.016C853.11 350.016 853.342 349.928 853.534 349.752C853.726 349.576 853.846 349.32 853.894 348.984H855.142C855.046 349.784 854.782 350.4 854.35 350.832C853.918 351.264 853.382 351.48 852.742 351.48C852.438 351.48 852.166 351.432 851.926 351.336C851.702 351.224 851.446 351.064 851.158 350.856C850.902 350.696 850.694 350.576 850.534 350.496C850.39 350.416 850.214 350.376 850.006 350.376C849.734 350.376 849.502 350.464 849.31 350.64C849.134 350.816 849.022 351.08 848.974 351.432H847.702ZM866.897 366.216C865.665 366.216 864.545 365.936 863.537 365.376C862.545 364.816 861.761 364.024 861.185 363C860.625 361.96 860.345 360.76 860.345 359.4C860.345 358.056 860.633 356.872 861.209 355.848C861.801 354.808 862.601 354.016 863.609 353.472C864.617 352.912 865.745 352.632 866.993 352.632C868.241 352.632 869.369 352.912 870.377 353.472C871.385 354.016 872.177 354.8 872.753 355.824C873.345 356.848 873.641 358.04 873.641 359.4C873.641 360.76 873.337 361.96 872.729 363C872.137 364.024 871.329 364.816 870.305 365.376C869.281 365.936 868.145 366.216 866.897 366.216ZM866.897 364.296C867.681 364.296 868.417 364.112 869.105 363.744C869.793 363.376 870.345 362.824 870.761 362.088C871.193 361.352 871.409 360.456 871.409 359.4C871.409 358.344 871.201 357.448 870.785 356.712C870.369 355.976 869.825 355.432 869.153 355.08C868.481 354.712 867.753 354.528 866.969 354.528C866.169 354.528 865.433 354.712 864.761 355.08C864.105 355.432 863.577 355.976 863.177 356.712C862.777 357.448 862.577 358.344 862.577 359.4C862.577 360.472 862.769 361.376 863.153 362.112C863.553 362.848 864.081 363.4 864.737 363.768C865.393 364.12 866.113 364.296 866.897 364.296Z" fill="white"/>
<path d="M771.851 435L767.867 428.16H765.227V435H763.043V418.272H768.443C769.707 418.272 770.771 418.488 771.635 418.92C772.515 419.352 773.171 419.936 773.603 420.672C774.035 421.408 774.251 422.248 774.251 423.192C774.251 424.344 773.915 425.36 773.243 426.24C772.587 427.12 771.595 427.704 770.267 427.992L774.467 435H771.851ZM765.227 426.408H768.443C769.627 426.408 770.515 426.12 771.107 425.544C771.699 424.952 771.995 424.168 771.995 423.192C771.995 422.2 771.699 421.432 771.107 420.888C770.531 420.344 769.643 420.072 768.443 420.072H765.227V426.408ZM789.645 427.92C789.645 428.336 789.621 428.776 789.573 429.24H779.061C779.141 430.536 779.581 431.552 780.381 432.288C781.197 433.008 782.181 433.368 783.333 433.368C784.277 433.368 785.061 433.152 785.685 432.72C786.325 432.272 786.773 431.68 787.029 430.944H789.381C789.029 432.208 788.325 433.24 787.269 434.04C786.213 434.824 784.901 435.216 783.333 435.216C782.085 435.216 780.965 434.936 779.973 434.376C778.997 433.816 778.229 433.024 777.669 432C777.109 430.96 776.829 429.76 776.829 428.4C776.829 427.04 777.101 425.848 777.645 424.824C778.189 423.8 778.949 423.016 779.925 422.472C780.917 421.912 782.053 421.632 783.333 421.632C784.581 421.632 785.685 421.904 786.645 422.448C787.605 422.992 788.341 423.744 788.853 424.704C789.381 425.648 789.645 426.72 789.645 427.92ZM787.389 427.464C787.389 426.632 787.205 425.92 786.837 425.328C786.469 424.72 785.965 424.264 785.325 423.96C784.701 423.64 784.005 423.48 783.237 423.48C782.133 423.48 781.189 423.832 780.405 424.536C779.637 425.24 779.197 426.216 779.085 427.464H787.389ZM797.424 432.984L801.504 421.848H803.832L798.672 435H796.128L790.968 421.848H793.32L797.424 432.984ZM817.981 427.92C817.981 428.336 817.957 428.776 817.909 429.24H807.397C807.477 430.536 807.917 431.552 808.717 432.288C809.533 433.008 810.517 433.368 811.669 433.368C812.613 433.368 813.397 433.152 814.021 432.72C814.661 432.272 815.109 431.68 815.365 430.944H817.717C817.365 432.208 816.661 433.24 815.605 434.04C814.549 434.824 813.237 435.216 811.669 435.216C810.421 435.216 809.301 434.936 808.309 434.376C807.333 433.816 806.565 433.024 806.005 432C805.445 430.96 805.165 429.76 805.165 428.4C805.165 427.04 805.437 425.848 805.981 424.824C806.525 423.8 807.285 423.016 808.261 422.472C809.253 421.912 810.389 421.632 811.669 421.632C812.917 421.632 814.021 421.904 814.981 422.448C815.941 422.992 816.677 423.744 817.189 424.704C817.717 425.648 817.981 426.72 817.981 427.92ZM815.725 427.464C815.725 426.632 815.541 425.92 815.173 425.328C814.805 424.72 814.301 424.264 813.661 423.96C813.037 423.64 812.341 423.48 811.573 423.48C810.469 423.48 809.525 423.832 808.741 424.536C807.973 425.24 807.533 426.216 807.421 427.464H815.725ZM827.272 421.608C828.872 421.608 830.168 422.096 831.16 423.072C832.152 424.032 832.648 425.424 832.648 427.248V435H830.488V427.56C830.488 426.248 830.16 425.248 829.504 424.56C828.848 423.856 827.952 423.504 826.816 423.504C825.664 423.504 824.744 423.864 824.056 424.584C823.384 425.304 823.048 426.352 823.048 427.728V435H820.864V421.848H823.048V423.72C823.48 423.048 824.064 422.528 824.8 422.16C825.552 421.792 826.376 421.608 827.272 421.608ZM835.399 428.376C835.399 427.032 835.671 425.856 836.215 424.848C836.759 423.824 837.503 423.032 838.447 422.472C839.407 421.912 840.479 421.632 841.663 421.632C842.687 421.632 843.639 421.872 844.519 422.352C845.399 422.816 846.071 423.432 846.535 424.2V417.24H848.743V435H846.535V432.528C846.103 433.312 845.463 433.96 844.615 434.472C843.767 434.968 842.775 435.216 841.639 435.216C840.471 435.216 839.407 434.928 838.447 434.352C837.503 433.776 836.759 432.968 836.215 431.928C835.671 430.888 835.399 429.704 835.399 428.376ZM846.535 428.4C846.535 427.408 846.335 426.544 845.935 425.808C845.535 425.072 844.991 424.512 844.303 424.128C843.631 423.728 842.887 423.528 842.071 423.528C841.255 423.528 840.511 423.72 839.839 424.104C839.167 424.488 838.631 425.048 838.231 425.784C837.831 426.52 837.631 427.384 837.631 428.376C837.631 429.384 837.831 430.264 838.231 431.016C838.631 431.752 839.167 432.32 839.839 432.72C840.511 433.104 841.255 433.296 842.071 433.296C842.887 433.296 843.631 433.104 844.303 432.72C844.991 432.32 845.535 431.752 845.935 431.016C846.335 430.264 846.535 429.392 846.535 428.4ZM851.618 428.376C851.618 427.032 851.89 425.856 852.434 424.848C852.978 423.824 853.722 423.032 854.666 422.472C855.626 421.912 856.69 421.632 857.858 421.632C859.01 421.632 860.01 421.88 860.858 422.376C861.706 422.872 862.338 423.496 862.754 424.248V421.848H864.962V435H862.754V432.552C862.322 433.32 861.674 433.96 860.81 434.472C859.962 434.968 858.97 435.216 857.834 435.216C856.666 435.216 855.61 434.928 854.666 434.352C853.722 433.776 852.978 432.968 852.434 431.928C851.89 430.888 851.618 429.704 851.618 428.376ZM862.754 428.4C862.754 427.408 862.554 426.544 862.154 425.808C861.754 425.072 861.21 424.512 860.522 424.128C859.85 423.728 859.106 423.528 858.29 423.528C857.474 423.528 856.73 423.72 856.058 424.104C855.386 424.488 854.85 425.048 854.45 425.784C854.05 426.52 853.85 427.384 853.85 428.376C853.85 429.384 854.05 430.264 854.45 431.016C854.85 431.752 855.386 432.32 856.058 432.72C856.73 433.104 857.474 433.296 858.29 433.296C859.106 433.296 859.85 433.104 860.522 432.72C861.21 432.32 861.754 431.752 862.154 431.016C862.554 430.264 862.754 429.392 862.754 428.4Z" fill="white"/>
<path d="M779.75 505L775.766 498.16H773.126V505H770.942V488.272H776.342C777.606 488.272 778.67 488.488 779.534 488.92C780.414 489.352 781.07 489.936 781.502 490.672C781.934 491.408 782.15 492.248 782.15 493.192C782.15 494.344 781.814 495.36 781.142 496.24C780.486 497.12 779.494 497.704 778.166 497.992L782.366 505H779.75ZM773.126 496.408H776.342C777.526 496.408 778.414 496.12 779.006 495.544C779.598 494.952 779.894 494.168 779.894 493.192C779.894 492.2 779.598 491.432 779.006 490.888C778.43 490.344 777.542 490.072 776.342 490.072H773.126V496.408ZM797.543 497.92C797.543 498.336 797.519 498.776 797.471 499.24H786.959C787.039 500.536 787.479 501.552 788.279 502.288C789.095 503.008 790.079 503.368 791.231 503.368C792.175 503.368 792.959 503.152 793.583 502.72C794.223 502.272 794.671 501.68 794.927 500.944H797.279C796.927 502.208 796.223 503.24 795.167 504.04C794.111 504.824 792.799 505.216 791.231 505.216C789.983 505.216 788.863 504.936 787.871 504.376C786.895 503.816 786.127 503.024 785.567 502C785.007 500.96 784.727 499.76 784.727 498.4C784.727 497.04 784.999 495.848 785.543 494.824C786.087 493.8 786.847 493.016 787.823 492.472C788.815 491.912 789.951 491.632 791.231 491.632C792.479 491.632 793.583 491.904 794.543 492.448C795.503 492.992 796.239 493.744 796.751 494.704C797.279 495.648 797.543 496.72 797.543 497.92ZM795.287 497.464C795.287 496.632 795.103 495.92 794.735 495.328C794.367 494.72 793.863 494.264 793.223 493.96C792.599 493.64 791.903 493.48 791.135 493.48C790.031 493.48 789.087 493.832 788.303 494.536C787.535 495.24 787.095 496.216 786.983 497.464H795.287ZM799.61 498.4C799.61 497.04 799.882 495.856 800.426 494.848C800.97 493.824 801.722 493.032 802.682 492.472C803.658 491.912 804.77 491.632 806.018 491.632C807.634 491.632 808.962 492.024 810.002 492.808C811.058 493.592 811.754 494.68 812.09 496.072H809.738C809.514 495.272 809.074 494.64 808.418 494.176C807.778 493.712 806.978 493.48 806.018 493.48C804.77 493.48 803.762 493.912 802.994 494.776C802.226 495.624 801.842 496.832 801.842 498.4C801.842 499.984 802.226 501.208 802.994 502.072C803.762 502.936 804.77 503.368 806.018 503.368C806.978 503.368 807.778 503.144 808.418 502.696C809.058 502.248 809.498 501.608 809.738 500.776H812.09C811.738 502.12 811.034 503.2 809.978 504.016C808.922 504.816 807.602 505.216 806.018 505.216C804.77 505.216 803.658 504.936 802.682 504.376C801.722 503.816 800.97 503.024 800.426 502C799.882 500.976 799.61 499.776 799.61 498.4ZM827.004 497.92C827.004 498.336 826.98 498.776 826.932 499.24H816.42C816.5 500.536 816.94 501.552 817.74 502.288C818.556 503.008 819.54 503.368 820.692 503.368C821.636 503.368 822.42 503.152 823.044 502.72C823.684 502.272 824.132 501.68 824.388 500.944H826.74C826.388 502.208 825.684 503.24 824.628 504.04C823.572 504.824 822.26 505.216 820.692 505.216C819.444 505.216 818.324 504.936 817.332 504.376C816.356 503.816 815.588 503.024 815.028 502C814.468 500.96 814.188 499.76 814.188 498.4C814.188 497.04 814.46 495.848 815.004 494.824C815.548 493.8 816.308 493.016 817.284 492.472C818.276 491.912 819.412 491.632 820.692 491.632C821.94 491.632 823.044 491.904 824.004 492.448C824.964 492.992 825.7 493.744 826.212 494.704C826.74 495.648 827.004 496.72 827.004 497.92ZM824.748 497.464C824.748 496.632 824.564 495.92 824.196 495.328C823.828 494.72 823.324 494.264 822.684 493.96C822.06 493.64 821.364 493.48 820.596 493.48C819.492 493.48 818.548 493.832 817.764 494.536C816.996 495.24 816.556 496.216 816.444 497.464H824.748ZM831.015 489.712C830.599 489.712 830.247 489.568 829.959 489.28C829.671 488.992 829.527 488.64 829.527 488.224C829.527 487.808 829.671 487.456 829.959 487.168C830.247 486.88 830.599 486.736 831.015 486.736C831.415 486.736 831.751 486.88 832.023 487.168C832.311 487.456 832.455 487.808 832.455 488.224C832.455 488.64 832.311 488.992 832.023 489.28C831.751 489.568 831.415 489.712 831.015 489.712ZM832.071 491.848V505H829.887V491.848H832.071ZM838.457 493.648V501.4C838.457 502.04 838.593 502.496 838.865 502.768C839.137 503.024 839.609 503.152 840.281 503.152H841.889V505H839.921C838.705 505 837.793 504.72 837.185 504.16C836.577 503.6 836.273 502.68 836.273 501.4V493.648H834.569V491.848H836.273V488.536H838.457V491.848H841.889V493.648H838.457ZM843.72 498.376C843.72 497.032 843.992 495.856 844.536 494.848C845.08 493.824 845.824 493.032 846.768 492.472C847.728 491.912 848.792 491.632 849.96 491.632C851.112 491.632 852.112 491.88 852.96 492.376C853.808 492.872 854.44 493.496 854.856 494.248V491.848H857.064V505H854.856V502.552C854.424 503.32 853.776 503.96 852.912 504.472C852.064 504.968 851.072 505.216 849.936 505.216C848.768 505.216 847.712 504.928 846.768 504.352C845.824 503.776 845.08 502.968 844.536 501.928C843.992 500.888 843.72 499.704 843.72 498.376ZM854.856 498.4C854.856 497.408 854.656 496.544 854.256 495.808C853.856 495.072 853.312 494.512 852.624 494.128C851.952 493.728 851.208 493.528 850.392 493.528C849.576 493.528 848.832 493.72 848.16 494.104C847.488 494.488 846.952 495.048 846.552 495.784C846.152 496.52 845.952 497.384 845.952 498.376C845.952 499.384 846.152 500.264 846.552 501.016C846.952 501.752 847.488 502.32 848.16 502.72C848.832 503.104 849.576 503.296 850.392 503.296C851.208 503.296 851.952 503.104 852.624 502.72C853.312 502.32 853.856 501.752 854.256 501.016C854.656 500.264 854.856 499.392 854.856 498.4Z" fill="white"/>
</svg>
