<svg width="1122" height="675" viewBox="0 0 1122 675" fill="none" xmlns="http://www.w3.org/2000/svg">
<path d="M175.48 145.16H166.16V170.12H161.36V145.16H152V140.73H175.48V145.16Z" fill="white"/>
<path d="M189.719 149.12V153.68C188.919 153.44 188.239 153.32 187.359 153.32C184.159 153.32 181.959 155.48 181.959 160.08V170.12H177.359V149.32H181.959V156.28L183.079 150.92C183.879 150.04 185.519 148.84 187.879 148.84C188.599 148.84 189.079 148.88 189.719 149.12Z" fill="white"/>
<path d="M212.04 170.12L209.56 162.4L209.16 167.6C207.64 169.44 205.28 170.72 201.92 170.72C195.68 170.72 191.4 165.96 191.4 159.72C191.4 153.44 195.64 148.6 201.92 148.6C205.12 148.6 207.52 149.88 209.16 151.84V149.32H213.76V160.92L216.92 170.12H212.04ZM209.32 159.72C209.32 155.64 206.52 152.76 202.76 152.76C198.84 152.76 196.16 155.68 196.16 159.72C196.16 163.68 198.84 166.52 202.76 166.52C206.52 166.52 209.32 163.76 209.32 159.72Z" fill="white"/>
<path d="M239.839 170.12L237.359 162.4L236.959 167.6C235.439 169.44 233.079 170.72 229.719 170.72C223.479 170.72 219.199 165.96 219.199 159.72C219.199 153.44 223.439 148.6 229.719 148.6C232.919 148.6 235.319 149.88 236.959 151.84V140.73H241.559V160.97L244.719 170.13H239.839V170.12ZM237.119 159.72C237.119 155.64 234.319 152.76 230.559 152.76C226.639 152.76 223.959 155.68 223.959 159.72C223.959 163.68 226.639 166.52 230.559 166.52C234.319 166.52 237.119 163.76 237.119 159.72Z" fill="white"/>
<path d="M252.999 140.73V145.57H248.039V140.73H252.999ZM252.839 149.32V170.12H248.239V149.32H252.839Z" fill="white"/>
<path d="M282.399 140.73V145.57H277.439V140.73H282.399ZM282.239 149.32V170.12H277.639V149.32H282.239Z" fill="white"/>
<path d="M308.999 159.68C308.999 166.16 304.119 170.72 297.719 170.72C291.279 170.72 286.439 166.16 286.439 159.68C286.439 153.16 291.279 148.6 297.719 148.6C304.119 148.6 308.999 153.16 308.999 159.68ZM291.199 159.68C291.199 163.84 293.999 166.48 297.719 166.48C301.479 166.48 304.199 163.84 304.199 159.68C304.199 155.48 301.479 152.84 297.719 152.84C293.959 152.84 291.199 155.48 291.199 159.68Z" fill="white"/>
<path d="M332.159 157.68V170.12H327.559V158.32C327.559 154.56 326.159 152.84 323.079 152.84C319.759 152.84 317.799 155.08 317.799 159.04V170.12H313.199V149.32H317.799V155.4L318.919 150.8C319.999 149.6 321.639 148.6 324.399 148.6C329.439 148.6 332.159 151.84 332.159 157.68Z" fill="white"/>
<path d="M356.8 170.12L354.32 162.4L353.92 167.6C352.4 169.44 350.04 170.72 346.68 170.72C340.44 170.72 336.16 165.96 336.16 159.72C336.16 153.44 340.4 148.6 346.68 148.6C349.88 148.6 352.28 149.88 353.92 151.84V149.32H358.52V160.92L361.68 170.12H356.8ZM354.08 159.72C354.08 155.64 351.28 152.76 347.52 152.76C343.6 152.76 340.92 155.68 340.92 159.72C340.92 163.68 343.6 166.52 347.52 166.52C351.28 166.52 354.08 163.76 354.08 159.72Z" fill="white"/>
<path d="M370 140.73V170.13H365.4V140.73H370Z" fill="white"/>
<path d="M197.04 87.01V116.41H192.36V92.12L184.16 116.12H178.8L170.68 92.16V116.4H166V87H173.4L181.56 110.76L189.72 87H197.04V87.01Z" fill="white"/>
<path d="M222.56 116.399L220.08 108.679L219.68 113.879C218.16 115.719 215.8 116.999 212.44 116.999C206.2 116.999 201.92 112.239 201.92 105.999C201.92 99.7189 206.16 94.8789 212.44 94.8789C215.64 94.8789 218.04 96.1589 219.68 98.1189V95.5989H224.28V107.199L227.44 116.399H222.56ZM219.84 105.999C219.84 101.919 217.04 99.0389 213.28 99.0389C209.36 99.0389 206.68 101.959 206.68 105.999C206.68 109.959 209.36 112.799 213.28 112.799C217.04 112.799 219.84 110.039 219.84 105.999Z" fill="white"/>
<path d="M243.321 95.3991V99.9591C242.521 99.7191 241.841 99.5992 240.961 99.5992C237.761 99.5992 235.561 101.759 235.561 106.359V116.399H230.961V95.5992H235.561V102.559L236.681 97.1991C237.481 96.3191 239.121 95.1191 241.481 95.1191C242.201 95.1191 242.681 95.1591 243.321 95.3991Z" fill="white"/>
<path d="M254.161 107.28L251.641 109.68V116.4H247.041V87H251.641V108.4L253.041 102.44L260.081 95.6H266.241L257.361 104.16L266.601 116.4H260.961L254.161 107.28Z" fill="white"/>
<path d="M287.88 107.439H272.44C272.92 111.399 275.28 113.119 278.44 113.119C281.36 113.119 283.24 111.959 284.36 109.399L287.68 112.359C285.72 115.519 282.16 116.999 278.32 116.999C271.76 116.999 267.6 112.479 267.6 106.039C267.6 99.5989 272 94.8789 278.04 94.8789C284.16 94.8789 288 99.2389 288 105.599C288 106.199 287.96 106.719 287.88 107.439ZM272.48 104.079H283.04C283.04 100.879 281.16 98.7589 277.96 98.7589C275.24 98.7589 273.04 100.479 272.48 104.079Z" fill="white"/>
<path d="M299.08 99.5598V109.68C299.08 112.24 300.08 112.76 302.16 112.76C302.8 112.76 304 112.6 304.68 112.44V116.48C304 116.76 302.16 116.92 301.48 116.92C296.96 116.92 294.48 115.04 294.48 110.28V99.5598H290.76V95.5998H294.48V91.1998L299.08 87.7598V95.5998H305V99.5598H299.08Z" fill="white"/>
<path d="M314.081 87.0098V91.8498H309.121V87.0098H314.081ZM313.921 95.5998V116.4H309.321V95.5998H313.921Z" fill="white"/>
<path d="M338.321 103.959V116.399H333.721V104.599C333.721 100.839 332.321 99.1189 329.241 99.1189C325.921 99.1189 323.961 101.359 323.961 105.319V116.399H319.361V95.5989H323.961V101.679L325.081 97.0789C326.161 95.8789 327.801 94.8789 330.561 94.8789C335.601 94.8789 338.321 98.1189 338.321 103.959Z" fill="white"/>
<path d="M364.12 95.5989V115.839C364.12 121.839 359.8 125.599 352.96 125.599C347.64 125.599 344.04 123.519 342.44 119.639L346.36 117.079C347.36 120.119 349.64 121.679 353 121.679C357 121.679 359.52 119.319 359.52 115.559V108.919L358.08 114.239C357.2 114.999 355.08 115.959 352.64 115.959C346.4 115.959 342.32 111.399 342.32 105.479C342.32 99.4789 346.4 94.8789 352.64 94.8789C355.6 94.8789 357.92 96.0789 359.52 97.9189V95.5989H364.12ZM359.68 105.479C359.68 101.639 357.16 99.0389 353.44 99.0389C349.56 99.0389 347.08 101.759 347.08 105.479C347.08 109.119 349.56 111.759 353.44 111.759C357.16 111.759 359.68 109.119 359.68 105.479Z" fill="white"/>
<path d="M821.951 100.4V116.12H817.231V112C815.551 114.36 812.671 116.72 807.671 116.72C799.631 116.72 793.471 110.64 793.471 101.36C793.471 91.92 800.311 86 808.671 86C814.111 86 819.351 88.6 821.831 93.44L817.911 96.08C816.471 92.52 812.951 90.32 808.591 90.32C802.791 90.32 798.271 94.48 798.271 101.32C798.271 108.32 802.431 112.4 808.351 112.4C813.271 112.4 816.631 109.24 817.191 104.64H806.191L809.551 100.4H821.951Z" fill="white"/>
<path d="M839.831 95.1199V99.6798C839.031 99.4398 838.351 99.3198 837.471 99.3198C834.271 99.3198 832.071 101.48 832.071 106.08V116.12H827.471V95.3198H832.071V102.28L833.191 96.9198C833.991 96.0398 835.631 94.8398 837.991 94.8398C838.711 94.8398 839.191 94.8799 839.831 95.1199Z" fill="white"/>
<path d="M864.07 105.68C864.07 112.16 859.19 116.72 852.79 116.72C846.35 116.72 841.51 112.16 841.51 105.68C841.51 99.1596 846.35 94.5996 852.79 94.5996C859.19 94.5996 864.07 99.1596 864.07 105.68ZM846.27 105.68C846.27 109.84 849.07 112.48 852.79 112.48C856.55 112.48 859.27 109.84 859.27 105.68C859.27 101.48 856.55 98.8396 852.79 98.8396C849.03 98.8396 846.27 101.48 846.27 105.68Z" fill="white"/>
<path d="M898.629 95.3203L891.909 116.12H886.709L882.229 102L877.869 116.12H872.629L865.949 95.3203H870.829L875.349 110.68L880.109 95.4803H884.389L889.149 110.68L893.829 95.3203H898.629Z" fill="white"/>
<path d="M908.871 99.2805V109.4C908.871 111.96 909.871 112.48 911.951 112.48C912.591 112.48 913.791 112.32 914.471 112.16V116.2C913.791 116.48 911.951 116.64 911.271 116.64C906.751 116.64 904.271 114.76 904.271 110V99.2805H900.551V95.3205H904.271V90.9205L908.871 87.4805V95.3205H914.791V99.2805H908.871Z" fill="white"/>
<path d="M938.271 103.68V116.12H933.671V104.32C933.671 100.56 932.271 98.8405 929.111 98.8405C925.871 98.8405 923.911 101.08 923.911 105.04V116.12H919.311V86.7305H923.911V101.41L925.031 96.8505C926.111 95.6105 927.671 94.6105 930.471 94.6105C935.551 94.6005 938.271 97.8405 938.271 103.68Z" fill="white"/>
<path d="M803.149 132.731V162.131H798.469V137.841L790.269 161.841H784.909L776.789 137.881V162.121H772.109V132.721H779.509L787.669 156.481L795.829 132.721H803.149V132.731Z" fill="white"/>
<path d="M828.669 162.12L826.189 154.4L825.789 159.6C824.269 161.44 821.909 162.72 818.549 162.72C812.309 162.72 808.029 157.96 808.029 151.72C808.029 145.44 812.269 140.6 818.549 140.6C821.749 140.6 824.149 141.88 825.789 143.84V141.32H830.389V152.92L833.549 162.12H828.669ZM825.949 151.72C825.949 147.64 823.149 144.76 819.389 144.76C815.469 144.76 812.789 147.68 812.789 151.72C812.789 155.68 815.469 158.52 819.389 158.52C823.149 158.52 825.949 155.76 825.949 151.72Z" fill="white"/>
<path d="M849.43 141.12V145.68C848.63 145.44 847.95 145.32 847.07 145.32C843.87 145.32 841.67 147.48 841.67 152.08V162.12H837.07V141.32H841.67V148.28L842.79 142.92C843.59 142.04 845.23 140.84 847.59 140.84C848.31 140.84 848.79 140.88 849.43 141.12Z" fill="white"/>
<path d="M860.27 153.001L857.75 155.401V162.121H853.15V132.721H857.75V154.121L859.15 148.161L866.19 141.321H872.35L863.47 149.881L872.71 162.121H867.07L860.27 153.001Z" fill="white"/>
<path d="M893.991 153.16H878.551C879.031 157.12 881.391 158.84 884.551 158.84C887.471 158.84 889.351 157.68 890.471 155.12L893.791 158.08C891.831 161.24 888.271 162.72 884.431 162.72C877.871 162.72 873.711 158.2 873.711 151.76C873.711 145.32 878.111 140.6 884.151 140.6C890.271 140.6 894.111 144.96 894.111 151.32C894.111 151.92 894.071 152.44 893.991 153.16ZM878.591 149.8H889.151C889.151 146.6 887.271 144.48 884.071 144.48C881.351 144.48 879.151 146.2 878.591 149.8Z" fill="white"/>
<path d="M905.189 145.28V155.4C905.189 157.96 906.189 158.48 908.269 158.48C908.909 158.48 910.109 158.32 910.789 158.16V162.2C910.109 162.48 908.269 162.64 907.589 162.64C903.069 162.64 900.589 160.76 900.589 156V145.28H896.869V141.32H900.589V136.92L905.189 133.48V141.32H911.109V145.28H905.189Z" fill="white"/>
<path d="M920.19 132.73V137.57H915.23V132.73H920.19ZM920.031 141.32V162.12H915.43V141.32H920.031Z" fill="white"/>
<path d="M944.431 149.68V162.12H939.831V150.32C939.831 146.56 938.431 144.84 935.351 144.84C932.031 144.84 930.071 147.08 930.071 151.04V162.12H925.471V141.32H930.071V147.4L931.191 142.8C932.271 141.6 933.911 140.6 936.671 140.6C941.711 140.6 944.431 143.84 944.431 149.68Z" fill="white"/>
<path d="M970.23 141.32V161.56C970.23 167.56 965.91 171.32 959.07 171.32C953.75 171.32 950.15 169.24 948.55 165.36L952.47 162.8C953.47 165.84 955.75 167.4 959.11 167.4C963.11 167.4 965.63 165.04 965.63 161.28V154.64L964.19 159.96C963.31 160.72 961.19 161.68 958.75 161.68C952.51 161.68 948.43 157.12 948.43 151.2C948.43 145.2 952.51 140.6 958.75 140.6C961.71 140.6 964.03 141.8 965.63 143.64V141.32H970.23ZM965.79 151.2C965.79 147.36 963.27 144.76 959.55 144.76C955.67 144.76 953.19 147.48 953.19 151.2C953.19 154.84 955.67 157.48 959.55 157.48C963.27 157.48 965.79 154.84 965.79 151.2Z" fill="white"/>
<path d="M562.71 451.21C566.56 451.21 569.68 448.089 569.68 444.24C569.68 440.391 566.56 437.27 562.71 437.27C558.861 437.27 555.74 440.391 555.74 444.24C555.74 448.089 558.861 451.21 562.71 451.21Z" fill="#021010"/>
<path d="M568.38 87L561.42 545.13" stroke="white" stroke-width="2" stroke-miterlimit="10" stroke-linecap="round" stroke-linejoin="round"/>
<path d="M565.9 204.461C560.45 243.351 529.88 273.911 491 279.371C531.67 280.181 563.44 312.961 564.25 353.631L564.26 354.281C569.71 315.441 601.23 284.921 640.07 279.471L640.81 279.371H640.8C601.91 273.911 571.35 243.351 565.9 204.461Z" fill="white" stroke="#020202" stroke-width="2" stroke-miterlimit="10"/>
<path d="M562.89 271.631L555.59 291.141H551.95L544.76 271.631H548.24L553.82 287.141L559.45 271.631H562.89Z" fill="#021010"/>
<path d="M579.49 276.7L576.6 277.95C576.6 275.59 574.87 273.89 572.06 273.89C569.7 273.89 568.02 274.95 568.02 276.76C568.02 281.51 579.75 277.8 579.75 285.65C579.75 289.39 576.51 291.54 572.24 291.54C568.07 291.54 564.86 289.34 564.35 285.49L567.35 284.06C567.35 286.95 569.16 288.81 572.24 288.81C574.71 288.81 576.51 287.67 576.51 285.78C576.51 280.82 564.8 284.69 564.8 276.97C564.8 273.41 568.12 271.16 572.05 271.16C576.38 271.15 579.12 273.67 579.49 276.7Z" fill="#021010"/>
<path d="M275.439 154.491L271.504 156.77C270.958 154.381 268.692 152.972 266.186 152.972C262.524 152.972 260.018 155.441 260.018 159.508C260.018 163.528 262.443 165.965 266.186 165.965C268.725 165.965 270.925 164.366 271.552 162.277L275.375 164.525C274.026 167.642 270.524 170 266.203 170C259.809 170 255.439 165.743 255.439 159.524C255.439 153.336 259.954 149 266.203 149C270.508 148.984 274.122 151.342 275.439 154.491Z" fill="white"/>
<path d="M1025.68 273L1024.11 275L973.59 339.55H767.09L716.57 275L715 273H1025.68Z" fill="#224B40"/>
<path d="M1075.64 206L1026.93 269.15H714.71L666 206H1075.64Z" fill="#406D61"/>
<path d="M790 480H951.04L940.99 545.88H800.06L790 480Z" fill="#021010"/>
<path d="M801 550H941L932.263 616H809.746L801 550Z" fill="#000909"/>
<path d="M780 412H962.03L952.14 476.76H789.88L780 412Z" fill="#081F1C"/>
<path d="M971.74 344L962 407.87H778.75L769 344H971.74Z" fill="#133129"/>
<path d="M56 206H465.64L416.93 269.15H104.71L56 206Z" fill="#406D61"/>
<path d="M214.115 241.28H206.819L205.475 245H203.171L209.219 228.368H211.739L217.763 245H215.459L214.115 241.28ZM213.491 239.504L210.467 231.056L207.443 239.504H213.491ZM219.583 238.376C219.583 237.032 219.855 235.856 220.399 234.848C220.943 233.824 221.687 233.032 222.631 232.472C223.591 231.912 224.663 231.632 225.847 231.632C226.983 231.632 227.975 231.888 228.823 232.4C229.687 232.896 230.319 233.512 230.719 234.248V231.848H232.927V251.24H230.719V242.576C230.303 243.312 229.663 243.936 228.799 244.448C227.935 244.96 226.927 245.216 225.775 245.216C224.623 245.216 223.575 244.928 222.631 244.352C221.687 243.776 220.943 242.968 220.399 241.928C219.855 240.888 219.583 239.704 219.583 238.376ZM230.719 238.4C230.719 237.408 230.519 236.544 230.119 235.808C229.719 235.072 229.175 234.512 228.487 234.128C227.815 233.728 227.071 233.528 226.255 233.528C225.439 233.528 224.695 233.72 224.023 234.104C223.351 234.488 222.815 235.048 222.415 235.784C222.015 236.52 221.815 237.384 221.815 238.376C221.815 239.384 222.015 240.264 222.415 241.016C222.815 241.752 223.351 242.32 224.023 242.72C224.695 243.104 225.439 243.296 226.255 243.296C227.071 243.296 227.815 243.104 228.487 242.72C229.175 242.32 229.719 241.752 230.119 241.016C230.519 240.264 230.719 239.392 230.719 238.4ZM248.282 231.848V245H246.098V243.056C245.682 243.728 245.098 244.256 244.346 244.64C243.61 245.008 242.794 245.192 241.898 245.192C240.874 245.192 239.954 244.984 239.138 244.568C238.322 244.136 237.674 243.496 237.194 242.648C236.73 241.8 236.498 240.768 236.498 239.552V231.848H238.658V239.264C238.658 240.56 238.986 241.56 239.642 242.264C240.298 242.952 241.194 243.296 242.33 243.296C243.498 243.296 244.418 242.936 245.09 242.216C245.762 241.496 246.098 240.448 246.098 239.072V231.848H248.282ZM253.097 229.712C252.681 229.712 252.329 229.568 252.041 229.28C251.753 228.992 251.609 228.64 251.609 228.224C251.609 227.808 251.753 227.456 252.041 227.168C252.329 226.88 252.681 226.736 253.097 226.736C253.497 226.736 253.833 226.88 254.105 227.168C254.393 227.456 254.537 227.808 254.537 228.224C254.537 228.64 254.393 228.992 254.105 229.28C253.833 229.568 253.497 229.712 253.097 229.712ZM254.153 231.848V245H251.969V231.848H254.153ZM262.531 245.216C261.523 245.216 260.619 245.048 259.819 244.712C259.019 244.36 258.387 243.88 257.923 243.272C257.459 242.648 257.203 241.936 257.155 241.136H259.411C259.475 241.792 259.779 242.328 260.323 242.744C260.883 243.16 261.611 243.368 262.507 243.368C263.339 243.368 263.995 243.184 264.475 242.816C264.955 242.448 265.195 241.984 265.195 241.424C265.195 240.848 264.939 240.424 264.427 240.152C263.915 239.864 263.123 239.584 262.051 239.312C261.075 239.056 260.275 238.8 259.651 238.544C259.043 238.272 258.515 237.88 258.067 237.368C257.635 236.84 257.419 236.152 257.419 235.304C257.419 234.632 257.619 234.016 258.019 233.456C258.419 232.896 258.987 232.456 259.723 232.136C260.459 231.8 261.299 231.632 262.243 231.632C263.699 231.632 264.875 232 265.771 232.736C266.667 233.472 267.147 234.48 267.211 235.76H265.027C264.979 235.072 264.699 234.52 264.187 234.104C263.691 233.688 263.019 233.48 262.171 233.48C261.387 233.48 260.763 233.648 260.299 233.984C259.835 234.32 259.603 234.76 259.603 235.304C259.603 235.736 259.739 236.096 260.011 236.384C260.299 236.656 260.651 236.88 261.067 237.056C261.499 237.216 262.091 237.4 262.843 237.608C263.787 237.864 264.555 238.12 265.147 238.376C265.739 238.616 266.243 238.984 266.659 239.48C267.091 239.976 267.315 240.624 267.331 241.424C267.331 242.144 267.131 242.792 266.731 243.368C266.331 243.944 265.763 244.4 265.027 244.736C264.307 245.056 263.475 245.216 262.531 245.216ZM271.542 229.712C271.126 229.712 270.774 229.568 270.486 229.28C270.198 228.992 270.054 228.64 270.054 228.224C270.054 227.808 270.198 227.456 270.486 227.168C270.774 226.88 271.126 226.736 271.542 226.736C271.942 226.736 272.278 226.88 272.55 227.168C272.838 227.456 272.982 227.808 272.982 228.224C272.982 228.64 272.838 228.992 272.55 229.28C272.278 229.568 271.942 229.712 271.542 229.712ZM272.598 231.848V245H270.414V231.848H272.598ZM281.913 243.368C282.873 243.368 283.673 243.144 284.313 242.696C284.953 242.248 285.393 241.608 285.633 240.776H287.985C287.665 242.024 287.033 243.048 286.089 243.848C285.161 244.632 283.993 245.08 282.585 245.192V246.392C283.529 246.376 284.281 246.576 284.841 246.992C285.401 247.408 285.681 248 285.681 248.768C285.681 249.52 285.409 250.12 284.865 250.568C284.321 251.016 283.617 251.24 282.753 251.24H279.993V249.824H282.321C282.849 249.824 283.233 249.744 283.473 249.584C283.729 249.424 283.857 249.152 283.857 248.768C283.857 248.4 283.729 248.136 283.473 247.976C283.233 247.816 282.849 247.736 282.321 247.736H281.121V245.168C280.017 245.056 279.041 244.712 278.193 244.136C277.345 243.544 276.681 242.76 276.201 241.784C275.737 240.792 275.505 239.664 275.505 238.4C275.505 237.04 275.777 235.856 276.321 234.848C276.865 233.824 277.617 233.032 278.577 232.472C279.553 231.912 280.665 231.632 281.913 231.632C283.529 231.632 284.857 232.024 285.897 232.808C286.953 233.592 287.649 234.68 287.985 236.072H285.633C285.409 235.272 284.969 234.64 284.313 234.176C283.673 233.712 282.873 233.48 281.913 233.48C280.665 233.48 279.657 233.912 278.889 234.776C278.121 235.624 277.737 236.832 277.737 238.4C277.737 239.984 278.121 241.208 278.889 242.072C279.657 242.936 280.665 243.368 281.913 243.368ZM290.083 238.376C290.083 237.032 290.355 235.856 290.899 234.848C291.443 233.824 292.187 233.032 293.131 232.472C294.091 231.912 295.155 231.632 296.323 231.632C297.475 231.632 298.475 231.88 299.323 232.376C300.171 232.872 300.803 233.496 301.219 234.248V231.848H303.427V245H301.219V242.552C300.787 243.32 300.139 243.96 299.275 244.472C298.427 244.968 297.435 245.216 296.299 245.216C295.131 245.216 294.075 244.928 293.131 244.352C292.187 243.776 291.443 242.968 290.899 241.928C290.355 240.888 290.083 239.704 290.083 238.376ZM301.219 238.4C301.219 237.408 301.019 236.544 300.619 235.808C300.219 235.072 299.675 234.512 298.987 234.128C298.315 233.728 297.571 233.528 296.755 233.528C295.939 233.528 295.195 233.72 294.523 234.104C293.851 234.488 293.315 235.048 292.915 235.784C292.515 236.52 292.315 237.384 292.315 238.376C292.315 239.384 292.515 240.264 292.915 241.016C293.315 241.752 293.851 242.32 294.523 242.72C295.195 243.104 295.939 243.296 296.755 243.296C297.571 243.296 298.315 243.104 298.987 242.72C299.675 242.32 300.219 241.752 300.619 241.016C301.019 240.264 301.219 239.392 301.219 238.4ZM293.659 230.432C293.771 229.616 294.035 228.992 294.451 228.56C294.883 228.128 295.419 227.912 296.059 227.912C296.363 227.912 296.619 227.968 296.827 228.08C297.051 228.176 297.315 228.32 297.619 228.512C297.843 228.672 298.043 228.8 298.219 228.896C298.395 228.976 298.587 229.016 298.795 229.016C299.067 229.016 299.299 228.928 299.491 228.752C299.683 228.576 299.803 228.32 299.851 227.984H301.099C301.003 228.784 300.739 229.4 300.307 229.832C299.875 230.264 299.339 230.48 298.699 230.48C298.395 230.48 298.123 230.432 297.883 230.336C297.659 230.224 297.403 230.064 297.115 229.856C296.859 229.696 296.651 229.576 296.491 229.496C296.347 229.416 296.171 229.376 295.963 229.376C295.691 229.376 295.459 229.464 295.267 229.64C295.091 229.816 294.979 230.08 294.931 230.432H293.659ZM312.854 245.216C311.622 245.216 310.502 244.936 309.494 244.376C308.502 243.816 307.718 243.024 307.142 242C306.582 240.96 306.302 239.76 306.302 238.4C306.302 237.056 306.59 235.872 307.166 234.848C307.758 233.808 308.558 233.016 309.566 232.472C310.574 231.912 311.702 231.632 312.95 231.632C314.198 231.632 315.326 231.912 316.334 232.472C317.342 233.016 318.134 233.8 318.71 234.824C319.302 235.848 319.598 237.04 319.598 238.4C319.598 239.76 319.294 240.96 318.686 242C318.094 243.024 317.286 243.816 316.262 244.376C315.238 244.936 314.102 245.216 312.854 245.216ZM312.854 243.296C313.638 243.296 314.374 243.112 315.062 242.744C315.75 242.376 316.302 241.824 316.718 241.088C317.15 240.352 317.366 239.456 317.366 238.4C317.366 237.344 317.158 236.448 316.742 235.712C316.326 234.976 315.782 234.432 315.11 234.08C314.438 233.712 313.71 233.528 312.926 233.528C312.126 233.528 311.39 233.712 310.718 234.08C310.062 234.432 309.534 234.976 309.134 235.712C308.734 236.448 308.534 237.344 308.534 238.4C308.534 239.472 308.726 240.376 309.11 241.112C309.51 241.848 310.038 242.4 310.694 242.768C311.35 243.12 312.07 243.296 312.854 243.296Z" fill="white"/>
<path d="M823.115 242.28H815.819L814.475 246H812.171L818.219 229.368H820.739L826.763 246H824.459L823.115 242.28ZM822.491 240.504L819.467 232.056L816.443 240.504H822.491ZM828.583 239.376C828.583 238.032 828.855 236.856 829.399 235.848C829.943 234.824 830.687 234.032 831.631 233.472C832.591 232.912 833.663 232.632 834.847 232.632C835.983 232.632 836.975 232.888 837.823 233.4C838.687 233.896 839.319 234.512 839.719 235.248V232.848H841.927V252.24H839.719V243.576C839.303 244.312 838.663 244.936 837.799 245.448C836.935 245.96 835.927 246.216 834.775 246.216C833.623 246.216 832.575 245.928 831.631 245.352C830.687 244.776 829.943 243.968 829.399 242.928C828.855 241.888 828.583 240.704 828.583 239.376ZM839.719 239.4C839.719 238.408 839.519 237.544 839.119 236.808C838.719 236.072 838.175 235.512 837.487 235.128C836.815 234.728 836.071 234.528 835.255 234.528C834.439 234.528 833.695 234.72 833.023 235.104C832.351 235.488 831.815 236.048 831.415 236.784C831.015 237.52 830.815 238.384 830.815 239.376C830.815 240.384 831.015 241.264 831.415 242.016C831.815 242.752 832.351 243.32 833.023 243.72C833.695 244.104 834.439 244.296 835.255 244.296C836.071 244.296 836.815 244.104 837.487 243.72C838.175 243.32 838.719 242.752 839.119 242.016C839.519 241.264 839.719 240.392 839.719 239.4ZM857.282 232.848V246H855.098V244.056C854.682 244.728 854.098 245.256 853.346 245.64C852.61 246.008 851.794 246.192 850.898 246.192C849.874 246.192 848.954 245.984 848.138 245.568C847.322 245.136 846.674 244.496 846.194 243.648C845.73 242.8 845.498 241.768 845.498 240.552V232.848H847.658V240.264C847.658 241.56 847.986 242.56 848.642 243.264C849.298 243.952 850.194 244.296 851.33 244.296C852.498 244.296 853.418 243.936 854.09 243.216C854.762 242.496 855.098 241.448 855.098 240.072V232.848H857.282ZM862.097 230.712C861.681 230.712 861.329 230.568 861.041 230.28C860.753 229.992 860.609 229.64 860.609 229.224C860.609 228.808 860.753 228.456 861.041 228.168C861.329 227.88 861.681 227.736 862.097 227.736C862.497 227.736 862.833 227.88 863.105 228.168C863.393 228.456 863.537 228.808 863.537 229.224C863.537 229.64 863.393 229.992 863.105 230.28C862.833 230.568 862.497 230.712 862.097 230.712ZM863.153 232.848V246H860.969V232.848H863.153ZM871.531 246.216C870.523 246.216 869.619 246.048 868.819 245.712C868.019 245.36 867.387 244.88 866.923 244.272C866.459 243.648 866.203 242.936 866.155 242.136H868.411C868.475 242.792 868.779 243.328 869.323 243.744C869.883 244.16 870.611 244.368 871.507 244.368C872.339 244.368 872.995 244.184 873.475 243.816C873.955 243.448 874.195 242.984 874.195 242.424C874.195 241.848 873.939 241.424 873.427 241.152C872.915 240.864 872.123 240.584 871.051 240.312C870.075 240.056 869.275 239.8 868.651 239.544C868.043 239.272 867.515 238.88 867.067 238.368C866.635 237.84 866.419 237.152 866.419 236.304C866.419 235.632 866.619 235.016 867.019 234.456C867.419 233.896 867.987 233.456 868.723 233.136C869.459 232.8 870.299 232.632 871.243 232.632C872.699 232.632 873.875 233 874.771 233.736C875.667 234.472 876.147 235.48 876.211 236.76H874.027C873.979 236.072 873.699 235.52 873.187 235.104C872.691 234.688 872.019 234.48 871.171 234.48C870.387 234.48 869.763 234.648 869.299 234.984C868.835 235.32 868.603 235.76 868.603 236.304C868.603 236.736 868.739 237.096 869.011 237.384C869.299 237.656 869.651 237.88 870.067 238.056C870.499 238.216 871.091 238.4 871.843 238.608C872.787 238.864 873.555 239.12 874.147 239.376C874.739 239.616 875.243 239.984 875.659 240.48C876.091 240.976 876.315 241.624 876.331 242.424C876.331 243.144 876.131 243.792 875.731 244.368C875.331 244.944 874.763 245.4 874.027 245.736C873.307 246.056 872.475 246.216 871.531 246.216ZM880.542 230.712C880.126 230.712 879.774 230.568 879.486 230.28C879.198 229.992 879.054 229.64 879.054 229.224C879.054 228.808 879.198 228.456 879.486 228.168C879.774 227.88 880.126 227.736 880.542 227.736C880.942 227.736 881.278 227.88 881.55 228.168C881.838 228.456 881.982 228.808 881.982 229.224C881.982 229.64 881.838 229.992 881.55 230.28C881.278 230.568 880.942 230.712 880.542 230.712ZM881.598 232.848V246H879.414V232.848H881.598ZM890.913 244.368C891.873 244.368 892.673 244.144 893.313 243.696C893.953 243.248 894.393 242.608 894.633 241.776H896.985C896.665 243.024 896.033 244.048 895.089 244.848C894.161 245.632 892.993 246.08 891.585 246.192V247.392C892.529 247.376 893.281 247.576 893.841 247.992C894.401 248.408 894.681 249 894.681 249.768C894.681 250.52 894.409 251.12 893.865 251.568C893.321 252.016 892.617 252.24 891.753 252.24H888.993V250.824H891.321C891.849 250.824 892.233 250.744 892.473 250.584C892.729 250.424 892.857 250.152 892.857 249.768C892.857 249.4 892.729 249.136 892.473 248.976C892.233 248.816 891.849 248.736 891.321 248.736H890.121V246.168C889.017 246.056 888.041 245.712 887.193 245.136C886.345 244.544 885.681 243.76 885.201 242.784C884.737 241.792 884.505 240.664 884.505 239.4C884.505 238.04 884.777 236.856 885.321 235.848C885.865 234.824 886.617 234.032 887.577 233.472C888.553 232.912 889.665 232.632 890.913 232.632C892.529 232.632 893.857 233.024 894.897 233.808C895.953 234.592 896.649 235.68 896.985 237.072H894.633C894.409 236.272 893.969 235.64 893.313 235.176C892.673 234.712 891.873 234.48 890.913 234.48C889.665 234.48 888.657 234.912 887.889 235.776C887.121 236.624 886.737 237.832 886.737 239.4C886.737 240.984 887.121 242.208 887.889 243.072C888.657 243.936 889.665 244.368 890.913 244.368ZM899.083 239.376C899.083 238.032 899.355 236.856 899.899 235.848C900.443 234.824 901.187 234.032 902.131 233.472C903.091 232.912 904.155 232.632 905.323 232.632C906.475 232.632 907.475 232.88 908.323 233.376C909.171 233.872 909.803 234.496 910.219 235.248V232.848H912.427V246H910.219V243.552C909.787 244.32 909.139 244.96 908.275 245.472C907.427 245.968 906.435 246.216 905.299 246.216C904.131 246.216 903.075 245.928 902.131 245.352C901.187 244.776 900.443 243.968 899.899 242.928C899.355 241.888 899.083 240.704 899.083 239.376ZM910.219 239.4C910.219 238.408 910.019 237.544 909.619 236.808C909.219 236.072 908.675 235.512 907.987 235.128C907.315 234.728 906.571 234.528 905.755 234.528C904.939 234.528 904.195 234.72 903.523 235.104C902.851 235.488 902.315 236.048 901.915 236.784C901.515 237.52 901.315 238.384 901.315 239.376C901.315 240.384 901.515 241.264 901.915 242.016C902.315 242.752 902.851 243.32 903.523 243.72C904.195 244.104 904.939 244.296 905.755 244.296C906.571 244.296 907.315 244.104 907.987 243.72C908.675 243.32 909.219 242.752 909.619 242.016C910.019 241.264 910.219 240.392 910.219 239.4ZM902.659 231.432C902.771 230.616 903.035 229.992 903.451 229.56C903.883 229.128 904.419 228.912 905.059 228.912C905.363 228.912 905.619 228.968 905.827 229.08C906.051 229.176 906.315 229.32 906.619 229.512C906.843 229.672 907.043 229.8 907.219 229.896C907.395 229.976 907.587 230.016 907.795 230.016C908.067 230.016 908.299 229.928 908.491 229.752C908.683 229.576 908.803 229.32 908.851 228.984H910.099C910.003 229.784 909.739 230.4 909.307 230.832C908.875 231.264 908.339 231.48 907.699 231.48C907.395 231.48 907.123 231.432 906.883 231.336C906.659 231.224 906.403 231.064 906.115 230.856C905.859 230.696 905.651 230.576 905.491 230.496C905.347 230.416 905.171 230.376 904.963 230.376C904.691 230.376 904.459 230.464 904.267 230.64C904.091 230.816 903.979 231.08 903.931 231.432H902.659ZM921.854 246.216C920.622 246.216 919.502 245.936 918.494 245.376C917.502 244.816 916.718 244.024 916.142 243C915.582 241.96 915.302 240.76 915.302 239.4C915.302 238.056 915.59 236.872 916.166 235.848C916.758 234.808 917.558 234.016 918.566 233.472C919.574 232.912 920.702 232.632 921.95 232.632C923.198 232.632 924.326 232.912 925.334 233.472C926.342 234.016 927.134 234.8 927.71 235.824C928.302 236.848 928.598 238.04 928.598 239.4C928.598 240.76 928.294 241.96 927.686 243C927.094 244.024 926.286 244.816 925.262 245.376C924.238 245.936 923.102 246.216 921.854 246.216ZM921.854 244.296C922.638 244.296 923.374 244.112 924.062 243.744C924.75 243.376 925.302 242.824 925.718 242.088C926.15 241.352 926.366 240.456 926.366 239.4C926.366 238.344 926.158 237.448 925.742 236.712C925.326 235.976 924.782 235.432 924.11 235.08C923.438 234.712 922.71 234.528 921.926 234.528C921.126 234.528 920.39 234.712 919.718 235.08C919.062 235.432 918.534 235.976 918.134 236.712C917.734 237.448 917.534 238.344 917.534 239.4C917.534 240.472 917.726 241.376 918.11 242.112C918.51 242.848 919.038 243.4 919.694 243.768C920.35 244.12 921.07 244.296 921.854 244.296Z" fill="white"/>
<path d="M415.68 273L414.11 275L363.59 339.55H157.09L106.57 275L105 273H415.68Z" fill="#224B40"/>
<path d="M196.212 305.624C196.212 303.992 196.58 302.528 197.316 301.232C198.052 299.92 199.052 298.896 200.316 298.16C201.596 297.424 203.012 297.056 204.564 297.056C206.388 297.056 207.98 297.496 209.34 298.376C210.7 299.256 211.692 300.504 212.316 302.12H209.7C209.236 301.112 208.564 300.336 207.684 299.792C206.82 299.248 205.78 298.976 204.564 298.976C203.396 298.976 202.348 299.248 201.42 299.792C200.492 300.336 199.764 301.112 199.236 302.12C198.708 303.112 198.444 304.28 198.444 305.624C198.444 306.952 198.708 308.12 199.236 309.128C199.764 310.12 200.492 310.888 201.42 311.432C202.348 311.976 203.396 312.248 204.564 312.248C205.78 312.248 206.82 311.984 207.684 311.456C208.564 310.912 209.236 310.136 209.7 309.128H212.316C211.692 310.728 210.7 311.968 209.34 312.848C207.98 313.712 206.388 314.144 204.564 314.144C203.012 314.144 201.596 313.784 200.316 313.064C199.052 312.328 198.052 311.312 197.316 310.016C196.58 308.72 196.212 307.256 196.212 305.624ZM221.303 314.216C220.071 314.216 218.951 313.936 217.943 313.376C216.951 312.816 216.167 312.024 215.591 311C215.031 309.96 214.751 308.76 214.751 307.4C214.751 306.056 215.039 304.872 215.615 303.848C216.207 302.808 217.007 302.016 218.015 301.472C219.023 300.912 220.151 300.632 221.399 300.632C222.647 300.632 223.775 300.912 224.783 301.472C225.791 302.016 226.583 302.8 227.159 303.824C227.751 304.848 228.047 306.04 228.047 307.4C228.047 308.76 227.743 309.96 227.135 311C226.543 312.024 225.735 312.816 224.711 313.376C223.687 313.936 222.551 314.216 221.303 314.216ZM221.303 312.296C222.087 312.296 222.823 312.112 223.511 311.744C224.199 311.376 224.751 310.824 225.167 310.088C225.599 309.352 225.815 308.456 225.815 307.4C225.815 306.344 225.607 305.448 225.191 304.712C224.775 303.976 224.231 303.432 223.559 303.08C222.887 302.712 222.159 302.528 221.375 302.528C220.575 302.528 219.839 302.712 219.167 303.08C218.511 303.432 217.983 303.976 217.583 304.712C217.183 305.448 216.983 306.344 216.983 307.4C216.983 308.472 217.175 309.376 217.559 310.112C217.959 310.848 218.487 311.4 219.143 311.768C219.799 312.12 220.519 312.296 221.303 312.296ZM237.326 300.608C238.926 300.608 240.222 301.096 241.214 302.072C242.206 303.032 242.702 304.424 242.702 306.248V314H240.542V306.56C240.542 305.248 240.214 304.248 239.558 303.56C238.902 302.856 238.006 302.504 236.87 302.504C235.718 302.504 234.798 302.864 234.11 303.584C233.438 304.304 233.102 305.352 233.102 306.728V314H230.918V300.848H233.102V302.72C233.534 302.048 234.118 301.528 234.854 301.16C235.606 300.792 236.43 300.608 237.326 300.608ZM251.166 311.984L255.246 300.848H257.574L252.414 314H249.87L244.71 300.848H247.062L251.166 311.984ZM271.723 306.92C271.723 307.336 271.699 307.776 271.651 308.24H261.139C261.219 309.536 261.659 310.552 262.459 311.288C263.275 312.008 264.259 312.368 265.411 312.368C266.355 312.368 267.139 312.152 267.763 311.72C268.403 311.272 268.851 310.68 269.107 309.944H271.459C271.107 311.208 270.403 312.24 269.347 313.04C268.291 313.824 266.979 314.216 265.411 314.216C264.163 314.216 263.043 313.936 262.051 313.376C261.075 312.816 260.307 312.024 259.747 311C259.187 309.96 258.907 308.76 258.907 307.4C258.907 306.04 259.179 304.848 259.723 303.824C260.267 302.8 261.027 302.016 262.003 301.472C262.995 300.912 264.131 300.632 265.411 300.632C266.659 300.632 267.763 300.904 268.723 301.448C269.683 301.992 270.419 302.744 270.931 303.704C271.459 304.648 271.723 305.72 271.723 306.92ZM269.467 306.464C269.467 305.632 269.283 304.92 268.915 304.328C268.547 303.72 268.043 303.264 267.403 302.96C266.779 302.64 266.083 302.48 265.315 302.48C264.211 302.48 263.267 302.832 262.483 303.536C261.715 304.24 261.275 305.216 261.163 306.464H269.467ZM276.79 302.984C277.174 302.232 277.718 301.648 278.422 301.232C279.142 300.816 280.014 300.608 281.038 300.608V302.864H280.462C278.014 302.864 276.79 304.192 276.79 306.848V314H274.606V300.848H276.79V302.984ZM288.215 314.216C287.207 314.216 286.303 314.048 285.503 313.712C284.703 313.36 284.071 312.88 283.607 312.272C283.143 311.648 282.887 310.936 282.839 310.136H285.095C285.159 310.792 285.463 311.328 286.007 311.744C286.567 312.16 287.295 312.368 288.191 312.368C289.023 312.368 289.679 312.184 290.159 311.816C290.639 311.448 290.879 310.984 290.879 310.424C290.879 309.848 290.623 309.424 290.111 309.152C289.599 308.864 288.807 308.584 287.735 308.312C286.759 308.056 285.959 307.8 285.335 307.544C284.727 307.272 284.199 306.88 283.751 306.368C283.319 305.84 283.103 305.152 283.103 304.304C283.103 303.632 283.303 303.016 283.703 302.456C284.103 301.896 284.671 301.456 285.407 301.136C286.143 300.8 286.983 300.632 287.927 300.632C289.383 300.632 290.559 301 291.455 301.736C292.351 302.472 292.831 303.48 292.895 304.76H290.711C290.663 304.072 290.383 303.52 289.871 303.104C289.375 302.688 288.703 302.48 287.855 302.48C287.071 302.48 286.447 302.648 285.983 302.984C285.519 303.32 285.287 303.76 285.287 304.304C285.287 304.736 285.423 305.096 285.695 305.384C285.983 305.656 286.335 305.88 286.751 306.056C287.183 306.216 287.775 306.4 288.527 306.608C289.471 306.864 290.239 307.12 290.831 307.376C291.423 307.616 291.927 307.984 292.343 308.48C292.775 308.976 292.999 309.624 293.015 310.424C293.015 311.144 292.815 311.792 292.415 312.368C292.015 312.944 291.447 313.4 290.711 313.736C289.991 314.056 289.159 314.216 288.215 314.216ZM295.282 307.376C295.282 306.032 295.554 304.856 296.098 303.848C296.642 302.824 297.386 302.032 298.33 301.472C299.29 300.912 300.354 300.632 301.522 300.632C302.674 300.632 303.674 300.88 304.522 301.376C305.37 301.872 306.002 302.496 306.418 303.248V300.848H308.626V314H306.418V311.552C305.986 312.32 305.338 312.96 304.474 313.472C303.626 313.968 302.634 314.216 301.498 314.216C300.33 314.216 299.274 313.928 298.33 313.352C297.386 312.776 296.642 311.968 296.098 310.928C295.554 309.888 295.282 308.704 295.282 307.376ZM306.418 307.4C306.418 306.408 306.218 305.544 305.818 304.808C305.418 304.072 304.874 303.512 304.186 303.128C303.514 302.728 302.77 302.528 301.954 302.528C301.138 302.528 300.394 302.72 299.722 303.104C299.05 303.488 298.514 304.048 298.114 304.784C297.714 305.52 297.514 306.384 297.514 307.376C297.514 308.384 297.714 309.264 298.114 310.016C298.514 310.752 299.05 311.32 299.722 311.72C300.394 312.104 301.138 312.296 301.954 312.296C302.77 312.296 303.514 312.104 304.186 311.72C304.874 311.32 305.418 310.752 305.818 310.016C306.218 309.264 306.418 308.392 306.418 307.4ZM298.858 299.432C298.97 298.616 299.234 297.992 299.65 297.56C300.082 297.128 300.618 296.912 301.258 296.912C301.562 296.912 301.818 296.968 302.026 297.08C302.25 297.176 302.514 297.32 302.818 297.512C303.042 297.672 303.242 297.8 303.418 297.896C303.594 297.976 303.786 298.016 303.994 298.016C304.266 298.016 304.498 297.928 304.69 297.752C304.882 297.576 305.002 297.32 305.05 296.984H306.298C306.202 297.784 305.938 298.4 305.506 298.832C305.074 299.264 304.538 299.48 303.898 299.48C303.594 299.48 303.322 299.432 303.082 299.336C302.858 299.224 302.602 299.064 302.314 298.856C302.058 298.696 301.85 298.576 301.69 298.496C301.546 298.416 301.37 298.376 301.162 298.376C300.89 298.376 300.658 298.464 300.466 298.64C300.29 298.816 300.178 299.08 300.13 299.432H298.858ZM318.053 314.216C316.821 314.216 315.701 313.936 314.693 313.376C313.701 312.816 312.917 312.024 312.341 311C311.781 309.96 311.501 308.76 311.501 307.4C311.501 306.056 311.789 304.872 312.365 303.848C312.957 302.808 313.757 302.016 314.765 301.472C315.773 300.912 316.901 300.632 318.149 300.632C319.397 300.632 320.525 300.912 321.533 301.472C322.541 302.016 323.333 302.8 323.909 303.824C324.501 304.848 324.797 306.04 324.797 307.4C324.797 308.76 324.493 309.96 323.885 311C323.293 312.024 322.485 312.816 321.461 313.376C320.437 313.936 319.301 314.216 318.053 314.216ZM318.053 312.296C318.837 312.296 319.573 312.112 320.261 311.744C320.949 311.376 321.501 310.824 321.917 310.088C322.349 309.352 322.565 308.456 322.565 307.4C322.565 306.344 322.357 305.448 321.941 304.712C321.525 303.976 320.981 303.432 320.309 303.08C319.637 302.712 318.909 302.528 318.125 302.528C317.325 302.528 316.589 302.712 315.917 303.08C315.261 303.432 314.733 303.976 314.333 304.712C313.933 305.448 313.733 306.344 313.733 307.4C313.733 308.472 313.925 309.376 314.309 310.112C314.709 310.848 315.237 311.4 315.893 311.768C316.549 312.12 317.269 312.296 318.053 312.296Z" fill="white"/>
<path d="M363 343L310.5 410H210.5L158 343H363Z" fill="#133129"/>
<path d="M226.75 385L222.766 378.16H220.126V385H217.942V368.272H223.342C224.606 368.272 225.67 368.488 226.534 368.92C227.414 369.352 228.07 369.936 228.502 370.672C228.934 371.408 229.15 372.248 229.15 373.192C229.15 374.344 228.814 375.36 228.142 376.24C227.486 377.12 226.494 377.704 225.166 377.992L229.366 385H226.75ZM220.126 376.408H223.342C224.526 376.408 225.414 376.12 226.006 375.544C226.598 374.952 226.894 374.168 226.894 373.192C226.894 372.2 226.598 371.432 226.006 370.888C225.43 370.344 224.542 370.072 223.342 370.072H220.126V376.408ZM244.543 377.92C244.543 378.336 244.519 378.776 244.471 379.24H233.959C234.039 380.536 234.479 381.552 235.279 382.288C236.095 383.008 237.079 383.368 238.231 383.368C239.175 383.368 239.959 383.152 240.583 382.72C241.223 382.272 241.671 381.68 241.927 380.944H244.279C243.927 382.208 243.223 383.24 242.167 384.04C241.111 384.824 239.799 385.216 238.231 385.216C236.983 385.216 235.863 384.936 234.871 384.376C233.895 383.816 233.127 383.024 232.567 382C232.007 380.96 231.727 379.76 231.727 378.4C231.727 377.04 231.999 375.848 232.543 374.824C233.087 373.8 233.847 373.016 234.823 372.472C235.815 371.912 236.951 371.632 238.231 371.632C239.479 371.632 240.583 371.904 241.543 372.448C242.503 372.992 243.239 373.744 243.751 374.704C244.279 375.648 244.543 376.72 244.543 377.92ZM242.287 377.464C242.287 376.632 242.103 375.92 241.735 375.328C241.367 374.72 240.863 374.264 240.223 373.96C239.599 373.64 238.903 373.48 238.135 373.48C237.031 373.48 236.087 373.832 235.303 374.536C234.535 375.24 234.095 376.216 233.983 377.464H242.287ZM246.61 378.4C246.61 377.04 246.882 375.856 247.426 374.848C247.97 373.824 248.722 373.032 249.682 372.472C250.658 371.912 251.77 371.632 253.018 371.632C254.634 371.632 255.962 372.024 257.002 372.808C258.058 373.592 258.754 374.68 259.09 376.072H256.738C256.514 375.272 256.074 374.64 255.418 374.176C254.778 373.712 253.978 373.48 253.018 373.48C251.77 373.48 250.762 373.912 249.994 374.776C249.226 375.624 248.842 376.832 248.842 378.4C248.842 379.984 249.226 381.208 249.994 382.072C250.762 382.936 251.77 383.368 253.018 383.368C253.978 383.368 254.778 383.144 255.418 382.696C256.058 382.248 256.498 381.608 256.738 380.776H259.09C258.738 382.12 258.034 383.2 256.978 384.016C255.922 384.816 254.602 385.216 253.018 385.216C251.77 385.216 250.658 384.936 249.682 384.376C248.722 383.816 247.97 383.024 247.426 382C246.882 380.976 246.61 379.776 246.61 378.4ZM274.004 377.92C274.004 378.336 273.98 378.776 273.932 379.24H263.42C263.5 380.536 263.94 381.552 264.74 382.288C265.556 383.008 266.54 383.368 267.692 383.368C268.636 383.368 269.42 383.152 270.044 382.72C270.684 382.272 271.132 381.68 271.388 380.944H273.74C273.388 382.208 272.684 383.24 271.628 384.04C270.572 384.824 269.26 385.216 267.692 385.216C266.444 385.216 265.324 384.936 264.332 384.376C263.356 383.816 262.588 383.024 262.028 382C261.468 380.96 261.188 379.76 261.188 378.4C261.188 377.04 261.46 375.848 262.004 374.824C262.548 373.8 263.308 373.016 264.284 372.472C265.276 371.912 266.412 371.632 267.692 371.632C268.94 371.632 270.044 371.904 271.004 372.448C271.964 372.992 272.7 373.744 273.212 374.704C273.74 375.648 274.004 376.72 274.004 377.92ZM271.748 377.464C271.748 376.632 271.564 375.92 271.196 375.328C270.828 374.72 270.324 374.264 269.684 373.96C269.06 373.64 268.364 373.48 267.596 373.48C266.492 373.48 265.548 373.832 264.764 374.536C263.996 375.24 263.556 376.216 263.444 377.464H271.748ZM278.015 369.712C277.599 369.712 277.247 369.568 276.959 369.28C276.671 368.992 276.527 368.64 276.527 368.224C276.527 367.808 276.671 367.456 276.959 367.168C277.247 366.88 277.599 366.736 278.015 366.736C278.415 366.736 278.751 366.88 279.023 367.168C279.311 367.456 279.455 367.808 279.455 368.224C279.455 368.64 279.311 368.992 279.023 369.28C278.751 369.568 278.415 369.712 278.015 369.712ZM279.071 371.848V385H276.887V371.848H279.071ZM285.457 373.648V381.4C285.457 382.04 285.593 382.496 285.865 382.768C286.137 383.024 286.609 383.152 287.281 383.152H288.889V385H286.921C285.705 385 284.793 384.72 284.185 384.16C283.577 383.6 283.273 382.68 283.273 381.4V373.648H281.569V371.848H283.273V368.536H285.457V371.848H288.889V373.648H285.457ZM290.72 378.376C290.72 377.032 290.992 375.856 291.536 374.848C292.08 373.824 292.824 373.032 293.768 372.472C294.728 371.912 295.792 371.632 296.96 371.632C298.112 371.632 299.112 371.88 299.96 372.376C300.808 372.872 301.44 373.496 301.856 374.248V371.848H304.064V385H301.856V382.552C301.424 383.32 300.776 383.96 299.912 384.472C299.064 384.968 298.072 385.216 296.936 385.216C295.768 385.216 294.712 384.928 293.768 384.352C292.824 383.776 292.08 382.968 291.536 381.928C290.992 380.888 290.72 379.704 290.72 378.376ZM301.856 378.4C301.856 377.408 301.656 376.544 301.256 375.808C300.856 375.072 300.312 374.512 299.624 374.128C298.952 373.728 298.208 373.528 297.392 373.528C296.576 373.528 295.832 373.72 295.16 374.104C294.488 374.488 293.952 375.048 293.552 375.784C293.152 376.52 292.952 377.384 292.952 378.376C292.952 379.384 293.152 380.264 293.552 381.016C293.952 381.752 294.488 382.32 295.16 382.72C295.832 383.104 296.576 383.296 297.392 383.296C298.208 383.296 298.952 383.104 299.624 382.72C300.312 382.32 300.856 381.752 301.256 381.016C301.656 380.264 301.856 379.392 301.856 378.4Z" fill="white"/>
<path d="M828.916 310.28H821.62L820.276 314H817.972L824.02 297.368H826.54L832.564 314H830.26L828.916 310.28ZM828.292 308.504L825.268 300.056L822.244 308.504H828.292ZM837.864 302.648V310.4C837.864 311.04 838 311.496 838.272 311.768C838.544 312.024 839.016 312.152 839.688 312.152H841.296V314H839.328C838.112 314 837.2 313.72 836.592 313.16C835.984 312.6 835.68 311.68 835.68 310.4V302.648H833.976V300.848H835.68V297.536H837.864V300.848H841.296V302.648H837.864ZM845.07 298.712C844.654 298.712 844.302 298.568 844.014 298.28C843.726 297.992 843.582 297.64 843.582 297.224C843.582 296.808 843.726 296.456 844.014 296.168C844.302 295.88 844.654 295.736 845.07 295.736C845.47 295.736 845.806 295.88 846.078 296.168C846.366 296.456 846.51 296.808 846.51 297.224C846.51 297.64 846.366 297.992 846.078 298.28C845.806 298.568 845.47 298.712 845.07 298.712ZM846.126 300.848V314H843.942V300.848H846.126ZM854.744 311.984L858.824 300.848H861.152L855.992 314H853.448L848.288 300.848H850.64L854.744 311.984ZM862.485 307.376C862.485 306.032 862.757 304.856 863.301 303.848C863.845 302.824 864.589 302.032 865.533 301.472C866.493 300.912 867.557 300.632 868.725 300.632C869.877 300.632 870.877 300.88 871.725 301.376C872.573 301.872 873.205 302.496 873.621 303.248V300.848H875.829V314H873.621V311.552C873.189 312.32 872.541 312.96 871.677 313.472C870.829 313.968 869.837 314.216 868.701 314.216C867.533 314.216 866.477 313.928 865.533 313.352C864.589 312.776 863.845 311.968 863.301 310.928C862.757 309.888 862.485 308.704 862.485 307.376ZM873.621 307.4C873.621 306.408 873.421 305.544 873.021 304.808C872.621 304.072 872.077 303.512 871.389 303.128C870.717 302.728 869.973 302.528 869.157 302.528C868.341 302.528 867.597 302.72 866.925 303.104C866.253 303.488 865.717 304.048 865.317 304.784C864.917 305.52 864.717 306.384 864.717 307.376C864.717 308.384 864.917 309.264 865.317 310.016C865.717 310.752 866.253 311.32 866.925 311.72C867.597 312.104 868.341 312.296 869.157 312.296C869.973 312.296 870.717 312.104 871.389 311.72C872.077 311.32 872.621 310.752 873.021 310.016C873.421 309.264 873.621 308.392 873.621 307.4ZM885.112 312.368C886.072 312.368 886.872 312.144 887.512 311.696C888.152 311.248 888.592 310.608 888.832 309.776H891.184C890.864 311.024 890.232 312.048 889.288 312.848C888.36 313.632 887.192 314.08 885.784 314.192V315.392C886.728 315.376 887.48 315.576 888.04 315.992C888.6 316.408 888.88 317 888.88 317.768C888.88 318.52 888.608 319.12 888.064 319.568C887.52 320.016 886.816 320.24 885.952 320.24H883.192V318.824H885.52C886.048 318.824 886.432 318.744 886.672 318.584C886.928 318.424 887.056 318.152 887.056 317.768C887.056 317.4 886.928 317.136 886.672 316.976C886.432 316.816 886.048 316.736 885.52 316.736H884.32V314.168C883.216 314.056 882.24 313.712 881.392 313.136C880.544 312.544 879.88 311.76 879.4 310.784C878.936 309.792 878.704 308.664 878.704 307.4C878.704 306.04 878.976 304.856 879.52 303.848C880.064 302.824 880.816 302.032 881.776 301.472C882.752 300.912 883.864 300.632 885.112 300.632C886.728 300.632 888.056 301.024 889.096 301.808C890.152 302.592 890.848 303.68 891.184 305.072H888.832C888.608 304.272 888.168 303.64 887.512 303.176C886.872 302.712 886.072 302.48 885.112 302.48C883.864 302.48 882.856 302.912 882.088 303.776C881.32 304.624 880.936 305.832 880.936 307.4C880.936 308.984 881.32 310.208 882.088 311.072C882.856 311.936 883.864 312.368 885.112 312.368ZM893.282 307.376C893.282 306.032 893.554 304.856 894.098 303.848C894.642 302.824 895.386 302.032 896.33 301.472C897.29 300.912 898.354 300.632 899.522 300.632C900.674 300.632 901.674 300.88 902.522 301.376C903.37 301.872 904.002 302.496 904.418 303.248V300.848H906.626V314H904.418V311.552C903.986 312.32 903.338 312.96 902.474 313.472C901.626 313.968 900.634 314.216 899.498 314.216C898.33 314.216 897.274 313.928 896.33 313.352C895.386 312.776 894.642 311.968 894.098 310.928C893.554 309.888 893.282 308.704 893.282 307.376ZM904.418 307.4C904.418 306.408 904.218 305.544 903.818 304.808C903.418 304.072 902.874 303.512 902.186 303.128C901.514 302.728 900.77 302.528 899.954 302.528C899.138 302.528 898.394 302.72 897.722 303.104C897.05 303.488 896.514 304.048 896.114 304.784C895.714 305.52 895.514 306.384 895.514 307.376C895.514 308.384 895.714 309.264 896.114 310.016C896.514 310.752 897.05 311.32 897.722 311.72C898.394 312.104 899.138 312.296 899.954 312.296C900.77 312.296 901.514 312.104 902.186 311.72C902.874 311.32 903.418 310.752 903.818 310.016C904.218 309.264 904.418 308.392 904.418 307.4ZM896.858 299.432C896.97 298.616 897.234 297.992 897.65 297.56C898.082 297.128 898.618 296.912 899.258 296.912C899.562 296.912 899.818 296.968 900.026 297.08C900.25 297.176 900.514 297.32 900.818 297.512C901.042 297.672 901.242 297.8 901.418 297.896C901.594 297.976 901.786 298.016 901.994 298.016C902.266 298.016 902.498 297.928 902.69 297.752C902.882 297.576 903.002 297.32 903.05 296.984H904.298C904.202 297.784 903.938 298.4 903.506 298.832C903.074 299.264 902.538 299.48 901.898 299.48C901.594 299.48 901.322 299.432 901.082 299.336C900.858 299.224 900.602 299.064 900.314 298.856C900.058 298.696 899.85 298.576 899.69 298.496C899.546 298.416 899.37 298.376 899.162 298.376C898.89 298.376 898.658 298.464 898.466 298.64C898.29 298.816 898.178 299.08 898.13 299.432H896.858ZM916.053 314.216C914.821 314.216 913.701 313.936 912.693 313.376C911.701 312.816 910.917 312.024 910.341 311C909.781 309.96 909.501 308.76 909.501 307.4C909.501 306.056 909.789 304.872 910.365 303.848C910.957 302.808 911.757 302.016 912.765 301.472C913.773 300.912 914.901 300.632 916.149 300.632C917.397 300.632 918.525 300.912 919.533 301.472C920.541 302.016 921.333 302.8 921.909 303.824C922.501 304.848 922.797 306.04 922.797 307.4C922.797 308.76 922.493 309.96 921.885 311C921.293 312.024 920.485 312.816 919.461 313.376C918.437 313.936 917.301 314.216 916.053 314.216ZM916.053 312.296C916.837 312.296 917.573 312.112 918.261 311.744C918.949 311.376 919.501 310.824 919.917 310.088C920.349 309.352 920.565 308.456 920.565 307.4C920.565 306.344 920.357 305.448 919.941 304.712C919.525 303.976 918.981 303.432 918.309 303.08C917.637 302.712 916.909 302.528 916.125 302.528C915.325 302.528 914.589 302.712 913.917 303.08C913.261 303.432 912.733 303.976 912.333 304.712C911.933 305.448 911.733 306.344 911.733 307.4C911.733 308.472 911.925 309.376 912.309 310.112C912.709 310.848 913.237 311.4 913.893 311.768C914.549 312.12 915.269 312.296 916.053 312.296Z" fill="white"/>
<path d="M824.851 384L820.867 377.16H818.227V384H816.043V367.272H821.443C822.707 367.272 823.771 367.488 824.635 367.92C825.515 368.352 826.171 368.936 826.603 369.672C827.035 370.408 827.251 371.248 827.251 372.192C827.251 373.344 826.915 374.36 826.243 375.24C825.587 376.12 824.595 376.704 823.267 376.992L827.467 384H824.851ZM818.227 375.408H821.443C822.627 375.408 823.515 375.12 824.107 374.544C824.699 373.952 824.995 373.168 824.995 372.192C824.995 371.2 824.699 370.432 824.107 369.888C823.531 369.344 822.643 369.072 821.443 369.072H818.227V375.408ZM842.645 376.92C842.645 377.336 842.621 377.776 842.573 378.24H832.061C832.141 379.536 832.581 380.552 833.381 381.288C834.197 382.008 835.181 382.368 836.333 382.368C837.277 382.368 838.061 382.152 838.685 381.72C839.325 381.272 839.773 380.68 840.029 379.944H842.381C842.029 381.208 841.325 382.24 840.269 383.04C839.213 383.824 837.901 384.216 836.333 384.216C835.085 384.216 833.965 383.936 832.973 383.376C831.997 382.816 831.229 382.024 830.669 381C830.109 379.96 829.829 378.76 829.829 377.4C829.829 376.04 830.101 374.848 830.645 373.824C831.189 372.8 831.949 372.016 832.925 371.472C833.917 370.912 835.053 370.632 836.333 370.632C837.581 370.632 838.685 370.904 839.645 371.448C840.605 371.992 841.341 372.744 841.853 373.704C842.381 374.648 842.645 375.72 842.645 376.92ZM840.389 376.464C840.389 375.632 840.205 374.92 839.837 374.328C839.469 373.72 838.965 373.264 838.325 372.96C837.701 372.64 837.005 372.48 836.237 372.48C835.133 372.48 834.189 372.832 833.405 373.536C832.637 374.24 832.197 375.216 832.085 376.464H840.389ZM848.192 372.648V380.4C848.192 381.04 848.328 381.496 848.6 381.768C848.872 382.024 849.344 382.152 850.016 382.152H851.624V384H849.656C848.44 384 847.528 383.72 846.92 383.16C846.312 382.6 846.008 381.68 846.008 380.4V372.648H844.304V370.848H846.008V367.536H848.192V370.848H851.624V372.648H848.192ZM866.27 376.92C866.27 377.336 866.246 377.776 866.198 378.24H855.686C855.766 379.536 856.206 380.552 857.006 381.288C857.822 382.008 858.806 382.368 859.958 382.368C860.902 382.368 861.686 382.152 862.31 381.72C862.95 381.272 863.398 380.68 863.654 379.944H866.006C865.654 381.208 864.95 382.24 863.894 383.04C862.838 383.824 861.526 384.216 859.958 384.216C858.71 384.216 857.59 383.936 856.598 383.376C855.622 382.816 854.854 382.024 854.294 381C853.734 379.96 853.454 378.76 853.454 377.4C853.454 376.04 853.726 374.848 854.27 373.824C854.814 372.8 855.574 372.016 856.55 371.472C857.542 370.912 858.678 370.632 859.958 370.632C861.206 370.632 862.31 370.904 863.27 371.448C864.23 371.992 864.966 372.744 865.478 373.704C866.006 374.648 866.27 375.72 866.27 376.92ZM864.014 376.464C864.014 375.632 863.83 374.92 863.462 374.328C863.094 373.72 862.59 373.264 861.95 372.96C861.326 372.64 860.63 372.48 859.862 372.48C858.758 372.48 857.814 372.832 857.03 373.536C856.262 374.24 855.822 375.216 855.71 376.464H864.014ZM875.561 370.608C877.161 370.608 878.457 371.096 879.449 372.072C880.441 373.032 880.937 374.424 880.937 376.248V384H878.777V376.56C878.777 375.248 878.449 374.248 877.793 373.56C877.137 372.856 876.241 372.504 875.105 372.504C873.953 372.504 873.033 372.864 872.345 373.584C871.673 374.304 871.337 375.352 871.337 376.728V384H869.153V370.848H871.337V372.72C871.769 372.048 872.353 371.528 873.089 371.16C873.841 370.792 874.665 370.608 875.561 370.608ZM890.096 382.368C891.056 382.368 891.856 382.144 892.496 381.696C893.136 381.248 893.576 380.608 893.816 379.776H896.168C895.848 381.024 895.216 382.048 894.272 382.848C893.344 383.632 892.176 384.08 890.768 384.192V385.392C891.712 385.376 892.464 385.576 893.024 385.992C893.584 386.408 893.864 387 893.864 387.768C893.864 388.52 893.592 389.12 893.048 389.568C892.504 390.016 891.8 390.24 890.936 390.24H888.176V388.824H890.504C891.032 388.824 891.416 388.744 891.656 388.584C891.912 388.424 892.04 388.152 892.04 387.768C892.04 387.4 891.912 387.136 891.656 386.976C891.416 386.816 891.032 386.736 890.504 386.736H889.304V384.168C888.2 384.056 887.224 383.712 886.376 383.136C885.528 382.544 884.864 381.76 884.384 380.784C883.92 379.792 883.688 378.664 883.688 377.4C883.688 376.04 883.96 374.856 884.504 373.848C885.048 372.824 885.8 372.032 886.76 371.472C887.736 370.912 888.848 370.632 890.096 370.632C891.712 370.632 893.04 371.024 894.08 371.808C895.136 372.592 895.832 373.68 896.168 375.072H893.816C893.592 374.272 893.152 373.64 892.496 373.176C891.856 372.712 891.056 372.48 890.096 372.48C888.848 372.48 887.84 372.912 887.072 373.776C886.304 374.624 885.92 375.832 885.92 377.4C885.92 378.984 886.304 380.208 887.072 381.072C887.84 381.936 888.848 382.368 890.096 382.368ZM898.266 377.376C898.266 376.032 898.538 374.856 899.082 373.848C899.626 372.824 900.37 372.032 901.314 371.472C902.274 370.912 903.338 370.632 904.506 370.632C905.658 370.632 906.658 370.88 907.506 371.376C908.354 371.872 908.986 372.496 909.402 373.248V370.848H911.61V384H909.402V381.552C908.97 382.32 908.322 382.96 907.458 383.472C906.61 383.968 905.618 384.216 904.482 384.216C903.314 384.216 902.258 383.928 901.314 383.352C900.37 382.776 899.626 381.968 899.082 380.928C898.538 379.888 898.266 378.704 898.266 377.376ZM909.402 377.4C909.402 376.408 909.202 375.544 908.802 374.808C908.402 374.072 907.858 373.512 907.17 373.128C906.498 372.728 905.754 372.528 904.938 372.528C904.122 372.528 903.378 372.72 902.706 373.104C902.034 373.488 901.498 374.048 901.098 374.784C900.698 375.52 900.498 376.384 900.498 377.376C900.498 378.384 900.698 379.264 901.098 380.016C901.498 380.752 902.034 381.32 902.706 381.72C903.378 382.104 904.122 382.296 904.938 382.296C905.754 382.296 906.498 382.104 907.17 381.72C907.858 381.32 908.402 380.752 908.802 380.016C909.202 379.264 909.402 378.392 909.402 377.4ZM901.842 369.432C901.954 368.616 902.218 367.992 902.634 367.56C903.066 367.128 903.602 366.912 904.242 366.912C904.546 366.912 904.802 366.968 905.01 367.08C905.234 367.176 905.498 367.32 905.802 367.512C906.026 367.672 906.226 367.8 906.402 367.896C906.578 367.976 906.77 368.016 906.978 368.016C907.25 368.016 907.482 367.928 907.674 367.752C907.866 367.576 907.986 367.32 908.034 366.984H909.282C909.186 367.784 908.922 368.4 908.49 368.832C908.058 369.264 907.522 369.48 906.882 369.48C906.578 369.48 906.306 369.432 906.066 369.336C905.842 369.224 905.586 369.064 905.298 368.856C905.042 368.696 904.834 368.576 904.674 368.496C904.53 368.416 904.354 368.376 904.146 368.376C903.874 368.376 903.642 368.464 903.45 368.64C903.274 368.816 903.162 369.08 903.114 369.432H901.842ZM921.037 384.216C919.805 384.216 918.685 383.936 917.677 383.376C916.685 382.816 915.901 382.024 915.325 381C914.765 379.96 914.485 378.76 914.485 377.4C914.485 376.056 914.773 374.872 915.349 373.848C915.941 372.808 916.741 372.016 917.749 371.472C918.757 370.912 919.885 370.632 921.133 370.632C922.381 370.632 923.509 370.912 924.517 371.472C925.525 372.016 926.317 372.8 926.893 373.824C927.485 374.848 927.781 376.04 927.781 377.4C927.781 378.76 927.477 379.96 926.869 381C926.277 382.024 925.469 382.816 924.445 383.376C923.421 383.936 922.285 384.216 921.037 384.216ZM921.037 382.296C921.821 382.296 922.557 382.112 923.245 381.744C923.933 381.376 924.485 380.824 924.901 380.088C925.333 379.352 925.549 378.456 925.549 377.4C925.549 376.344 925.341 375.448 924.925 374.712C924.509 373.976 923.965 373.432 923.293 373.08C922.621 372.712 921.893 372.528 921.109 372.528C920.309 372.528 919.573 372.712 918.901 373.08C918.245 373.432 917.717 373.976 917.317 374.712C916.917 375.448 916.717 376.344 916.717 377.4C916.717 378.472 916.909 379.376 917.293 380.112C917.693 380.848 918.221 381.4 918.877 381.768C919.533 382.12 920.253 382.296 921.037 382.296Z" fill="white"/>
<path d="M814.368 435.272V452H812.184V435.272H814.368ZM824.498 438.608C826.098 438.608 827.394 439.096 828.386 440.072C829.378 441.032 829.874 442.424 829.874 444.248V452H827.714V444.56C827.714 443.248 827.386 442.248 826.73 441.56C826.074 440.856 825.178 440.504 824.042 440.504C822.89 440.504 821.97 440.864 821.282 441.584C820.61 442.304 820.274 443.352 820.274 444.728V452H818.09V438.848H820.274V440.72C820.706 440.048 821.29 439.528 822.026 439.16C822.778 438.792 823.602 438.608 824.498 438.608ZM832.626 445.376C832.626 444.032 832.898 442.856 833.442 441.848C833.986 440.824 834.73 440.032 835.674 439.472C836.634 438.912 837.706 438.632 838.89 438.632C839.914 438.632 840.866 438.872 841.746 439.352C842.626 439.816 843.298 440.432 843.762 441.2V434.24H845.97V452H843.762V449.528C843.33 450.312 842.69 450.96 841.842 451.472C840.994 451.968 840.002 452.216 838.866 452.216C837.698 452.216 836.634 451.928 835.674 451.352C834.73 450.776 833.986 449.968 833.442 448.928C832.898 447.888 832.626 446.704 832.626 445.376ZM843.762 445.4C843.762 444.408 843.562 443.544 843.162 442.808C842.762 442.072 842.218 441.512 841.53 441.128C840.858 440.728 840.114 440.528 839.298 440.528C838.482 440.528 837.738 440.72 837.066 441.104C836.394 441.488 835.858 442.048 835.458 442.784C835.058 443.52 834.858 444.384 834.858 445.376C834.858 446.384 835.058 447.264 835.458 448.016C835.858 448.752 836.394 449.32 837.066 449.72C837.738 450.104 838.482 450.296 839.298 450.296C840.114 450.296 840.858 450.104 841.53 449.72C842.218 449.32 842.762 448.752 843.162 448.016C843.562 447.264 843.762 446.392 843.762 445.4ZM850.789 436.712C850.373 436.712 850.021 436.568 849.733 436.28C849.445 435.992 849.301 435.64 849.301 435.224C849.301 434.808 849.445 434.456 849.733 434.168C850.021 433.88 850.373 433.736 850.789 433.736C851.189 433.736 851.525 433.88 851.797 434.168C852.085 434.456 852.229 434.808 852.229 435.224C852.229 435.64 852.085 435.992 851.797 436.28C851.525 436.568 851.189 436.712 850.789 436.712ZM851.845 438.848V452H849.661V438.848H851.845ZM854.751 445.4C854.751 444.04 855.023 442.856 855.567 441.848C856.111 440.824 856.863 440.032 857.823 439.472C858.799 438.912 859.911 438.632 861.159 438.632C862.775 438.632 864.103 439.024 865.143 439.808C866.199 440.592 866.895 441.68 867.231 443.072H864.879C864.655 442.272 864.215 441.64 863.559 441.176C862.919 440.712 862.119 440.48 861.159 440.48C859.911 440.48 858.903 440.912 858.135 441.776C857.367 442.624 856.983 443.832 856.983 445.4C856.983 446.984 857.367 448.208 858.135 449.072C858.903 449.936 859.911 450.368 861.159 450.368C862.119 450.368 862.919 450.144 863.559 449.696C864.199 449.248 864.639 448.608 864.879 447.776H867.231C866.879 449.12 866.175 450.2 865.119 451.016C864.063 451.816 862.743 452.216 861.159 452.216C859.911 452.216 858.799 451.936 857.823 451.376C856.863 450.816 856.111 450.024 855.567 449C855.023 447.976 854.751 446.776 854.751 445.4ZM869.329 445.376C869.329 444.032 869.601 442.856 870.145 441.848C870.689 440.824 871.433 440.032 872.377 439.472C873.337 438.912 874.401 438.632 875.569 438.632C876.721 438.632 877.721 438.88 878.569 439.376C879.417 439.872 880.049 440.496 880.465 441.248V438.848H882.673V452H880.465V449.552C880.033 450.32 879.385 450.96 878.521 451.472C877.673 451.968 876.681 452.216 875.545 452.216C874.377 452.216 873.321 451.928 872.377 451.352C871.433 450.776 870.689 449.968 870.145 448.928C869.601 447.888 869.329 446.704 869.329 445.376ZM880.465 445.4C880.465 444.408 880.265 443.544 879.865 442.808C879.465 442.072 878.921 441.512 878.233 441.128C877.561 440.728 876.817 440.528 876.001 440.528C875.185 440.528 874.441 440.72 873.769 441.104C873.097 441.488 872.561 442.048 872.161 442.784C871.761 443.52 871.561 444.384 871.561 445.376C871.561 446.384 871.761 447.264 872.161 448.016C872.561 448.752 873.097 449.32 873.769 449.72C874.441 450.104 875.185 450.296 876.001 450.296C876.817 450.296 877.561 450.104 878.233 449.72C878.921 449.32 879.465 448.752 879.865 448.016C880.265 447.264 880.465 446.392 880.465 445.4ZM891.956 450.368C892.916 450.368 893.716 450.144 894.356 449.696C894.996 449.248 895.436 448.608 895.676 447.776H898.028C897.708 449.024 897.076 450.048 896.132 450.848C895.204 451.632 894.036 452.08 892.628 452.192V453.392C893.572 453.376 894.324 453.576 894.884 453.992C895.444 454.408 895.724 455 895.724 455.768C895.724 456.52 895.452 457.12 894.908 457.568C894.364 458.016 893.66 458.24 892.796 458.24H890.036V456.824H892.364C892.892 456.824 893.276 456.744 893.516 456.584C893.772 456.424 893.9 456.152 893.9 455.768C893.9 455.4 893.772 455.136 893.516 454.976C893.276 454.816 892.892 454.736 892.364 454.736H891.164V452.168C890.06 452.056 889.084 451.712 888.236 451.136C887.388 450.544 886.724 449.76 886.244 448.784C885.78 447.792 885.548 446.664 885.548 445.4C885.548 444.04 885.82 442.856 886.364 441.848C886.908 440.824 887.66 440.032 888.62 439.472C889.596 438.912 890.708 438.632 891.956 438.632C893.572 438.632 894.9 439.024 895.94 439.808C896.996 440.592 897.692 441.68 898.028 443.072H895.676C895.452 442.272 895.012 441.64 894.356 441.176C893.716 440.712 892.916 440.48 891.956 440.48C890.708 440.48 889.7 440.912 888.932 441.776C888.164 442.624 887.78 443.832 887.78 445.4C887.78 446.984 888.164 448.208 888.932 449.072C889.7 449.936 890.708 450.368 891.956 450.368ZM900.126 445.376C900.126 444.032 900.398 442.856 900.942 441.848C901.486 440.824 902.23 440.032 903.174 439.472C904.134 438.912 905.198 438.632 906.366 438.632C907.518 438.632 908.518 438.88 909.366 439.376C910.214 439.872 910.846 440.496 911.262 441.248V438.848H913.47V452H911.262V449.552C910.83 450.32 910.182 450.96 909.318 451.472C908.47 451.968 907.478 452.216 906.342 452.216C905.174 452.216 904.118 451.928 903.174 451.352C902.23 450.776 901.486 449.968 900.942 448.928C900.398 447.888 900.126 446.704 900.126 445.376ZM911.262 445.4C911.262 444.408 911.062 443.544 910.662 442.808C910.262 442.072 909.718 441.512 909.03 441.128C908.358 440.728 907.614 440.528 906.798 440.528C905.982 440.528 905.238 440.72 904.566 441.104C903.894 441.488 903.358 442.048 902.958 442.784C902.558 443.52 902.358 444.384 902.358 445.376C902.358 446.384 902.558 447.264 902.958 448.016C903.358 448.752 903.894 449.32 904.566 449.72C905.238 450.104 905.982 450.296 906.798 450.296C907.614 450.296 908.358 450.104 909.03 449.72C909.718 449.32 910.262 448.752 910.662 448.016C911.062 447.264 911.262 446.392 911.262 445.4ZM903.702 437.432C903.814 436.616 904.078 435.992 904.494 435.56C904.926 435.128 905.462 434.912 906.102 434.912C906.406 434.912 906.662 434.968 906.87 435.08C907.094 435.176 907.358 435.32 907.662 435.512C907.886 435.672 908.086 435.8 908.262 435.896C908.438 435.976 908.63 436.016 908.838 436.016C909.11 436.016 909.342 435.928 909.534 435.752C909.726 435.576 909.846 435.32 909.894 434.984H911.142C911.046 435.784 910.782 436.4 910.35 436.832C909.918 437.264 909.382 437.48 908.742 437.48C908.438 437.48 908.166 437.432 907.926 437.336C907.702 437.224 907.446 437.064 907.158 436.856C906.902 436.696 906.694 436.576 906.534 436.496C906.39 436.416 906.214 436.376 906.006 436.376C905.734 436.376 905.502 436.464 905.31 436.64C905.134 436.816 905.022 437.08 904.974 437.432H903.702ZM922.897 452.216C921.665 452.216 920.545 451.936 919.537 451.376C918.545 450.816 917.761 450.024 917.185 449C916.625 447.96 916.345 446.76 916.345 445.4C916.345 444.056 916.633 442.872 917.209 441.848C917.801 440.808 918.601 440.016 919.609 439.472C920.617 438.912 921.745 438.632 922.993 438.632C924.241 438.632 925.369 438.912 926.377 439.472C927.385 440.016 928.177 440.8 928.753 441.824C929.345 442.848 929.641 444.04 929.641 445.4C929.641 446.76 929.337 447.96 928.729 449C928.137 450.024 927.329 450.816 926.305 451.376C925.281 451.936 924.145 452.216 922.897 452.216ZM922.897 450.296C923.681 450.296 924.417 450.112 925.105 449.744C925.793 449.376 926.345 448.824 926.761 448.088C927.193 447.352 927.409 446.456 927.409 445.4C927.409 444.344 927.201 443.448 926.785 442.712C926.369 441.976 925.825 441.432 925.153 441.08C924.481 440.712 923.753 440.528 922.969 440.528C922.169 440.528 921.433 440.712 920.761 441.08C920.105 441.432 919.577 441.976 919.177 442.712C918.777 443.448 918.577 444.344 918.577 445.4C918.577 446.472 918.769 447.376 919.153 448.112C919.553 448.848 920.081 449.4 920.737 449.768C921.393 450.12 922.113 450.296 922.897 450.296Z" fill="white"/>
<path d="M827.851 521L823.867 514.16H821.227V521H819.043V504.272H824.443C825.707 504.272 826.771 504.488 827.635 504.92C828.515 505.352 829.171 505.936 829.603 506.672C830.035 507.408 830.251 508.248 830.251 509.192C830.251 510.344 829.915 511.36 829.243 512.24C828.587 513.12 827.595 513.704 826.267 513.992L830.467 521H827.851ZM821.227 512.408H824.443C825.627 512.408 826.515 512.12 827.107 511.544C827.699 510.952 827.995 510.168 827.995 509.192C827.995 508.2 827.699 507.432 827.107 506.888C826.531 506.344 825.643 506.072 824.443 506.072H821.227V512.408ZM845.645 513.92C845.645 514.336 845.621 514.776 845.573 515.24H835.061C835.141 516.536 835.581 517.552 836.381 518.288C837.197 519.008 838.181 519.368 839.333 519.368C840.277 519.368 841.061 519.152 841.685 518.72C842.325 518.272 842.773 517.68 843.029 516.944H845.381C845.029 518.208 844.325 519.24 843.269 520.04C842.213 520.824 840.901 521.216 839.333 521.216C838.085 521.216 836.965 520.936 835.973 520.376C834.997 519.816 834.229 519.024 833.669 518C833.109 516.96 832.829 515.76 832.829 514.4C832.829 513.04 833.101 511.848 833.645 510.824C834.189 509.8 834.949 509.016 835.925 508.472C836.917 507.912 838.053 507.632 839.333 507.632C840.581 507.632 841.685 507.904 842.645 508.448C843.605 508.992 844.341 509.744 844.853 510.704C845.381 511.648 845.645 512.72 845.645 513.92ZM843.389 513.464C843.389 512.632 843.205 511.92 842.837 511.328C842.469 510.72 841.965 510.264 841.325 509.96C840.701 509.64 840.005 509.48 839.237 509.48C838.133 509.48 837.189 509.832 836.405 510.536C835.637 511.24 835.197 512.216 835.085 513.464H843.389ZM853.424 518.984L857.504 507.848H859.832L854.672 521H852.128L846.968 507.848H849.32L853.424 518.984ZM873.981 513.92C873.981 514.336 873.957 514.776 873.909 515.24H863.397C863.477 516.536 863.917 517.552 864.717 518.288C865.533 519.008 866.517 519.368 867.669 519.368C868.613 519.368 869.397 519.152 870.021 518.72C870.661 518.272 871.109 517.68 871.365 516.944H873.717C873.365 518.208 872.661 519.24 871.605 520.04C870.549 520.824 869.237 521.216 867.669 521.216C866.421 521.216 865.301 520.936 864.309 520.376C863.333 519.816 862.565 519.024 862.005 518C861.445 516.96 861.165 515.76 861.165 514.4C861.165 513.04 861.437 511.848 861.981 510.824C862.525 509.8 863.285 509.016 864.261 508.472C865.253 507.912 866.389 507.632 867.669 507.632C868.917 507.632 870.021 507.904 870.981 508.448C871.941 508.992 872.677 509.744 873.189 510.704C873.717 511.648 873.981 512.72 873.981 513.92ZM871.725 513.464C871.725 512.632 871.541 511.92 871.173 511.328C870.805 510.72 870.301 510.264 869.661 509.96C869.037 509.64 868.341 509.48 867.573 509.48C866.469 509.48 865.525 509.832 864.741 510.536C863.973 511.24 863.533 512.216 863.421 513.464H871.725ZM883.272 507.608C884.872 507.608 886.168 508.096 887.16 509.072C888.152 510.032 888.648 511.424 888.648 513.248V521H886.488V513.56C886.488 512.248 886.16 511.248 885.504 510.56C884.848 509.856 883.952 509.504 882.816 509.504C881.664 509.504 880.744 509.864 880.056 510.584C879.384 511.304 879.048 512.352 879.048 513.728V521H876.864V507.848H879.048V509.72C879.48 509.048 880.064 508.528 880.8 508.16C881.552 507.792 882.376 507.608 883.272 507.608ZM891.399 514.376C891.399 513.032 891.671 511.856 892.215 510.848C892.759 509.824 893.503 509.032 894.447 508.472C895.407 507.912 896.479 507.632 897.663 507.632C898.687 507.632 899.639 507.872 900.519 508.352C901.399 508.816 902.071 509.432 902.535 510.2V503.24H904.743V521H902.535V518.528C902.103 519.312 901.463 519.96 900.615 520.472C899.767 520.968 898.775 521.216 897.639 521.216C896.471 521.216 895.407 520.928 894.447 520.352C893.503 519.776 892.759 518.968 892.215 517.928C891.671 516.888 891.399 515.704 891.399 514.376ZM902.535 514.4C902.535 513.408 902.335 512.544 901.935 511.808C901.535 511.072 900.991 510.512 900.303 510.128C899.631 509.728 898.887 509.528 898.071 509.528C897.255 509.528 896.511 509.72 895.839 510.104C895.167 510.488 894.631 511.048 894.231 511.784C893.831 512.52 893.631 513.384 893.631 514.376C893.631 515.384 893.831 516.264 894.231 517.016C894.631 517.752 895.167 518.32 895.839 518.72C896.511 519.104 897.255 519.296 898.071 519.296C898.887 519.296 899.631 519.104 900.303 518.72C900.991 518.32 901.535 517.752 901.935 517.016C902.335 516.264 902.535 515.392 902.535 514.4ZM907.618 514.376C907.618 513.032 907.89 511.856 908.434 510.848C908.978 509.824 909.722 509.032 910.666 508.472C911.626 507.912 912.69 507.632 913.858 507.632C915.01 507.632 916.01 507.88 916.858 508.376C917.706 508.872 918.338 509.496 918.754 510.248V507.848H920.962V521H918.754V518.552C918.322 519.32 917.674 519.96 916.81 520.472C915.962 520.968 914.97 521.216 913.834 521.216C912.666 521.216 911.61 520.928 910.666 520.352C909.722 519.776 908.978 518.968 908.434 517.928C907.89 516.888 907.618 515.704 907.618 514.376ZM918.754 514.4C918.754 513.408 918.554 512.544 918.154 511.808C917.754 511.072 917.21 510.512 916.522 510.128C915.85 509.728 915.106 509.528 914.29 509.528C913.474 509.528 912.73 509.72 912.058 510.104C911.386 510.488 910.85 511.048 910.45 511.784C910.05 512.52 909.85 513.384 909.85 514.376C909.85 515.384 910.05 516.264 910.45 517.016C910.85 517.752 911.386 518.32 912.058 518.72C912.73 519.104 913.474 519.296 914.29 519.296C915.106 519.296 915.85 519.104 916.522 518.72C917.21 518.32 917.754 517.752 918.154 517.016C918.554 516.264 918.754 515.392 918.754 514.4Z" fill="white"/>
<path d="M835.75 591L831.766 584.16H829.126V591H826.942V574.272H832.342C833.606 574.272 834.67 574.488 835.534 574.92C836.414 575.352 837.07 575.936 837.502 576.672C837.934 577.408 838.15 578.248 838.15 579.192C838.15 580.344 837.814 581.36 837.142 582.24C836.486 583.12 835.494 583.704 834.166 583.992L838.366 591H835.75ZM829.126 582.408H832.342C833.526 582.408 834.414 582.12 835.006 581.544C835.598 580.952 835.894 580.168 835.894 579.192C835.894 578.2 835.598 577.432 835.006 576.888C834.43 576.344 833.542 576.072 832.342 576.072H829.126V582.408ZM853.543 583.92C853.543 584.336 853.519 584.776 853.471 585.24H842.959C843.039 586.536 843.479 587.552 844.279 588.288C845.095 589.008 846.079 589.368 847.231 589.368C848.175 589.368 848.959 589.152 849.583 588.72C850.223 588.272 850.671 587.68 850.927 586.944H853.279C852.927 588.208 852.223 589.24 851.167 590.04C850.111 590.824 848.799 591.216 847.231 591.216C845.983 591.216 844.863 590.936 843.871 590.376C842.895 589.816 842.127 589.024 841.567 588C841.007 586.96 840.727 585.76 840.727 584.4C840.727 583.04 840.999 581.848 841.543 580.824C842.087 579.8 842.847 579.016 843.823 578.472C844.815 577.912 845.951 577.632 847.231 577.632C848.479 577.632 849.583 577.904 850.543 578.448C851.503 578.992 852.239 579.744 852.751 580.704C853.279 581.648 853.543 582.72 853.543 583.92ZM851.287 583.464C851.287 582.632 851.103 581.92 850.735 581.328C850.367 580.72 849.863 580.264 849.223 579.96C848.599 579.64 847.903 579.48 847.135 579.48C846.031 579.48 845.087 579.832 844.303 580.536C843.535 581.24 843.095 582.216 842.983 583.464H851.287ZM855.61 584.4C855.61 583.04 855.882 581.856 856.426 580.848C856.97 579.824 857.722 579.032 858.682 578.472C859.658 577.912 860.77 577.632 862.018 577.632C863.634 577.632 864.962 578.024 866.002 578.808C867.058 579.592 867.754 580.68 868.09 582.072H865.738C865.514 581.272 865.074 580.64 864.418 580.176C863.778 579.712 862.978 579.48 862.018 579.48C860.77 579.48 859.762 579.912 858.994 580.776C858.226 581.624 857.842 582.832 857.842 584.4C857.842 585.984 858.226 587.208 858.994 588.072C859.762 588.936 860.77 589.368 862.018 589.368C862.978 589.368 863.778 589.144 864.418 588.696C865.058 588.248 865.498 587.608 865.738 586.776H868.09C867.738 588.12 867.034 589.2 865.978 590.016C864.922 590.816 863.602 591.216 862.018 591.216C860.77 591.216 859.658 590.936 858.682 590.376C857.722 589.816 856.97 589.024 856.426 588C855.882 586.976 855.61 585.776 855.61 584.4ZM883.004 583.92C883.004 584.336 882.98 584.776 882.932 585.24H872.42C872.5 586.536 872.94 587.552 873.74 588.288C874.556 589.008 875.54 589.368 876.692 589.368C877.636 589.368 878.42 589.152 879.044 588.72C879.684 588.272 880.132 587.68 880.388 586.944H882.74C882.388 588.208 881.684 589.24 880.628 590.04C879.572 590.824 878.26 591.216 876.692 591.216C875.444 591.216 874.324 590.936 873.332 590.376C872.356 589.816 871.588 589.024 871.028 588C870.468 586.96 870.188 585.76 870.188 584.4C870.188 583.04 870.46 581.848 871.004 580.824C871.548 579.8 872.308 579.016 873.284 578.472C874.276 577.912 875.412 577.632 876.692 577.632C877.94 577.632 879.044 577.904 880.004 578.448C880.964 578.992 881.7 579.744 882.212 580.704C882.74 581.648 883.004 582.72 883.004 583.92ZM880.748 583.464C880.748 582.632 880.564 581.92 880.196 581.328C879.828 580.72 879.324 580.264 878.684 579.96C878.06 579.64 877.364 579.48 876.596 579.48C875.492 579.48 874.548 579.832 873.764 580.536C872.996 581.24 872.556 582.216 872.444 583.464H880.748ZM887.015 575.712C886.599 575.712 886.247 575.568 885.959 575.28C885.671 574.992 885.527 574.64 885.527 574.224C885.527 573.808 885.671 573.456 885.959 573.168C886.247 572.88 886.599 572.736 887.015 572.736C887.415 572.736 887.751 572.88 888.023 573.168C888.311 573.456 888.455 573.808 888.455 574.224C888.455 574.64 888.311 574.992 888.023 575.28C887.751 575.568 887.415 575.712 887.015 575.712ZM888.071 577.848V591H885.887V577.848H888.071ZM894.457 579.648V587.4C894.457 588.04 894.593 588.496 894.865 588.768C895.137 589.024 895.609 589.152 896.281 589.152H897.889V591H895.921C894.705 591 893.793 590.72 893.185 590.16C892.577 589.6 892.273 588.68 892.273 587.4V579.648H890.569V577.848H892.273V574.536H894.457V577.848H897.889V579.648H894.457ZM899.72 584.376C899.72 583.032 899.992 581.856 900.536 580.848C901.08 579.824 901.824 579.032 902.768 578.472C903.728 577.912 904.792 577.632 905.96 577.632C907.112 577.632 908.112 577.88 908.96 578.376C909.808 578.872 910.44 579.496 910.856 580.248V577.848H913.064V591H910.856V588.552C910.424 589.32 909.776 589.96 908.912 590.472C908.064 590.968 907.072 591.216 905.936 591.216C904.768 591.216 903.712 590.928 902.768 590.352C901.824 589.776 901.08 588.968 900.536 587.928C899.992 586.888 899.72 585.704 899.72 584.376ZM910.856 584.4C910.856 583.408 910.656 582.544 910.256 581.808C909.856 581.072 909.312 580.512 908.624 580.128C907.952 579.728 907.208 579.528 906.392 579.528C905.576 579.528 904.832 579.72 904.16 580.104C903.488 580.488 902.952 581.048 902.552 581.784C902.152 582.52 901.952 583.384 901.952 584.376C901.952 585.384 902.152 586.264 902.552 587.016C902.952 587.752 903.488 588.32 904.16 588.72C904.832 589.104 905.576 589.296 906.392 589.296C907.208 589.296 907.952 589.104 908.624 588.72C909.312 588.32 909.856 587.752 910.256 587.016C910.656 586.264 910.856 585.392 910.856 584.4Z" fill="white"/>
</svg>
