<svg width="864" height="398" viewBox="0 0 864 398" fill="none" xmlns="http://www.w3.org/2000/svg">
<path d="M467.88 348.542L483.99 295.002C480.46 297.052 476.82 298.912 473.08 300.562C450.87 310.382 425.31 313.032 399.98 306.432C355.27 294.782 324 257.552 317.78 214.522L279.01 188.482L230.91 222.472C231.51 227.452 232.3 232.392 233.28 237.282C247.68 309.552 301.91 370.922 378 390.762C434.28 405.432 491.22 394.432 536.42 365.032L467.88 348.542Z" fill="#000909"/>
<path d="M528.33 38.5325L539.43 34.1625C521.23 21.8425 500.66 12.3425 478.17 6.47253C372.05 -21.1975 263.6 42.4025 235.94 148.513C229.76 172.233 228.15 196.053 230.53 219.073L276.54 174.663L316.8 204.763C316.18 193.513 317.26 181.973 320.26 170.493C335.78 110.943 396.64 75.2625 456.19 90.7825C471.88 94.8725 485.92 102.113 497.8 111.653L543.62 99.2825L528.33 38.5325Z" fill="#65978A"/>
<path d="M539.431 34.1523L528.331 38.5223L543.631 99.2823L497.811 111.652C531.001 138.292 547.351 182.852 535.921 226.712C528.111 256.662 508.831 280.582 484.011 294.982L471.371 337.202L544.441 359.532C580.541 333.462 608.131 295.152 620.241 248.702C642.041 165.072 607.141 80.0023 539.431 34.1523Z" fill="#081F1C"/>
<path d="M274.42 88.5918H6" stroke="#65978A" stroke-width="2" stroke-miterlimit="10"/>
<path d="M667.37 148.242V150.762H657.53V148.002C657.53 147.272 657.64 146.642 657.86 146.122C658.08 145.602 658.39 145.162 658.8 144.802C659.21 144.442 659.7 144.142 660.27 143.912C660.84 143.682 661.49 143.482 662.21 143.322C662.74 143.202 663.18 143.062 663.52 142.912C663.86 142.762 664.13 142.582 664.33 142.392C664.53 142.202 664.67 141.982 664.74 141.752C664.81 141.522 664.85 141.252 664.85 140.962C664.85 140.402 664.65 139.932 664.24 139.562C663.83 139.192 663.27 139.002 662.55 139.002C661.79 139.002 661.18 139.232 660.73 139.692C660.28 140.152 660.05 140.792 660.05 141.602V142.482H657.41V141.362C657.41 140.712 657.53 140.082 657.76 139.492C657.99 138.902 658.33 138.382 658.76 137.932C659.19 137.482 659.72 137.132 660.35 136.872C660.98 136.612 661.68 136.482 662.47 136.482C663.31 136.482 664.04 136.602 664.67 136.852C665.3 137.102 665.82 137.422 666.24 137.822C666.66 138.222 666.97 138.682 667.18 139.212C667.39 139.742 667.49 140.282 667.49 140.842V141.082C667.49 142.252 667.16 143.232 666.5 144.002C665.84 144.772 664.76 145.332 663.27 145.682C662.64 145.832 662.13 145.982 661.72 146.132C661.31 146.282 661 146.452 660.77 146.642C660.54 146.832 660.39 147.032 660.3 147.252C660.21 147.472 660.17 147.722 660.17 148.002V148.242H667.37Z" fill="#020202"/>
<path d="M676.491 149.142C676.491 149.412 676.441 149.662 676.341 149.892C676.241 150.122 676.101 150.322 675.931 150.492C675.761 150.662 675.551 150.792 675.321 150.892C675.091 150.992 674.841 151.042 674.591 151.042C674.321 151.042 674.081 150.992 673.851 150.892C673.621 150.792 673.421 150.662 673.251 150.492C673.081 150.322 672.941 150.122 672.841 149.892C672.741 149.662 672.691 149.412 672.691 149.142C672.691 148.872 672.741 148.622 672.841 148.392C672.941 148.162 673.081 147.962 673.251 147.792C673.421 147.622 673.621 147.492 673.851 147.392C674.081 147.292 674.321 147.242 674.591 147.242C674.841 147.242 675.091 147.292 675.321 147.392C675.551 147.492 675.761 147.622 675.931 147.792C676.101 147.962 676.241 148.162 676.341 148.392C676.441 148.622 676.491 148.882 676.491 149.142Z" fill="#020202"/>
<path d="M612.23 220.141H842.81H612.23Z" fill="#081F1C"/>
<path d="M612.23 220.141H842.81" stroke="#081F1C" stroke-width="2" stroke-miterlimit="10"/>
<path d="M842.809 214.641C845.843 214.641 848.309 217.103 848.309 220.141C848.309 223.178 845.843 225.641 842.809 225.641C839.775 225.641 837.309 223.178 837.309 220.141C837.309 217.103 839.775 214.641 842.809 214.641Z" fill="#081F1C" stroke="#081F1C"/>
<path d="M5.27812 38.771V28.611H4.91812L3.59813 33.411H1.07812V33.171L2.75812 27.291H7.91812V38.771H11.3981V41.291H1.31813V38.771H5.27812Z" fill="#020202"/>
<path d="M20.2609 39.6715C20.2609 39.9415 20.2109 40.1915 20.1109 40.4215C20.0109 40.6515 19.8709 40.8515 19.7009 41.0215C19.5309 41.1915 19.3209 41.3215 19.0909 41.4215C18.8609 41.5215 18.6109 41.5715 18.3609 41.5715C18.0909 41.5715 17.8509 41.5215 17.6209 41.4215C17.3909 41.3215 17.1909 41.1915 17.0209 41.0215C16.8509 40.8515 16.7109 40.6515 16.6109 40.4215C16.5109 40.1915 16.4609 39.9415 16.4609 39.6715C16.4609 39.4015 16.5109 39.1515 16.6109 38.9215C16.7109 38.6915 16.8509 38.4915 17.0209 38.3215C17.1909 38.1515 17.3909 38.0215 17.6209 37.9215C17.8509 37.8215 18.0909 37.7715 18.3609 37.7715C18.6109 37.7715 18.8609 37.8215 19.0909 37.9215C19.3209 38.0215 19.5309 38.1515 19.7009 38.3215C19.8709 38.4915 20.0109 38.6915 20.1109 38.9215C20.2109 39.1515 20.2609 39.4015 20.2609 39.6715Z" fill="#020202"/>
<path d="M4.76015 297.043V292.883L8.24016 291.923V291.563H1.28015V289.043H10.4001V293.443L6.68015 294.523V294.883H7.16016C7.65016 294.883 8.14015 294.963 8.62015 295.113C9.10015 295.263 9.52015 295.503 9.89015 295.823C10.2602 296.143 10.5502 296.543 10.7802 297.013C11.0102 297.483 11.1201 298.043 11.1201 298.683V298.923C11.1201 299.553 11.0202 300.133 10.8102 300.663C10.6002 301.193 10.3002 301.663 9.89015 302.053C9.48015 302.443 8.98016 302.753 8.38016 302.983C7.78016 303.213 7.09016 303.323 6.32016 303.323C5.53016 303.323 4.82015 303.193 4.18015 302.943C3.54015 302.693 3.00016 302.343 2.55016 301.903C2.10016 301.463 1.76016 300.953 1.52016 300.383C1.28016 299.813 1.16016 299.203 1.16016 298.563V297.723H3.80016V298.443C3.80016 299.083 4.01015 299.633 4.42015 300.103C4.83015 300.573 5.45015 300.803 6.28015 300.803C6.99015 300.803 7.53016 300.623 7.91016 300.263C8.29016 299.903 8.48015 299.433 8.48015 298.843C8.48015 298.213 8.28015 297.763 7.87015 297.473C7.46015 297.183 6.95016 297.043 6.32016 297.043H4.76015Z" fill="#020202"/>
<path d="M20.2609 301.423C20.2609 301.693 20.2109 301.943 20.1109 302.173C20.0109 302.403 19.8709 302.603 19.7009 302.773C19.5309 302.943 19.3209 303.073 19.0909 303.173C18.8609 303.273 18.6109 303.323 18.3609 303.323C18.0909 303.323 17.8509 303.273 17.6209 303.173C17.3909 303.073 17.1909 302.943 17.0209 302.773C16.8509 302.603 16.7109 302.403 16.6109 302.173C16.5109 301.943 16.4609 301.693 16.4609 301.423C16.4609 301.153 16.5109 300.903 16.6109 300.673C16.7109 300.443 16.8509 300.243 17.0209 300.073C17.1909 299.903 17.3909 299.773 17.6209 299.673C17.8509 299.573 18.0909 299.523 18.3609 299.523C18.6109 299.523 18.8609 299.573 19.0909 299.673C19.3209 299.773 19.5309 299.903 19.7009 300.073C19.8709 300.243 20.0109 300.443 20.1109 300.673C20.2109 300.903 20.2609 301.153 20.2609 301.423Z" fill="#020202"/>
<path d="M339.116 325.231V313.55L348.883 310.853V309.841H329.34V302.762H354.949V315.115L344.501 318.144V319.157H345.846C347.232 319.157 348.594 319.369 349.946 319.803C351.291 320.237 352.482 320.901 353.511 321.794C354.541 322.696 355.375 323.811 356.013 325.138C356.651 326.465 356.965 328.03 356.965 329.826V330.498C356.965 332.259 356.676 333.884 356.098 335.381C355.519 336.879 354.66 338.18 353.511 339.286C352.371 340.392 350.959 341.26 349.274 341.898C347.59 342.536 345.658 342.851 343.489 342.851C341.277 342.851 339.278 342.494 337.482 341.788C335.687 341.082 334.156 340.103 332.905 338.87C331.654 337.636 330.685 336.215 330.012 334.599C329.34 332.991 329 331.289 329 329.485V327.129H336.41V329.154C336.41 330.949 336.989 332.506 338.155 333.816C339.312 335.126 341.056 335.781 343.378 335.781C345.361 335.781 346.884 335.279 347.956 334.267C349.019 333.254 349.555 331.927 349.555 330.277C349.555 328.515 348.985 327.239 347.845 326.431C346.705 325.623 345.25 325.223 343.497 325.223H339.116V325.231Z" fill="white"/>
<path d="M592.974 220.798V227.877H565.349V220.126C565.349 218.067 565.655 216.306 566.276 214.851C566.897 213.396 567.774 212.154 568.914 211.142C570.054 210.129 571.432 209.295 573.04 208.64C574.648 207.985 576.469 207.432 578.485 206.981C579.982 206.641 581.208 206.258 582.16 205.833C583.113 205.407 583.871 204.914 584.432 204.369C584.994 203.825 585.376 203.229 585.581 202.574C585.785 201.919 585.887 201.179 585.887 200.354C585.887 198.78 585.317 197.47 584.177 196.423C583.037 195.377 581.454 194.849 579.429 194.849C577.294 194.849 575.592 195.496 574.316 196.789C573.04 198.082 572.41 199.869 572.41 202.149V204.616H565V201.468C565 199.631 565.323 197.886 565.978 196.219C566.634 194.551 567.569 193.096 568.786 191.837C570.003 190.587 571.492 189.591 573.253 188.86C575.014 188.128 576.996 187.762 579.208 187.762C581.565 187.762 583.624 188.111 585.385 188.8C587.146 189.489 588.609 190.399 589.792 191.522C590.975 192.646 591.851 193.947 592.429 195.428C593.008 196.908 593.297 198.431 593.297 200.005V200.677C593.297 203.97 592.37 206.701 590.515 208.87C588.66 211.04 585.64 212.614 581.446 213.584C579.685 213.992 578.238 214.417 577.09 214.843C575.95 215.277 575.056 215.753 574.427 216.272C573.789 216.799 573.346 217.37 573.108 217.982C572.861 218.603 572.742 219.301 572.742 220.084V220.756H592.974V220.798Z" fill="white"/>
<path d="M360.8 70.9897V42.4627H359.788L356.079 55.9387H349V55.2667L353.713 38.7617H368.202V70.9897H377.969V78.0687H349.672V70.9897H360.8Z" fill="white"/>
<path d="M6 83.0918C9.03786 83.0918 11.5 85.5539 11.5 88.5918C11.5 91.6296 9.03785 94.0918 6 94.0918C2.96215 94.0918 0.500008 91.6296 0.5 88.5918C0.5 85.5539 2.96214 83.0918 6 83.0918Z" fill="#65978A" stroke="#65978A"/>
<path d="M314.8 348.543H6H314.8Z" fill="#000909"/>
<path d="M314.8 348.543H6" stroke="#000909" stroke-width="2" stroke-miterlimit="10"/>
<path d="M6 343.043C9.03786 343.043 11.5 345.505 11.5 348.543C11.5 351.581 9.03786 354.043 6 354.043C2.96214 354.043 0.5 351.581 0.5 348.543C0.5 345.505 2.96214 343.043 6 343.043Z" fill="#000909" stroke="#000909"/>
<path d="M328.51 248.652L276.29 195.762L233.28 237.282C230.85 224.962 229.56 212.232 229.52 199.212L276.8 153.572L316.76 194.052C316.69 195.562 316.66 197.082 316.66 198.612C316.66 210.002 318.37 221.002 321.55 231.352C323.39 237.352 325.73 243.132 328.51 248.652Z" fill="#F7F8FB" stroke="#F7F8FB" stroke-width="2" stroke-miterlimit="10"/>
<path d="M556.251 350.29C548.711 356.67 540.691 362.5 532.241 367.71C528.961 369.73 525.611 371.67 522.211 373.5L449.621 357.48L465.831 303.48C480.231 298.3 493.251 290.24 504.201 279.98L487.641 335.15L556.251 350.29Z" fill="#F7F8FB" stroke="#F7F8FB" stroke-width="2" stroke-miterlimit="10"/>
<path d="M561.09 111.342L508.1 121.072C498.33 110.972 486.65 102.722 473.66 96.8921L526.17 87.2521L513.71 19.4121C525.9 25.2421 537.4 32.2821 548.06 40.3821L561.09 111.342Z" fill="#F7F8FB" stroke="#F7F8FB" stroke-width="2" stroke-miterlimit="10"/>
<path d="M30.489 32.624C30.489 30.992 30.857 29.528 31.593 28.232C32.329 26.92 33.329 25.896 34.593 25.16C35.873 24.424 37.289 24.056 38.841 24.056C40.665 24.056 42.257 24.496 43.617 25.376C44.977 26.256 45.969 27.504 46.593 29.12H43.977C43.513 28.112 42.841 27.336 41.961 26.792C41.097 26.248 40.057 25.976 38.841 25.976C37.673 25.976 36.625 26.248 35.697 26.792C34.769 27.336 34.041 28.112 33.513 29.12C32.985 30.112 32.721 31.28 32.721 32.624C32.721 33.952 32.985 35.12 33.513 36.128C34.041 37.12 34.769 37.888 35.697 38.432C36.625 38.976 37.673 39.248 38.841 39.248C40.057 39.248 41.097 38.984 41.961 38.456C42.841 37.912 43.513 37.136 43.977 36.128H46.593C45.969 37.728 44.977 38.968 43.617 39.848C42.257 40.712 40.665 41.144 38.841 41.144C37.289 41.144 35.873 40.784 34.593 40.064C33.329 39.328 32.329 38.312 31.593 37.016C30.857 35.72 30.489 34.256 30.489 32.624ZM55.5801 41.216C54.3481 41.216 53.2281 40.936 52.2201 40.376C51.2281 39.816 50.4441 39.024 49.8681 38C49.3081 36.96 49.0281 35.76 49.0281 34.4C49.0281 33.056 49.3161 31.872 49.8921 30.848C50.4841 29.808 51.2841 29.016 52.2921 28.472C53.3001 27.912 54.4281 27.632 55.6761 27.632C56.9241 27.632 58.0521 27.912 59.0601 28.472C60.0681 29.016 60.8601 29.8 61.4361 30.824C62.0281 31.848 62.3241 33.04 62.3241 34.4C62.3241 35.76 62.0201 36.96 61.4121 38C60.8201 39.024 60.0121 39.816 58.9881 40.376C57.9641 40.936 56.8281 41.216 55.5801 41.216ZM55.5801 39.296C56.3641 39.296 57.1001 39.112 57.7881 38.744C58.4761 38.376 59.0281 37.824 59.4441 37.088C59.8761 36.352 60.0921 35.456 60.0921 34.4C60.0921 33.344 59.8841 32.448 59.4681 31.712C59.0521 30.976 58.5081 30.432 57.8361 30.08C57.1641 29.712 56.4361 29.528 55.6521 29.528C54.8521 29.528 54.1161 29.712 53.4441 30.08C52.7881 30.432 52.2601 30.976 51.8601 31.712C51.4601 32.448 51.2601 33.344 51.2601 34.4C51.2601 35.472 51.4521 36.376 51.8361 37.112C52.2361 37.848 52.7641 38.4 53.4201 38.768C54.0761 39.12 54.7961 39.296 55.5801 39.296ZM67.3797 23.24V41H65.1957V23.24H67.3797ZM83.1019 33.92C83.1019 34.336 83.0779 34.776 83.0299 35.24H72.5179C72.5979 36.536 73.0379 37.552 73.8379 38.288C74.6539 39.008 75.6379 39.368 76.7899 39.368C77.7339 39.368 78.5179 39.152 79.1419 38.72C79.7819 38.272 80.2299 37.68 80.4859 36.944H82.8379C82.4859 38.208 81.7819 39.24 80.7259 40.04C79.6699 40.824 78.3579 41.216 76.7899 41.216C75.5419 41.216 74.4219 40.936 73.4299 40.376C72.4539 39.816 71.6859 39.024 71.1259 38C70.5659 36.96 70.2859 35.76 70.2859 34.4C70.2859 33.04 70.5579 31.848 71.1019 30.824C71.6459 29.8 72.4059 29.016 73.3819 28.472C74.3739 27.912 75.5099 27.632 76.7899 27.632C78.0379 27.632 79.1419 27.904 80.1019 28.448C81.0619 28.992 81.7979 29.744 82.3099 30.704C82.8379 31.648 83.1019 32.72 83.1019 33.92ZM80.8459 33.464C80.8459 32.632 80.6619 31.92 80.2939 31.328C79.9259 30.72 79.4219 30.264 78.7819 29.96C78.1579 29.64 77.4619 29.48 76.6939 29.48C75.5899 29.48 74.6459 29.832 73.8619 30.536C73.0939 31.24 72.6539 32.216 72.5419 33.464H80.8459ZM88.6487 29.648V37.4C88.6487 38.04 88.7847 38.496 89.0567 38.768C89.3287 39.024 89.8007 39.152 90.4727 39.152H92.0807V41H90.1127C88.8967 41 87.9847 40.72 87.3767 40.16C86.7687 39.6 86.4647 38.68 86.4647 37.4V29.648H84.7607V27.848H86.4647V24.536H88.6487V27.848H92.0807V29.648H88.6487ZM93.9109 34.376C93.9109 33.032 94.1829 31.856 94.7269 30.848C95.2709 29.824 96.0149 29.032 96.9589 28.472C97.9189 27.912 98.9829 27.632 100.151 27.632C101.303 27.632 102.303 27.88 103.151 28.376C103.999 28.872 104.631 29.496 105.047 30.248V27.848H107.255V41H105.047V38.552C104.615 39.32 103.967 39.96 103.103 40.472C102.255 40.968 101.263 41.216 100.127 41.216C98.9589 41.216 97.9029 40.928 96.9589 40.352C96.0149 39.776 95.2709 38.968 94.7269 37.928C94.1829 36.888 93.9109 35.704 93.9109 34.376ZM105.047 34.4C105.047 33.408 104.847 32.544 104.447 31.808C104.047 31.072 103.503 30.512 102.815 30.128C102.143 29.728 101.399 29.528 100.583 29.528C99.7669 29.528 99.0229 29.72 98.3509 30.104C97.6789 30.488 97.1429 31.048 96.7429 31.784C96.3429 32.52 96.1429 33.384 96.1429 34.376C96.1429 35.384 96.3429 36.264 96.7429 37.016C97.1429 37.752 97.6789 38.32 98.3509 38.72C99.0229 39.104 99.7669 39.296 100.583 39.296C101.399 39.296 102.143 39.104 102.815 38.72C103.503 38.32 104.047 37.752 104.447 37.016C104.847 36.264 105.047 35.392 105.047 34.4ZM116.528 34.376C116.528 33.032 116.8 31.856 117.344 30.848C117.888 29.824 118.632 29.032 119.576 28.472C120.536 27.912 121.608 27.632 122.792 27.632C123.816 27.632 124.768 27.872 125.648 28.352C126.528 28.816 127.2 29.432 127.664 30.2V23.24H129.872V41H127.664V38.528C127.232 39.312 126.592 39.96 125.744 40.472C124.896 40.968 123.904 41.216 122.768 41.216C121.6 41.216 120.536 40.928 119.576 40.352C118.632 39.776 117.888 38.968 117.344 37.928C116.8 36.888 116.528 35.704 116.528 34.376ZM127.664 34.4C127.664 33.408 127.464 32.544 127.064 31.808C126.664 31.072 126.12 30.512 125.432 30.128C124.76 29.728 124.016 29.528 123.2 29.528C122.384 29.528 121.64 29.72 120.968 30.104C120.296 30.488 119.76 31.048 119.36 31.784C118.96 32.52 118.76 33.384 118.76 34.376C118.76 35.384 118.96 36.264 119.36 37.016C119.76 37.752 120.296 38.32 120.968 38.72C121.64 39.104 122.384 39.296 123.2 39.296C124.016 39.296 124.76 39.104 125.432 38.72C126.12 38.32 126.664 37.752 127.064 37.016C127.464 36.264 127.664 35.392 127.664 34.4ZM145.563 33.92C145.563 34.336 145.539 34.776 145.491 35.24H134.979C135.059 36.536 135.499 37.552 136.299 38.288C137.115 39.008 138.099 39.368 139.251 39.368C140.195 39.368 140.979 39.152 141.603 38.72C142.243 38.272 142.691 37.68 142.947 36.944H145.299C144.947 38.208 144.243 39.24 143.187 40.04C142.131 40.824 140.819 41.216 139.251 41.216C138.003 41.216 136.883 40.936 135.891 40.376C134.915 39.816 134.147 39.024 133.587 38C133.027 36.96 132.747 35.76 132.747 34.4C132.747 33.04 133.019 31.848 133.563 30.824C134.107 29.8 134.867 29.016 135.843 28.472C136.835 27.912 137.971 27.632 139.251 27.632C140.499 27.632 141.603 27.904 142.563 28.448C143.523 28.992 144.259 29.744 144.771 30.704C145.299 31.648 145.563 32.72 145.563 33.92ZM143.307 33.464C143.307 32.632 143.123 31.92 142.755 31.328C142.387 30.72 141.883 30.264 141.243 29.96C140.619 29.64 139.923 29.48 139.155 29.48C138.051 29.48 137.107 29.832 136.323 30.536C135.555 31.24 135.115 32.216 135.003 33.464H143.307ZM154.028 34.376C154.028 33.032 154.3 31.856 154.844 30.848C155.388 29.824 156.132 29.032 157.076 28.472C158.036 27.912 159.108 27.632 160.292 27.632C161.316 27.632 162.268 27.872 163.148 28.352C164.028 28.816 164.7 29.432 165.164 30.2V23.24H167.372V41H165.164V38.528C164.732 39.312 164.092 39.96 163.244 40.472C162.396 40.968 161.404 41.216 160.268 41.216C159.1 41.216 158.036 40.928 157.076 40.352C156.132 39.776 155.388 38.968 154.844 37.928C154.3 36.888 154.028 35.704 154.028 34.376ZM165.164 34.4C165.164 33.408 164.964 32.544 164.564 31.808C164.164 31.072 163.62 30.512 162.932 30.128C162.26 29.728 161.516 29.528 160.7 29.528C159.884 29.528 159.14 29.72 158.468 30.104C157.796 30.488 157.26 31.048 156.86 31.784C156.46 32.52 156.26 33.384 156.26 34.376C156.26 35.384 156.46 36.264 156.86 37.016C157.26 37.752 157.796 38.32 158.468 38.72C159.14 39.104 159.884 39.296 160.7 39.296C161.516 39.296 162.26 39.104 162.932 38.72C163.62 38.32 164.164 37.752 164.564 37.016C164.964 36.264 165.164 35.392 165.164 34.4ZM170.247 34.376C170.247 33.032 170.519 31.856 171.063 30.848C171.607 29.824 172.351 29.032 173.295 28.472C174.255 27.912 175.319 27.632 176.487 27.632C177.639 27.632 178.639 27.88 179.487 28.376C180.335 28.872 180.967 29.496 181.383 30.248V27.848H183.591V41H181.383V38.552C180.951 39.32 180.303 39.96 179.439 40.472C178.591 40.968 177.599 41.216 176.463 41.216C175.295 41.216 174.239 40.928 173.295 40.352C172.351 39.776 171.607 38.968 171.063 37.928C170.519 36.888 170.247 35.704 170.247 34.376ZM181.383 34.4C181.383 33.408 181.183 32.544 180.783 31.808C180.383 31.072 179.839 30.512 179.151 30.128C178.479 29.728 177.735 29.528 176.919 29.528C176.103 29.528 175.359 29.72 174.687 30.104C174.015 30.488 173.479 31.048 173.079 31.784C172.679 32.52 172.479 33.384 172.479 34.376C172.479 35.384 172.679 36.264 173.079 37.016C173.479 37.752 174.015 38.32 174.687 38.72C175.359 39.104 176.103 39.296 176.919 39.296C177.735 39.296 178.479 39.104 179.151 38.72C179.839 38.32 180.383 37.752 180.783 37.016C181.183 36.264 181.383 35.392 181.383 34.4ZM186.466 34.376C186.466 33.032 186.738 31.856 187.282 30.848C187.826 29.824 188.57 29.032 189.514 28.472C190.474 27.912 191.546 27.632 192.73 27.632C193.754 27.632 194.706 27.872 195.586 28.352C196.466 28.816 197.138 29.432 197.602 30.2V23.24H199.81V41H197.602V38.528C197.17 39.312 196.53 39.96 195.682 40.472C194.834 40.968 193.842 41.216 192.706 41.216C191.538 41.216 190.474 40.928 189.514 40.352C188.57 39.776 187.826 38.968 187.282 37.928C186.738 36.888 186.466 35.704 186.466 34.376ZM197.602 34.4C197.602 33.408 197.402 32.544 197.002 31.808C196.602 31.072 196.058 30.512 195.37 30.128C194.698 29.728 193.954 29.528 193.138 29.528C192.322 29.528 191.578 29.72 190.906 30.104C190.234 30.488 189.698 31.048 189.298 31.784C188.898 32.52 188.698 33.384 188.698 34.376C188.698 35.384 188.898 36.264 189.298 37.016C189.698 37.752 190.234 38.32 190.906 38.72C191.578 39.104 192.322 39.296 193.138 39.296C193.954 39.296 194.698 39.104 195.37 38.72C196.058 38.32 196.602 37.752 197.002 37.016C197.402 36.264 197.602 35.392 197.602 34.4ZM209.236 41.216C208.004 41.216 206.884 40.936 205.876 40.376C204.884 39.816 204.1 39.024 203.524 38C202.964 36.96 202.684 35.76 202.684 34.4C202.684 33.056 202.972 31.872 203.548 30.848C204.14 29.808 204.94 29.016 205.948 28.472C206.956 27.912 208.084 27.632 209.332 27.632C210.58 27.632 211.708 27.912 212.716 28.472C213.724 29.016 214.516 29.8 215.092 30.824C215.684 31.848 215.98 33.04 215.98 34.4C215.98 35.76 215.676 36.96 215.068 38C214.476 39.024 213.668 39.816 212.644 40.376C211.62 40.936 210.484 41.216 209.236 41.216ZM209.236 39.296C210.02 39.296 210.756 39.112 211.444 38.744C212.132 38.376 212.684 37.824 213.1 37.088C213.532 36.352 213.748 35.456 213.748 34.4C213.748 33.344 213.54 32.448 213.124 31.712C212.708 30.976 212.164 30.432 211.492 30.08C210.82 29.712 210.092 29.528 209.308 29.528C208.508 29.528 207.772 29.712 207.1 30.08C206.444 30.432 205.916 30.976 205.516 31.712C205.116 32.448 204.916 33.344 204.916 34.4C204.916 35.472 205.108 36.376 205.492 37.112C205.892 37.848 206.42 38.4 207.076 38.768C207.732 39.12 208.452 39.296 209.236 39.296ZM223.508 41.216C222.5 41.216 221.596 41.048 220.796 40.712C219.996 40.36 219.364 39.88 218.9 39.272C218.436 38.648 218.18 37.936 218.132 37.136H220.388C220.452 37.792 220.756 38.328 221.3 38.744C221.86 39.16 222.588 39.368 223.484 39.368C224.316 39.368 224.972 39.184 225.452 38.816C225.932 38.448 226.172 37.984 226.172 37.424C226.172 36.848 225.916 36.424 225.404 36.152C224.892 35.864 224.1 35.584 223.028 35.312C222.052 35.056 221.252 34.8 220.628 34.544C220.02 34.272 219.492 33.88 219.044 33.368C218.612 32.84 218.396 32.152 218.396 31.304C218.396 30.632 218.596 30.016 218.996 29.456C219.396 28.896 219.964 28.456 220.7 28.136C221.436 27.8 222.276 27.632 223.22 27.632C224.676 27.632 225.852 28 226.748 28.736C227.644 29.472 228.124 30.48 228.188 31.76H226.004C225.956 31.072 225.676 30.52 225.164 30.104C224.668 29.688 223.996 29.48 223.148 29.48C222.364 29.48 221.74 29.648 221.276 29.984C220.812 30.32 220.58 30.76 220.58 31.304C220.58 31.736 220.716 32.096 220.988 32.384C221.276 32.656 221.628 32.88 222.044 33.056C222.476 33.216 223.068 33.4 223.82 33.608C224.764 33.864 225.532 34.12 226.124 34.376C226.716 34.616 227.22 34.984 227.636 35.48C228.068 35.976 228.292 36.624 228.308 37.424C228.308 38.144 228.108 38.792 227.708 39.368C227.308 39.944 226.74 40.4 226.004 40.736C225.284 41.056 224.452 41.216 223.508 41.216Z" fill="black"/>
<path d="M691.032 109.624C691.032 107.992 691.4 106.528 692.136 105.232C692.872 103.92 693.872 102.896 695.136 102.16C696.416 101.424 697.832 101.056 699.384 101.056C701.208 101.056 702.8 101.496 704.16 102.376C705.52 103.256 706.512 104.504 707.136 106.12H704.52C704.056 105.112 703.384 104.336 702.504 103.792C701.64 103.248 700.6 102.976 699.384 102.976C698.216 102.976 697.168 103.248 696.24 103.792C695.312 104.336 694.584 105.112 694.056 106.12C693.528 107.112 693.264 108.28 693.264 109.624C693.264 110.952 693.528 112.12 694.056 113.128C694.584 114.12 695.312 114.888 696.24 115.432C697.168 115.976 698.216 116.248 699.384 116.248C700.6 116.248 701.64 115.984 702.504 115.456C703.384 114.912 704.056 114.136 704.52 113.128H707.136C706.512 114.728 705.52 115.968 704.16 116.848C702.8 117.712 701.208 118.144 699.384 118.144C697.832 118.144 696.416 117.784 695.136 117.064C693.872 116.328 692.872 115.312 692.136 114.016C691.4 112.72 691.032 111.256 691.032 109.624ZM716.123 118.216C714.891 118.216 713.771 117.936 712.763 117.376C711.771 116.816 710.987 116.024 710.411 115C709.851 113.96 709.571 112.76 709.571 111.4C709.571 110.056 709.859 108.872 710.435 107.848C711.027 106.808 711.827 106.016 712.835 105.472C713.843 104.912 714.971 104.632 716.219 104.632C717.467 104.632 718.595 104.912 719.603 105.472C720.611 106.016 721.403 106.8 721.979 107.824C722.571 108.848 722.867 110.04 722.867 111.4C722.867 112.76 722.563 113.96 721.955 115C721.363 116.024 720.555 116.816 719.531 117.376C718.507 117.936 717.371 118.216 716.123 118.216ZM716.123 116.296C716.907 116.296 717.643 116.112 718.331 115.744C719.019 115.376 719.571 114.824 719.987 114.088C720.419 113.352 720.635 112.456 720.635 111.4C720.635 110.344 720.427 109.448 720.011 108.712C719.595 107.976 719.051 107.432 718.379 107.08C717.707 106.712 716.979 106.528 716.195 106.528C715.395 106.528 714.659 106.712 713.987 107.08C713.331 107.432 712.803 107.976 712.403 108.712C712.003 109.448 711.803 110.344 711.803 111.4C711.803 112.472 711.995 113.376 712.379 114.112C712.779 114.848 713.307 115.4 713.963 115.768C714.619 116.12 715.339 116.296 716.123 116.296ZM732.147 104.608C733.747 104.608 735.043 105.096 736.035 106.072C737.027 107.032 737.523 108.424 737.523 110.248V118H735.363V110.56C735.363 109.248 735.035 108.248 734.379 107.56C733.723 106.856 732.827 106.504 731.691 106.504C730.539 106.504 729.619 106.864 728.931 107.584C728.259 108.304 727.923 109.352 727.923 110.728V118H725.739V104.848H727.923V106.72C728.355 106.048 728.939 105.528 729.675 105.16C730.427 104.792 731.251 104.608 732.147 104.608ZM745.746 118.216C744.738 118.216 743.834 118.048 743.034 117.712C742.234 117.36 741.602 116.88 741.138 116.272C740.674 115.648 740.418 114.936 740.37 114.136H742.626C742.69 114.792 742.994 115.328 743.538 115.744C744.098 116.16 744.826 116.368 745.722 116.368C746.554 116.368 747.21 116.184 747.69 115.816C748.17 115.448 748.41 114.984 748.41 114.424C748.41 113.848 748.154 113.424 747.642 113.152C747.13 112.864 746.338 112.584 745.266 112.312C744.29 112.056 743.49 111.8 742.866 111.544C742.258 111.272 741.73 110.88 741.282 110.368C740.85 109.84 740.634 109.152 740.634 108.304C740.634 107.632 740.834 107.016 741.234 106.456C741.634 105.896 742.202 105.456 742.938 105.136C743.674 104.8 744.514 104.632 745.458 104.632C746.914 104.632 748.09 105 748.986 105.736C749.882 106.472 750.362 107.48 750.426 108.76H748.242C748.194 108.072 747.914 107.52 747.402 107.104C746.906 106.688 746.234 106.48 745.386 106.48C744.602 106.48 743.978 106.648 743.514 106.984C743.05 107.32 742.818 107.76 742.818 108.304C742.818 108.736 742.954 109.096 743.226 109.384C743.514 109.656 743.866 109.88 744.282 110.056C744.714 110.216 745.306 110.4 746.058 110.608C747.002 110.864 747.77 111.12 748.362 111.376C748.954 111.616 749.458 111.984 749.874 112.48C750.306 112.976 750.53 113.624 750.546 114.424C750.546 115.144 750.346 115.792 749.946 116.368C749.546 116.944 748.978 117.4 748.242 117.736C747.522 118.056 746.69 118.216 745.746 118.216ZM756.293 106.648V114.4C756.293 115.04 756.429 115.496 756.701 115.768C756.973 116.024 757.445 116.152 758.117 116.152H759.725V118H757.757C756.541 118 755.629 117.72 755.021 117.16C754.413 116.6 754.109 115.68 754.109 114.4V106.648H752.405V104.848H754.109V101.536H756.293V104.848H759.725V106.648H756.293ZM764.555 106.984C764.939 106.232 765.483 105.648 766.187 105.232C766.907 104.816 767.779 104.608 768.803 104.608V106.864H768.227C765.779 106.864 764.555 108.192 764.555 110.848V118H762.371V104.848H764.555V106.984ZM782.989 104.848V118H780.805V116.056C780.389 116.728 779.805 117.256 779.053 117.64C778.317 118.008 777.501 118.192 776.605 118.192C775.581 118.192 774.661 117.984 773.845 117.568C773.029 117.136 772.381 116.496 771.901 115.648C771.437 114.8 771.205 113.768 771.205 112.552V104.848H773.365V112.264C773.365 113.56 773.693 114.56 774.349 115.264C775.005 115.952 775.901 116.296 777.037 116.296C778.205 116.296 779.125 115.936 779.797 115.216C780.469 114.496 780.805 113.448 780.805 112.072V104.848H782.989ZM792.268 116.368C793.228 116.368 794.028 116.144 794.668 115.696C795.308 115.248 795.748 114.608 795.988 113.776H798.34C798.02 115.024 797.388 116.048 796.444 116.848C795.516 117.632 794.348 118.08 792.94 118.192V119.392C793.884 119.376 794.636 119.576 795.196 119.992C795.756 120.408 796.036 121 796.036 121.768C796.036 122.52 795.764 123.12 795.22 123.568C794.676 124.016 793.972 124.24 793.108 124.24H790.348V122.824H792.676C793.204 122.824 793.588 122.744 793.828 122.584C794.084 122.424 794.212 122.152 794.212 121.768C794.212 121.4 794.084 121.136 793.828 120.976C793.588 120.816 793.204 120.736 792.676 120.736H791.476V118.168C790.372 118.056 789.396 117.712 788.548 117.136C787.7 116.544 787.036 115.76 786.556 114.784C786.092 113.792 785.86 112.664 785.86 111.4C785.86 110.04 786.132 108.856 786.676 107.848C787.22 106.824 787.972 106.032 788.932 105.472C789.908 104.912 791.02 104.632 792.268 104.632C793.884 104.632 795.212 105.024 796.252 105.808C797.308 106.592 798.004 107.68 798.34 109.072H795.988C795.764 108.272 795.324 107.64 794.668 107.176C794.028 106.712 793.228 106.48 792.268 106.48C791.02 106.48 790.012 106.912 789.244 107.776C788.476 108.624 788.092 109.832 788.092 111.4C788.092 112.984 788.476 114.208 789.244 115.072C790.012 115.936 791.02 116.368 792.268 116.368ZM800.438 111.376C800.438 110.032 800.71 108.856 801.254 107.848C801.798 106.824 802.542 106.032 803.486 105.472C804.446 104.912 805.51 104.632 806.678 104.632C807.83 104.632 808.83 104.88 809.678 105.376C810.526 105.872 811.158 106.496 811.574 107.248V104.848H813.782V118H811.574V115.552C811.142 116.32 810.494 116.96 809.63 117.472C808.782 117.968 807.79 118.216 806.654 118.216C805.486 118.216 804.43 117.928 803.486 117.352C802.542 116.776 801.798 115.968 801.254 114.928C800.71 113.888 800.438 112.704 800.438 111.376ZM811.574 111.4C811.574 110.408 811.374 109.544 810.974 108.808C810.574 108.072 810.03 107.512 809.342 107.128C808.67 106.728 807.926 106.528 807.11 106.528C806.294 106.528 805.55 106.72 804.878 107.104C804.206 107.488 803.67 108.048 803.27 108.784C802.87 109.52 802.67 110.384 802.67 111.376C802.67 112.384 802.87 113.264 803.27 114.016C803.67 114.752 804.206 115.32 804.878 115.72C805.55 116.104 806.294 116.296 807.11 116.296C807.926 116.296 808.67 116.104 809.342 115.72C810.03 115.32 810.574 114.752 810.974 114.016C811.374 113.264 811.574 112.392 811.574 111.4ZM804.014 103.432C804.126 102.616 804.39 101.992 804.806 101.56C805.238 101.128 805.774 100.912 806.414 100.912C806.718 100.912 806.974 100.968 807.182 101.08C807.406 101.176 807.67 101.32 807.974 101.512C808.198 101.672 808.398 101.8 808.574 101.896C808.75 101.976 808.942 102.016 809.15 102.016C809.422 102.016 809.654 101.928 809.846 101.752C810.038 101.576 810.158 101.32 810.206 100.984H811.454C811.358 101.784 811.094 102.4 810.662 102.832C810.23 103.264 809.694 103.48 809.054 103.48C808.75 103.48 808.478 103.432 808.238 103.336C808.014 103.224 807.758 103.064 807.47 102.856C807.214 102.696 807.006 102.576 806.846 102.496C806.702 102.416 806.526 102.376 806.318 102.376C806.046 102.376 805.814 102.464 805.622 102.64C805.446 102.816 805.334 103.08 805.286 103.432H804.014ZM823.209 118.216C821.977 118.216 820.857 117.936 819.849 117.376C818.857 116.816 818.073 116.024 817.497 115C816.937 113.96 816.657 112.76 816.657 111.4C816.657 110.056 816.945 108.872 817.521 107.848C818.113 106.808 818.913 106.016 819.921 105.472C820.929 104.912 822.057 104.632 823.305 104.632C824.553 104.632 825.681 104.912 826.689 105.472C827.697 106.016 828.489 106.8 829.065 107.824C829.657 108.848 829.953 110.04 829.953 111.4C829.953 112.76 829.649 113.96 829.041 115C828.449 116.024 827.641 116.816 826.617 117.376C825.593 117.936 824.457 118.216 823.209 118.216ZM823.209 116.296C823.993 116.296 824.729 116.112 825.417 115.744C826.105 115.376 826.657 114.824 827.073 114.088C827.505 113.352 827.721 112.456 827.721 111.4C827.721 110.344 827.513 109.448 827.097 108.712C826.681 107.976 826.137 107.432 825.465 107.08C824.793 106.712 824.065 106.528 823.281 106.528C822.481 106.528 821.745 106.712 821.073 107.08C820.417 107.432 819.889 107.976 819.489 108.712C819.089 109.448 818.889 110.344 818.889 111.4C818.889 112.472 819.081 113.376 819.465 114.112C819.865 114.848 820.393 115.4 821.049 115.768C821.705 116.12 822.425 116.296 823.209 116.296ZM691.032 147.376C691.032 146.032 691.304 144.856 691.848 143.848C692.392 142.824 693.136 142.032 694.08 141.472C695.04 140.912 696.112 140.632 697.296 140.632C698.32 140.632 699.272 140.872 700.152 141.352C701.032 141.816 701.704 142.432 702.168 143.2V136.24H704.376V154H702.168V151.528C701.736 152.312 701.096 152.96 700.248 153.472C699.4 153.968 698.408 154.216 697.272 154.216C696.104 154.216 695.04 153.928 694.08 153.352C693.136 152.776 692.392 151.968 691.848 150.928C691.304 149.888 691.032 148.704 691.032 147.376ZM702.168 147.4C702.168 146.408 701.968 145.544 701.568 144.808C701.168 144.072 700.624 143.512 699.936 143.128C699.264 142.728 698.52 142.528 697.704 142.528C696.888 142.528 696.144 142.72 695.472 143.104C694.8 143.488 694.264 144.048 693.864 144.784C693.464 145.52 693.264 146.384 693.264 147.376C693.264 148.384 693.464 149.264 693.864 150.016C694.264 150.752 694.8 151.32 695.472 151.72C696.144 152.104 696.888 152.296 697.704 152.296C698.52 152.296 699.264 152.104 699.936 151.72C700.624 151.32 701.168 150.752 701.568 150.016C701.968 149.264 702.168 148.392 702.168 147.4ZM720.067 146.92C720.067 147.336 720.043 147.776 719.995 148.24H709.483C709.563 149.536 710.003 150.552 710.803 151.288C711.619 152.008 712.603 152.368 713.755 152.368C714.699 152.368 715.483 152.152 716.107 151.72C716.747 151.272 717.195 150.68 717.451 149.944H719.803C719.451 151.208 718.747 152.24 717.691 153.04C716.635 153.824 715.323 154.216 713.755 154.216C712.507 154.216 711.387 153.936 710.395 153.376C709.419 152.816 708.651 152.024 708.091 151C707.531 149.96 707.251 148.76 707.251 147.4C707.251 146.04 707.523 144.848 708.067 143.824C708.611 142.8 709.371 142.016 710.347 141.472C711.339 140.912 712.475 140.632 713.755 140.632C715.003 140.632 716.107 140.904 717.067 141.448C718.027 141.992 718.763 142.744 719.275 143.704C719.803 144.648 720.067 145.72 720.067 146.92ZM717.811 146.464C717.811 145.632 717.627 144.92 717.259 144.328C716.891 143.72 716.387 143.264 715.747 142.96C715.123 142.64 714.427 142.48 713.659 142.48C712.555 142.48 711.611 142.832 710.827 143.536C710.059 144.24 709.619 145.216 709.507 146.464H717.811ZM734.004 154.216C732.996 154.216 732.092 154.048 731.292 153.712C730.492 153.36 729.86 152.88 729.396 152.272C728.932 151.648 728.676 150.936 728.628 150.136H730.884C730.948 150.792 731.252 151.328 731.796 151.744C732.356 152.16 733.084 152.368 733.98 152.368C734.812 152.368 735.468 152.184 735.948 151.816C736.428 151.448 736.668 150.984 736.668 150.424C736.668 149.848 736.412 149.424 735.9 149.152C735.388 148.864 734.596 148.584 733.524 148.312C732.548 148.056 731.748 147.8 731.124 147.544C730.516 147.272 729.988 146.88 729.54 146.368C729.108 145.84 728.892 145.152 728.892 144.304C728.892 143.632 729.092 143.016 729.492 142.456C729.892 141.896 730.46 141.456 731.196 141.136C731.932 140.8 732.772 140.632 733.716 140.632C735.172 140.632 736.348 141 737.244 141.736C738.14 142.472 738.62 143.48 738.684 144.76H736.5C736.452 144.072 736.172 143.52 735.66 143.104C735.164 142.688 734.492 142.48 733.644 142.48C732.86 142.48 732.236 142.648 731.772 142.984C731.308 143.32 731.076 143.76 731.076 144.304C731.076 144.736 731.212 145.096 731.484 145.384C731.772 145.656 732.124 145.88 732.54 146.056C732.972 146.216 733.564 146.4 734.316 146.608C735.26 146.864 736.028 147.12 736.62 147.376C737.212 147.616 737.716 147.984 738.132 148.48C738.564 148.976 738.788 149.624 738.804 150.424C738.804 151.144 738.604 151.792 738.204 152.368C737.804 152.944 737.236 153.4 736.5 153.736C735.78 154.056 734.948 154.216 734.004 154.216ZM747.623 154.216C746.391 154.216 745.271 153.936 744.263 153.376C743.271 152.816 742.487 152.024 741.911 151C741.351 149.96 741.071 148.76 741.071 147.4C741.071 146.056 741.359 144.872 741.935 143.848C742.527 142.808 743.327 142.016 744.335 141.472C745.343 140.912 746.471 140.632 747.719 140.632C748.967 140.632 750.095 140.912 751.103 141.472C752.111 142.016 752.903 142.8 753.479 143.824C754.071 144.848 754.367 146.04 754.367 147.4C754.367 148.76 754.063 149.96 753.455 151C752.863 152.024 752.055 152.816 751.031 153.376C750.007 153.936 748.871 154.216 747.623 154.216ZM747.623 152.296C748.407 152.296 749.143 152.112 749.831 151.744C750.519 151.376 751.071 150.824 751.487 150.088C751.919 149.352 752.135 148.456 752.135 147.4C752.135 146.344 751.927 145.448 751.511 144.712C751.095 143.976 750.551 143.432 749.879 143.08C749.207 142.712 748.479 142.528 747.695 142.528C746.895 142.528 746.159 142.712 745.487 143.08C744.831 143.432 744.303 143.976 743.903 144.712C743.503 145.448 743.303 146.344 743.303 147.4C743.303 148.472 743.495 149.376 743.879 150.112C744.279 150.848 744.807 151.4 745.463 151.768C746.119 152.12 746.839 152.296 747.623 152.296ZM759.423 136.24V154H757.239V136.24H759.423ZM774.809 140.848V154H772.625V152.056C772.209 152.728 771.625 153.256 770.873 153.64C770.137 154.008 769.321 154.192 768.425 154.192C767.401 154.192 766.481 153.984 765.665 153.568C764.849 153.136 764.201 152.496 763.721 151.648C763.257 150.8 763.025 149.768 763.025 148.552V140.848H765.185V148.264C765.185 149.56 765.513 150.56 766.169 151.264C766.825 151.952 767.721 152.296 768.857 152.296C770.025 152.296 770.945 151.936 771.617 151.216C772.289 150.496 772.625 149.448 772.625 148.072V140.848H774.809ZM784.088 152.368C785.048 152.368 785.848 152.144 786.488 151.696C787.128 151.248 787.568 150.608 787.808 149.776H790.16C789.84 151.024 789.208 152.048 788.264 152.848C787.336 153.632 786.168 154.08 784.76 154.192V155.392C785.704 155.376 786.456 155.576 787.016 155.992C787.576 156.408 787.856 157 787.856 157.768C787.856 158.52 787.584 159.12 787.04 159.568C786.496 160.016 785.792 160.24 784.928 160.24H782.168V158.824H784.496C785.024 158.824 785.408 158.744 785.648 158.584C785.904 158.424 786.032 158.152 786.032 157.768C786.032 157.4 785.904 157.136 785.648 156.976C785.408 156.816 785.024 156.736 784.496 156.736H783.296V154.168C782.192 154.056 781.216 153.712 780.368 153.136C779.52 152.544 778.856 151.76 778.376 150.784C777.912 149.792 777.68 148.664 777.68 147.4C777.68 146.04 777.952 144.856 778.496 143.848C779.04 142.824 779.792 142.032 780.752 141.472C781.728 140.912 782.84 140.632 784.088 140.632C785.704 140.632 787.032 141.024 788.072 141.808C789.128 142.592 789.824 143.68 790.16 145.072H787.808C787.584 144.272 787.144 143.64 786.488 143.176C785.848 142.712 785.048 142.48 784.088 142.48C782.84 142.48 781.832 142.912 781.064 143.776C780.296 144.624 779.912 145.832 779.912 147.4C779.912 148.984 780.296 150.208 781.064 151.072C781.832 151.936 782.84 152.368 784.088 152.368ZM792.259 147.376C792.259 146.032 792.531 144.856 793.075 143.848C793.619 142.824 794.363 142.032 795.307 141.472C796.267 140.912 797.331 140.632 798.499 140.632C799.651 140.632 800.651 140.88 801.499 141.376C802.347 141.872 802.979 142.496 803.395 143.248V140.848H805.603V154H803.395V151.552C802.963 152.32 802.315 152.96 801.451 153.472C800.603 153.968 799.611 154.216 798.475 154.216C797.307 154.216 796.251 153.928 795.307 153.352C794.363 152.776 793.619 151.968 793.075 150.928C792.531 149.888 792.259 148.704 792.259 147.376ZM803.395 147.4C803.395 146.408 803.195 145.544 802.795 144.808C802.395 144.072 801.851 143.512 801.163 143.128C800.491 142.728 799.747 142.528 798.931 142.528C798.115 142.528 797.371 142.72 796.699 143.104C796.027 143.488 795.491 144.048 795.091 144.784C794.691 145.52 794.491 146.384 794.491 147.376C794.491 148.384 794.691 149.264 795.091 150.016C795.491 150.752 796.027 151.32 796.699 151.72C797.371 152.104 798.115 152.296 798.931 152.296C799.747 152.296 800.491 152.104 801.163 151.72C801.851 151.32 802.395 150.752 802.795 150.016C803.195 149.264 803.395 148.392 803.395 147.4ZM795.835 139.432C795.947 138.616 796.211 137.992 796.627 137.56C797.059 137.128 797.595 136.912 798.235 136.912C798.539 136.912 798.795 136.968 799.003 137.08C799.227 137.176 799.491 137.32 799.795 137.512C800.019 137.672 800.219 137.8 800.395 137.896C800.571 137.976 800.763 138.016 800.971 138.016C801.243 138.016 801.475 137.928 801.667 137.752C801.859 137.576 801.979 137.32 802.027 136.984H803.275C803.179 137.784 802.915 138.4 802.483 138.832C802.051 139.264 801.515 139.48 800.875 139.48C800.571 139.48 800.299 139.432 800.059 139.336C799.835 139.224 799.579 139.064 799.291 138.856C799.035 138.696 798.827 138.576 798.667 138.496C798.523 138.416 798.347 138.376 798.139 138.376C797.867 138.376 797.635 138.464 797.443 138.64C797.267 138.816 797.155 139.08 797.107 139.432H795.835ZM815.029 154.216C813.797 154.216 812.677 153.936 811.669 153.376C810.677 152.816 809.893 152.024 809.317 151C808.757 149.96 808.477 148.76 808.477 147.4C808.477 146.056 808.765 144.872 809.341 143.848C809.933 142.808 810.733 142.016 811.741 141.472C812.749 140.912 813.877 140.632 815.125 140.632C816.373 140.632 817.501 140.912 818.509 141.472C819.517 142.016 820.309 142.8 820.885 143.824C821.477 144.848 821.773 146.04 821.773 147.4C821.773 148.76 821.469 149.96 820.861 151C820.269 152.024 819.461 152.816 818.437 153.376C817.413 153.936 816.277 154.216 815.029 154.216ZM815.029 152.296C815.813 152.296 816.549 152.112 817.237 151.744C817.925 151.376 818.477 150.824 818.893 150.088C819.325 149.352 819.541 148.456 819.541 147.4C819.541 146.344 819.333 145.448 818.917 144.712C818.501 143.976 817.957 143.432 817.285 143.08C816.613 142.712 815.885 142.528 815.101 142.528C814.301 142.528 813.565 142.712 812.893 143.08C812.237 143.432 811.709 143.976 811.309 144.712C810.909 145.448 810.709 146.344 810.709 147.4C810.709 148.472 810.901 149.376 811.285 150.112C811.685 150.848 812.213 151.4 812.869 151.768C813.525 152.12 814.245 152.296 815.029 152.296Z" fill="black"/>
<path d="M39.736 266.28H32.44L31.096 270H28.792L34.84 253.368H37.36L43.384 270H41.08L39.736 266.28ZM39.112 264.504L36.088 256.056L33.064 264.504H39.112ZM48.2039 259.272C48.6359 258.52 49.2759 257.896 50.1239 257.4C50.9879 256.888 51.9879 256.632 53.1239 256.632C54.2919 256.632 55.3479 256.912 56.2919 257.472C57.2519 258.032 58.0039 258.824 58.5479 259.848C59.0919 260.856 59.3639 262.032 59.3639 263.376C59.3639 264.704 59.0919 265.888 58.5479 266.928C58.0039 267.968 57.2519 268.776 56.2919 269.352C55.3479 269.928 54.2919 270.216 53.1239 270.216C52.0039 270.216 51.0119 269.968 50.1479 269.472C49.2999 268.96 48.6519 268.328 48.2039 267.576V276.24H46.0199V256.848H48.2039V259.272ZM57.1319 263.376C57.1319 262.384 56.9319 261.52 56.5319 260.784C56.1319 260.048 55.5879 259.488 54.8999 259.104C54.2279 258.72 53.4839 258.528 52.6679 258.528C51.8679 258.528 51.1239 258.728 50.4359 259.128C49.7639 259.512 49.2199 260.08 48.8039 260.832C48.4039 261.568 48.2039 262.424 48.2039 263.4C48.2039 264.392 48.4039 265.264 48.8039 266.016C49.2199 266.752 49.7639 267.32 50.4359 267.72C51.1239 268.104 51.8679 268.296 52.6679 268.296C53.4839 268.296 54.2279 268.104 54.8999 267.72C55.5879 267.32 56.1319 266.752 56.5319 266.016C56.9319 265.264 57.1319 264.384 57.1319 263.376ZM64.4226 252.24V270H62.2386V252.24H64.4226ZM69.2729 254.712C68.8569 254.712 68.5049 254.568 68.2169 254.28C67.9289 253.992 67.7849 253.64 67.7849 253.224C67.7849 252.808 67.9289 252.456 68.2169 252.168C68.5049 251.88 68.8569 251.736 69.2729 251.736C69.6729 251.736 70.0089 251.88 70.2809 252.168C70.5689 252.456 70.7129 252.808 70.7129 253.224C70.7129 253.64 70.5689 253.992 70.2809 254.28C70.0089 254.568 69.6729 254.712 69.2729 254.712ZM70.3289 256.848V270H68.1449V256.848H70.3289ZM73.2351 263.4C73.2351 262.04 73.5071 260.856 74.0511 259.848C74.5951 258.824 75.3471 258.032 76.3071 257.472C77.2831 256.912 78.3951 256.632 79.6431 256.632C81.2591 256.632 82.5871 257.024 83.6271 257.808C84.6831 258.592 85.3791 259.68 85.7151 261.072H83.3631C83.1391 260.272 82.6991 259.64 82.0431 259.176C81.4031 258.712 80.6031 258.48 79.6431 258.48C78.3951 258.48 77.3871 258.912 76.6191 259.776C75.8511 260.624 75.4671 261.832 75.4671 263.4C75.4671 264.984 75.8511 266.208 76.6191 267.072C77.3871 267.936 78.3951 268.368 79.6431 268.368C80.6031 268.368 81.4031 268.144 82.0431 267.696C82.6831 267.248 83.1231 266.608 83.3631 265.776H85.7151C85.3631 267.12 84.6591 268.2 83.6031 269.016C82.5471 269.816 81.2271 270.216 79.6431 270.216C78.3951 270.216 77.2831 269.936 76.3071 269.376C75.3471 268.816 74.5951 268.024 74.0511 267C73.5071 265.976 73.2351 264.776 73.2351 263.4ZM87.8133 263.376C87.8133 262.032 88.0853 260.856 88.6293 259.848C89.1733 258.824 89.9173 258.032 90.8613 257.472C91.8213 256.912 92.8853 256.632 94.0533 256.632C95.2053 256.632 96.2053 256.88 97.0533 257.376C97.9013 257.872 98.5333 258.496 98.9493 259.248V256.848H101.157V270H98.9493V267.552C98.5173 268.32 97.8693 268.96 97.0053 269.472C96.1573 269.968 95.1653 270.216 94.0293 270.216C92.8613 270.216 91.8053 269.928 90.8613 269.352C89.9173 268.776 89.1733 267.968 88.6293 266.928C88.0853 265.888 87.8133 264.704 87.8133 263.376ZM98.9493 263.4C98.9493 262.408 98.7493 261.544 98.3493 260.808C97.9493 260.072 97.4053 259.512 96.7173 259.128C96.0453 258.728 95.3013 258.528 94.4853 258.528C93.6693 258.528 92.9253 258.72 92.2533 259.104C91.5813 259.488 91.0453 260.048 90.6453 260.784C90.2453 261.52 90.0453 262.384 90.0453 263.376C90.0453 264.384 90.2453 265.264 90.6453 266.016C91.0453 266.752 91.5813 267.32 92.2533 267.72C92.9253 268.104 93.6693 268.296 94.4853 268.296C95.3013 268.296 96.0453 268.104 96.7173 267.72C97.4053 267.32 97.9493 266.752 98.3493 266.016C98.7493 265.264 98.9493 264.392 98.9493 263.4ZM110.44 268.368C111.4 268.368 112.2 268.144 112.84 267.696C113.48 267.248 113.92 266.608 114.16 265.776H116.512C116.192 267.024 115.56 268.048 114.616 268.848C113.688 269.632 112.52 270.08 111.112 270.192V271.392C112.056 271.376 112.808 271.576 113.368 271.992C113.928 272.408 114.208 273 114.208 273.768C114.208 274.52 113.936 275.12 113.392 275.568C112.848 276.016 112.144 276.24 111.28 276.24H108.52V274.824H110.848C111.376 274.824 111.76 274.744 112 274.584C112.256 274.424 112.384 274.152 112.384 273.768C112.384 273.4 112.256 273.136 112 272.976C111.76 272.816 111.376 272.736 110.848 272.736H109.648V270.168C108.544 270.056 107.568 269.712 106.72 269.136C105.872 268.544 105.208 267.76 104.728 266.784C104.264 265.792 104.032 264.664 104.032 263.4C104.032 262.04 104.304 260.856 104.848 259.848C105.392 258.824 106.144 258.032 107.104 257.472C108.08 256.912 109.192 256.632 110.44 256.632C112.056 256.632 113.384 257.024 114.424 257.808C115.48 258.592 116.176 259.68 116.512 261.072H114.16C113.936 260.272 113.496 259.64 112.84 259.176C112.2 258.712 111.4 258.48 110.44 258.48C109.192 258.48 108.184 258.912 107.416 259.776C106.648 260.624 106.264 261.832 106.264 263.4C106.264 264.984 106.648 266.208 107.416 267.072C108.184 267.936 109.192 268.368 110.44 268.368ZM118.61 263.376C118.61 262.032 118.882 260.856 119.426 259.848C119.97 258.824 120.714 258.032 121.658 257.472C122.618 256.912 123.682 256.632 124.85 256.632C126.002 256.632 127.002 256.88 127.85 257.376C128.698 257.872 129.33 258.496 129.746 259.248V256.848H131.954V270H129.746V267.552C129.314 268.32 128.666 268.96 127.802 269.472C126.954 269.968 125.962 270.216 124.826 270.216C123.658 270.216 122.602 269.928 121.658 269.352C120.714 268.776 119.97 267.968 119.426 266.928C118.882 265.888 118.61 264.704 118.61 263.376ZM129.746 263.4C129.746 262.408 129.546 261.544 129.146 260.808C128.746 260.072 128.202 259.512 127.514 259.128C126.842 258.728 126.098 258.528 125.282 258.528C124.466 258.528 123.722 258.72 123.05 259.104C122.378 259.488 121.842 260.048 121.442 260.784C121.042 261.52 120.842 262.384 120.842 263.376C120.842 264.384 121.042 265.264 121.442 266.016C121.842 266.752 122.378 267.32 123.05 267.72C123.722 268.104 124.466 268.296 125.282 268.296C126.098 268.296 126.842 268.104 127.514 267.72C128.202 267.32 128.746 266.752 129.146 266.016C129.546 265.264 129.746 264.392 129.746 263.4ZM122.186 255.432C122.298 254.616 122.562 253.992 122.978 253.56C123.41 253.128 123.946 252.912 124.586 252.912C124.89 252.912 125.146 252.968 125.354 253.08C125.578 253.176 125.842 253.32 126.146 253.512C126.37 253.672 126.57 253.8 126.746 253.896C126.922 253.976 127.114 254.016 127.322 254.016C127.594 254.016 127.826 253.928 128.018 253.752C128.21 253.576 128.33 253.32 128.378 252.984H129.626C129.53 253.784 129.266 254.4 128.834 254.832C128.402 255.264 127.866 255.48 127.226 255.48C126.922 255.48 126.65 255.432 126.41 255.336C126.186 255.224 125.93 255.064 125.642 254.856C125.386 254.696 125.178 254.576 125.018 254.496C124.874 254.416 124.698 254.376 124.49 254.376C124.218 254.376 123.986 254.464 123.794 254.64C123.618 254.816 123.506 255.08 123.458 255.432H122.186ZM141.381 270.216C140.149 270.216 139.029 269.936 138.021 269.376C137.029 268.816 136.245 268.024 135.669 267C135.109 265.96 134.829 264.76 134.829 263.4C134.829 262.056 135.117 260.872 135.693 259.848C136.285 258.808 137.085 258.016 138.093 257.472C139.101 256.912 140.229 256.632 141.477 256.632C142.725 256.632 143.853 256.912 144.861 257.472C145.869 258.016 146.661 258.8 147.237 259.824C147.829 260.848 148.125 262.04 148.125 263.4C148.125 264.76 147.821 265.96 147.213 267C146.621 268.024 145.813 268.816 144.789 269.376C143.765 269.936 142.629 270.216 141.381 270.216ZM141.381 268.296C142.165 268.296 142.901 268.112 143.589 267.744C144.277 267.376 144.829 266.824 145.245 266.088C145.677 265.352 145.893 264.456 145.893 263.4C145.893 262.344 145.685 261.448 145.269 260.712C144.853 259.976 144.309 259.432 143.637 259.08C142.965 258.712 142.237 258.528 141.453 258.528C140.653 258.528 139.917 258.712 139.245 259.08C138.589 259.432 138.061 259.976 137.661 260.712C137.261 261.448 137.061 262.344 137.061 263.4C137.061 264.472 137.253 265.376 137.637 266.112C138.037 266.848 138.565 267.4 139.221 267.768C139.877 268.12 140.597 268.296 141.381 268.296ZM156.579 263.376C156.579 262.032 156.851 260.856 157.395 259.848C157.939 258.824 158.683 258.032 159.627 257.472C160.587 256.912 161.659 256.632 162.843 256.632C163.867 256.632 164.819 256.872 165.699 257.352C166.579 257.816 167.251 258.432 167.715 259.2V252.24H169.923V270H167.715V267.528C167.283 268.312 166.643 268.96 165.795 269.472C164.947 269.968 163.955 270.216 162.819 270.216C161.651 270.216 160.587 269.928 159.627 269.352C158.683 268.776 157.939 267.968 157.395 266.928C156.851 265.888 156.579 264.704 156.579 263.376ZM167.715 263.4C167.715 262.408 167.515 261.544 167.115 260.808C166.715 260.072 166.171 259.512 165.483 259.128C164.811 258.728 164.067 258.528 163.251 258.528C162.435 258.528 161.691 258.72 161.019 259.104C160.347 259.488 159.811 260.048 159.411 260.784C159.011 261.52 158.811 262.384 158.811 263.376C158.811 264.384 159.011 265.264 159.411 266.016C159.811 266.752 160.347 267.32 161.019 267.72C161.691 268.104 162.435 268.296 163.251 268.296C164.067 268.296 164.811 268.104 165.483 267.72C166.171 267.32 166.715 266.752 167.115 266.016C167.515 265.264 167.715 264.392 167.715 263.4ZM172.798 263.376C172.798 262.032 173.07 260.856 173.614 259.848C174.158 258.824 174.902 258.032 175.846 257.472C176.806 256.912 177.87 256.632 179.038 256.632C180.19 256.632 181.19 256.88 182.038 257.376C182.886 257.872 183.518 258.496 183.934 259.248V256.848H186.142V270H183.934V267.552C183.502 268.32 182.854 268.96 181.99 269.472C181.142 269.968 180.15 270.216 179.014 270.216C177.846 270.216 176.79 269.928 175.846 269.352C174.902 268.776 174.158 267.968 173.614 266.928C173.07 265.888 172.798 264.704 172.798 263.376ZM183.934 263.4C183.934 262.408 183.734 261.544 183.334 260.808C182.934 260.072 182.39 259.512 181.702 259.128C181.03 258.728 180.286 258.528 179.47 258.528C178.654 258.528 177.91 258.72 177.238 259.104C176.566 259.488 176.03 260.048 175.63 260.784C175.23 261.52 175.03 262.384 175.03 263.376C175.03 264.384 175.23 265.264 175.63 266.016C176.03 266.752 176.566 267.32 177.238 267.72C177.91 268.104 178.654 268.296 179.47 268.296C180.286 268.296 181.03 268.104 181.702 267.72C182.39 267.32 182.934 266.752 183.334 266.016C183.734 265.264 183.934 264.392 183.934 263.4ZM34.504 306.216C33.496 306.216 32.592 306.048 31.792 305.712C30.992 305.36 30.36 304.88 29.896 304.272C29.432 303.648 29.176 302.936 29.128 302.136H31.384C31.448 302.792 31.752 303.328 32.296 303.744C32.856 304.16 33.584 304.368 34.48 304.368C35.312 304.368 35.968 304.184 36.448 303.816C36.928 303.448 37.168 302.984 37.168 302.424C37.168 301.848 36.912 301.424 36.4 301.152C35.888 300.864 35.096 300.584 34.024 300.312C33.048 300.056 32.248 299.8 31.624 299.544C31.016 299.272 30.488 298.88 30.04 298.368C29.608 297.84 29.392 297.152 29.392 296.304C29.392 295.632 29.592 295.016 29.992 294.456C30.392 293.896 30.96 293.456 31.696 293.136C32.432 292.8 33.272 292.632 34.216 292.632C35.672 292.632 36.848 293 37.744 293.736C38.64 294.472 39.12 295.48 39.184 296.76H37C36.952 296.072 36.672 295.52 36.16 295.104C35.664 294.688 34.992 294.48 34.144 294.48C33.36 294.48 32.736 294.648 32.272 294.984C31.808 295.32 31.576 295.76 31.576 296.304C31.576 296.736 31.712 297.096 31.984 297.384C32.272 297.656 32.624 297.88 33.04 298.056C33.472 298.216 34.064 298.4 34.816 298.608C35.76 298.864 36.528 299.12 37.12 299.376C37.712 299.616 38.216 299.984 38.632 300.48C39.064 300.976 39.288 301.624 39.304 302.424C39.304 303.144 39.104 303.792 38.704 304.368C38.304 304.944 37.736 305.4 37 305.736C36.28 306.056 35.448 306.216 34.504 306.216ZM48.1231 306.216C46.8911 306.216 45.7711 305.936 44.7631 305.376C43.7711 304.816 42.9871 304.024 42.4111 303C41.8511 301.96 41.5711 300.76 41.5711 299.4C41.5711 298.056 41.8591 296.872 42.4351 295.848C43.0271 294.808 43.8271 294.016 44.8351 293.472C45.8431 292.912 46.9711 292.632 48.2191 292.632C49.4671 292.632 50.5951 292.912 51.6031 293.472C52.6111 294.016 53.4031 294.8 53.9791 295.824C54.5711 296.848 54.8671 298.04 54.8671 299.4C54.8671 300.76 54.5631 301.96 53.9551 303C53.3631 304.024 52.5551 304.816 51.5311 305.376C50.5071 305.936 49.3711 306.216 48.1231 306.216ZM48.1231 304.296C48.9071 304.296 49.6431 304.112 50.3311 303.744C51.0191 303.376 51.5711 302.824 51.9871 302.088C52.4191 301.352 52.6351 300.456 52.6351 299.4C52.6351 298.344 52.4271 297.448 52.0111 296.712C51.5951 295.976 51.0511 295.432 50.3791 295.08C49.7071 294.712 48.9791 294.528 48.1951 294.528C47.3951 294.528 46.6591 294.712 45.9871 295.08C45.3311 295.432 44.8031 295.976 44.4031 296.712C44.0031 297.448 43.8031 298.344 43.8031 299.4C43.8031 300.472 43.9951 301.376 44.3791 302.112C44.7791 302.848 45.3071 303.4 45.9631 303.768C46.6191 304.12 47.3391 304.296 48.1231 304.296ZM59.9226 288.24V306H57.7386V288.24H59.9226ZM75.3089 292.848V306H73.1249V304.056C72.7089 304.728 72.1249 305.256 71.3729 305.64C70.6369 306.008 69.8209 306.192 68.9249 306.192C67.9009 306.192 66.9809 305.984 66.1649 305.568C65.3489 305.136 64.7009 304.496 64.2209 303.648C63.7569 302.8 63.5249 301.768 63.5249 300.552V292.848H65.6849V300.264C65.6849 301.56 66.0129 302.56 66.6689 303.264C67.3249 303.952 68.2209 304.296 69.3569 304.296C70.5249 304.296 71.4449 303.936 72.1169 303.216C72.7889 302.496 73.1249 301.448 73.1249 300.072V292.848H75.3089ZM84.5884 304.368C85.5484 304.368 86.3484 304.144 86.9884 303.696C87.6284 303.248 88.0684 302.608 88.3084 301.776H90.6604C90.3404 303.024 89.7084 304.048 88.7644 304.848C87.8364 305.632 86.6684 306.08 85.2604 306.192V307.392C86.2044 307.376 86.9564 307.576 87.5164 307.992C88.0764 308.408 88.3564 309 88.3564 309.768C88.3564 310.52 88.0844 311.12 87.5404 311.568C86.9964 312.016 86.2924 312.24 85.4284 312.24H82.6684V310.824H84.9964C85.5244 310.824 85.9084 310.744 86.1484 310.584C86.4044 310.424 86.5324 310.152 86.5324 309.768C86.5324 309.4 86.4044 309.136 86.1484 308.976C85.9084 308.816 85.5244 308.736 84.9964 308.736H83.7964V306.168C82.6924 306.056 81.7164 305.712 80.8684 305.136C80.0204 304.544 79.3564 303.76 78.8764 302.784C78.4124 301.792 78.1804 300.664 78.1804 299.4C78.1804 298.04 78.4524 296.856 78.9964 295.848C79.5404 294.824 80.2924 294.032 81.2524 293.472C82.2284 292.912 83.3404 292.632 84.5884 292.632C86.2044 292.632 87.5324 293.024 88.5724 293.808C89.6284 294.592 90.3244 295.68 90.6604 297.072H88.3084C88.0844 296.272 87.6444 295.64 86.9884 295.176C86.3484 294.712 85.5484 294.48 84.5884 294.48C83.3404 294.48 82.3324 294.912 81.5644 295.776C80.7964 296.624 80.4124 297.832 80.4124 299.4C80.4124 300.984 80.7964 302.208 81.5644 303.072C82.3324 303.936 83.3404 304.368 84.5884 304.368ZM92.7586 299.376C92.7586 298.032 93.0306 296.856 93.5746 295.848C94.1186 294.824 94.8626 294.032 95.8066 293.472C96.7666 292.912 97.8306 292.632 98.9986 292.632C100.151 292.632 101.151 292.88 101.999 293.376C102.847 293.872 103.479 294.496 103.895 295.248V292.848H106.103V306H103.895V303.552C103.463 304.32 102.815 304.96 101.951 305.472C101.103 305.968 100.111 306.216 98.9746 306.216C97.8066 306.216 96.7506 305.928 95.8066 305.352C94.8626 304.776 94.1186 303.968 93.5746 302.928C93.0306 301.888 92.7586 300.704 92.7586 299.376ZM103.895 299.4C103.895 298.408 103.695 297.544 103.295 296.808C102.895 296.072 102.351 295.512 101.663 295.128C100.991 294.728 100.247 294.528 99.4306 294.528C98.6146 294.528 97.8706 294.72 97.1986 295.104C96.5266 295.488 95.9906 296.048 95.5906 296.784C95.1906 297.52 94.9906 298.384 94.9906 299.376C94.9906 300.384 95.1906 301.264 95.5906 302.016C95.9906 302.752 96.5266 303.32 97.1986 303.72C97.8706 304.104 98.6146 304.296 99.4306 304.296C100.247 304.296 100.991 304.104 101.663 303.72C102.351 303.32 102.895 302.752 103.295 302.016C103.695 301.264 103.895 300.392 103.895 299.4ZM96.3346 291.432C96.4466 290.616 96.7106 289.992 97.1266 289.56C97.5586 289.128 98.0946 288.912 98.7346 288.912C99.0386 288.912 99.2946 288.968 99.5026 289.08C99.7266 289.176 99.9906 289.32 100.295 289.512C100.519 289.672 100.719 289.8 100.895 289.896C101.071 289.976 101.263 290.016 101.471 290.016C101.743 290.016 101.975 289.928 102.167 289.752C102.359 289.576 102.479 289.32 102.527 288.984H103.775C103.679 289.784 103.415 290.4 102.983 290.832C102.551 291.264 102.015 291.48 101.375 291.48C101.071 291.48 100.799 291.432 100.559 291.336C100.335 291.224 100.079 291.064 99.7906 290.856C99.5346 290.696 99.3266 290.576 99.1666 290.496C99.0226 290.416 98.8466 290.376 98.6386 290.376C98.3666 290.376 98.1346 290.464 97.9426 290.64C97.7666 290.816 97.6546 291.08 97.6066 291.432H96.3346ZM115.529 306.216C114.297 306.216 113.177 305.936 112.169 305.376C111.177 304.816 110.393 304.024 109.817 303C109.257 301.96 108.977 300.76 108.977 299.4C108.977 298.056 109.265 296.872 109.841 295.848C110.433 294.808 111.233 294.016 112.241 293.472C113.249 292.912 114.377 292.632 115.625 292.632C116.873 292.632 118.001 292.912 119.009 293.472C120.017 294.016 120.809 294.8 121.385 295.824C121.977 296.848 122.273 298.04 122.273 299.4C122.273 300.76 121.969 301.96 121.361 303C120.769 304.024 119.961 304.816 118.937 305.376C117.913 305.936 116.777 306.216 115.529 306.216ZM115.529 304.296C116.313 304.296 117.049 304.112 117.737 303.744C118.425 303.376 118.977 302.824 119.393 302.088C119.825 301.352 120.041 300.456 120.041 299.4C120.041 298.344 119.833 297.448 119.417 296.712C119.001 295.976 118.457 295.432 117.785 295.08C117.113 294.712 116.385 294.528 115.601 294.528C114.801 294.528 114.065 294.712 113.393 295.08C112.737 295.432 112.209 295.976 111.809 296.712C111.409 297.448 111.209 298.344 111.209 299.4C111.209 300.472 111.401 301.376 111.785 302.112C112.185 302.848 112.713 303.4 113.369 303.768C114.025 304.12 114.745 304.296 115.529 304.296Z" fill="black"/>
</svg>
